<?xml version="1.0" encoding="utf-8" standalone="no"?>
<!DOCTYPE svg PUBLIC "-//W3C//DTD SVG 1.1//EN"
  "http://www.w3.org/Graphics/SVG/1.1/DTD/svg11.dtd">
<svg xmlns:xlink="http://www.w3.org/1999/xlink" width="290.465312pt" height="284.126625pt" viewBox="0 0 290.465312 284.126625" xmlns="http://www.w3.org/2000/svg" version="1.1">
 <metadata>
  <rdf:RDF xmlns:dc="http://purl.org/dc/elements/1.1/" xmlns:cc="http://creativecommons.org/ns#" xmlns:rdf="http://www.w3.org/1999/02/22-rdf-syntax-ns#">
   <cc:Work>
    <dc:type rdf:resource="http://purl.org/dc/dcmitype/StillImage"/>
    <dc:date>2023-10-19T17:09:53.631311</dc:date>
    <dc:format>image/svg+xml</dc:format>
    <dc:creator>
     <cc:Agent>
      <dc:title>Matplotlib v3.7.1, https://matplotlib.org/</dc:title>
     </cc:Agent>
    </dc:creator>
   </cc:Work>
  </rdf:RDF>
 </metadata>
 <defs>
  <style type="text/css">*{stroke-linejoin: round; stroke-linecap: butt}</style>
 </defs>
 <g id="figure_1">
  <g id="patch_1">
   <path d="M 0 284.126625 
L 290.465312 284.126625 
L 290.465312 0 
L 0 0 
z
" style="fill: #ffffff"/>
  </g>
  <g id="axes_1">
   <g id="patch_2">
    <path d="M 37.745313 251.136 
L 283.265312 251.136 
L 283.265312 7.2 
L 37.745313 7.2 
z
" style="fill: #eaeaf2"/>
   </g>
   <g id="matplotlib.axis_1">
    <g id="xtick_1">
     <g id="line2d_1">
      <path d="M 48.905313 251.136 
L 48.905313 7.2 
" clip-path="url(#p18663571d4)" style="fill: none; stroke: #ffffff; stroke-width: 0.8; stroke-linecap: round"/>
     </g>
     <g id="line2d_2"/>
     <g id="text_1">
      <!-- 0.0 -->
      <g style="fill: #262626" transform="translate(41.955313 261.793813) scale(0.1 -0.1)">
       <defs>
        <path id="ArialMT-30" d="M 266 2259 
Q 266 3072 433 3567 
Q 600 4063 929 4331 
Q 1259 4600 1759 4600 
Q 2128 4600 2406 4451 
Q 2684 4303 2865 4023 
Q 3047 3744 3150 3342 
Q 3253 2941 3253 2259 
Q 3253 1453 3087 958 
Q 2922 463 2592 192 
Q 2263 -78 1759 -78 
Q 1097 -78 719 397 
Q 266 969 266 2259 
z
M 844 2259 
Q 844 1131 1108 757 
Q 1372 384 1759 384 
Q 2147 384 2411 759 
Q 2675 1134 2675 2259 
Q 2675 3391 2411 3762 
Q 2147 4134 1753 4134 
Q 1366 4134 1134 3806 
Q 844 3388 844 2259 
z
" transform="scale(0.015625)"/>
        <path id="ArialMT-2e" d="M 581 0 
L 581 641 
L 1222 641 
L 1222 0 
L 581 0 
z
" transform="scale(0.015625)"/>
       </defs>
       <use xlink:href="#ArialMT-30"/>
       <use xlink:href="#ArialMT-2e" x="55.615234"/>
       <use xlink:href="#ArialMT-30" x="83.398438"/>
      </g>
     </g>
    </g>
    <g id="xtick_2">
     <g id="line2d_3">
      <path d="M 93.545313 251.136 
L 93.545313 7.2 
" clip-path="url(#p18663571d4)" style="fill: none; stroke: #ffffff; stroke-width: 0.8; stroke-linecap: round"/>
     </g>
     <g id="line2d_4"/>
     <g id="text_2">
      <!-- 0.2 -->
      <g style="fill: #262626" transform="translate(86.595313 261.793813) scale(0.1 -0.1)">
       <defs>
        <path id="ArialMT-32" d="M 3222 541 
L 3222 0 
L 194 0 
Q 188 203 259 391 
Q 375 700 629 1000 
Q 884 1300 1366 1694 
Q 2113 2306 2375 2664 
Q 2638 3022 2638 3341 
Q 2638 3675 2398 3904 
Q 2159 4134 1775 4134 
Q 1369 4134 1125 3890 
Q 881 3647 878 3216 
L 300 3275 
Q 359 3922 746 4261 
Q 1134 4600 1788 4600 
Q 2447 4600 2831 4234 
Q 3216 3869 3216 3328 
Q 3216 3053 3103 2787 
Q 2991 2522 2730 2228 
Q 2469 1934 1863 1422 
Q 1356 997 1212 845 
Q 1069 694 975 541 
L 3222 541 
z
" transform="scale(0.015625)"/>
       </defs>
       <use xlink:href="#ArialMT-30"/>
       <use xlink:href="#ArialMT-2e" x="55.615234"/>
       <use xlink:href="#ArialMT-32" x="83.398438"/>
      </g>
     </g>
    </g>
    <g id="xtick_3">
     <g id="line2d_5">
      <path d="M 138.185313 251.136 
L 138.185313 7.2 
" clip-path="url(#p18663571d4)" style="fill: none; stroke: #ffffff; stroke-width: 0.8; stroke-linecap: round"/>
     </g>
     <g id="line2d_6"/>
     <g id="text_3">
      <!-- 0.4 -->
      <g style="fill: #262626" transform="translate(131.235313 261.793813) scale(0.1 -0.1)">
       <defs>
        <path id="ArialMT-34" d="M 2069 0 
L 2069 1097 
L 81 1097 
L 81 1613 
L 2172 4581 
L 2631 4581 
L 2631 1613 
L 3250 1613 
L 3250 1097 
L 2631 1097 
L 2631 0 
L 2069 0 
z
M 2069 1613 
L 2069 3678 
L 634 1613 
L 2069 1613 
z
" transform="scale(0.015625)"/>
       </defs>
       <use xlink:href="#ArialMT-30"/>
       <use xlink:href="#ArialMT-2e" x="55.615234"/>
       <use xlink:href="#ArialMT-34" x="83.398438"/>
      </g>
     </g>
    </g>
    <g id="xtick_4">
     <g id="line2d_7">
      <path d="M 182.825313 251.136 
L 182.825313 7.2 
" clip-path="url(#p18663571d4)" style="fill: none; stroke: #ffffff; stroke-width: 0.8; stroke-linecap: round"/>
     </g>
     <g id="line2d_8"/>
     <g id="text_4">
      <!-- 0.6 -->
      <g style="fill: #262626" transform="translate(175.875313 261.793813) scale(0.1 -0.1)">
       <defs>
        <path id="ArialMT-36" d="M 3184 3459 
L 2625 3416 
Q 2550 3747 2413 3897 
Q 2184 4138 1850 4138 
Q 1581 4138 1378 3988 
Q 1113 3794 959 3422 
Q 806 3050 800 2363 
Q 1003 2672 1297 2822 
Q 1591 2972 1913 2972 
Q 2475 2972 2870 2558 
Q 3266 2144 3266 1488 
Q 3266 1056 3080 686 
Q 2894 316 2569 119 
Q 2244 -78 1831 -78 
Q 1128 -78 684 439 
Q 241 956 241 2144 
Q 241 3472 731 4075 
Q 1159 4600 1884 4600 
Q 2425 4600 2770 4297 
Q 3116 3994 3184 3459 
z
M 888 1484 
Q 888 1194 1011 928 
Q 1134 663 1356 523 
Q 1578 384 1822 384 
Q 2178 384 2434 671 
Q 2691 959 2691 1453 
Q 2691 1928 2437 2201 
Q 2184 2475 1800 2475 
Q 1419 2475 1153 2201 
Q 888 1928 888 1484 
z
" transform="scale(0.015625)"/>
       </defs>
       <use xlink:href="#ArialMT-30"/>
       <use xlink:href="#ArialMT-2e" x="55.615234"/>
       <use xlink:href="#ArialMT-36" x="83.398438"/>
      </g>
     </g>
    </g>
    <g id="xtick_5">
     <g id="line2d_9">
      <path d="M 227.465313 251.136 
L 227.465313 7.2 
" clip-path="url(#p18663571d4)" style="fill: none; stroke: #ffffff; stroke-width: 0.8; stroke-linecap: round"/>
     </g>
     <g id="line2d_10"/>
     <g id="text_5">
      <!-- 0.8 -->
      <g style="fill: #262626" transform="translate(220.515313 261.793813) scale(0.1 -0.1)">
       <defs>
        <path id="ArialMT-38" d="M 1131 2484 
Q 781 2613 612 2850 
Q 444 3088 444 3419 
Q 444 3919 803 4259 
Q 1163 4600 1759 4600 
Q 2359 4600 2725 4251 
Q 3091 3903 3091 3403 
Q 3091 3084 2923 2848 
Q 2756 2613 2416 2484 
Q 2838 2347 3058 2040 
Q 3278 1734 3278 1309 
Q 3278 722 2862 322 
Q 2447 -78 1769 -78 
Q 1091 -78 675 323 
Q 259 725 259 1325 
Q 259 1772 486 2073 
Q 713 2375 1131 2484 
z
M 1019 3438 
Q 1019 3113 1228 2906 
Q 1438 2700 1772 2700 
Q 2097 2700 2305 2904 
Q 2513 3109 2513 3406 
Q 2513 3716 2298 3927 
Q 2084 4138 1766 4138 
Q 1444 4138 1231 3931 
Q 1019 3725 1019 3438 
z
M 838 1322 
Q 838 1081 952 856 
Q 1066 631 1291 507 
Q 1516 384 1775 384 
Q 2178 384 2440 643 
Q 2703 903 2703 1303 
Q 2703 1709 2433 1975 
Q 2163 2241 1756 2241 
Q 1359 2241 1098 1978 
Q 838 1716 838 1322 
z
" transform="scale(0.015625)"/>
       </defs>
       <use xlink:href="#ArialMT-30"/>
       <use xlink:href="#ArialMT-2e" x="55.615234"/>
       <use xlink:href="#ArialMT-38" x="83.398438"/>
      </g>
     </g>
    </g>
    <g id="xtick_6">
     <g id="line2d_11">
      <path d="M 272.105313 251.136 
L 272.105313 7.2 
" clip-path="url(#p18663571d4)" style="fill: none; stroke: #ffffff; stroke-width: 0.8; stroke-linecap: round"/>
     </g>
     <g id="line2d_12"/>
     <g id="text_6">
      <!-- 1.0 -->
      <g style="fill: #262626" transform="translate(265.155313 261.793813) scale(0.1 -0.1)">
       <defs>
        <path id="ArialMT-31" d="M 2384 0 
L 1822 0 
L 1822 3584 
Q 1619 3391 1289 3197 
Q 959 3003 697 2906 
L 697 3450 
Q 1169 3672 1522 3987 
Q 1875 4303 2022 4600 
L 2384 4600 
L 2384 0 
z
" transform="scale(0.015625)"/>
       </defs>
       <use xlink:href="#ArialMT-31"/>
       <use xlink:href="#ArialMT-2e" x="55.615234"/>
       <use xlink:href="#ArialMT-30" x="83.398438"/>
      </g>
     </g>
    </g>
    <g id="text_7">
     <!-- False Positive Rate -->
     <g style="fill: #262626" transform="translate(117.433437 274.939125) scale(0.1 -0.1)">
      <defs>
       <path id="ArialMT-46" d="M 525 0 
L 525 4581 
L 3616 4581 
L 3616 4041 
L 1131 4041 
L 1131 2622 
L 3281 2622 
L 3281 2081 
L 1131 2081 
L 1131 0 
L 525 0 
z
" transform="scale(0.015625)"/>
       <path id="ArialMT-61" d="M 2588 409 
Q 2275 144 1986 34 
Q 1697 -75 1366 -75 
Q 819 -75 525 192 
Q 231 459 231 875 
Q 231 1119 342 1320 
Q 453 1522 633 1644 
Q 813 1766 1038 1828 
Q 1203 1872 1538 1913 
Q 2219 1994 2541 2106 
Q 2544 2222 2544 2253 
Q 2544 2597 2384 2738 
Q 2169 2928 1744 2928 
Q 1347 2928 1158 2789 
Q 969 2650 878 2297 
L 328 2372 
Q 403 2725 575 2942 
Q 747 3159 1072 3276 
Q 1397 3394 1825 3394 
Q 2250 3394 2515 3294 
Q 2781 3194 2906 3042 
Q 3031 2891 3081 2659 
Q 3109 2516 3109 2141 
L 3109 1391 
Q 3109 606 3145 398 
Q 3181 191 3288 0 
L 2700 0 
Q 2613 175 2588 409 
z
M 2541 1666 
Q 2234 1541 1622 1453 
Q 1275 1403 1131 1340 
Q 988 1278 909 1158 
Q 831 1038 831 891 
Q 831 666 1001 516 
Q 1172 366 1500 366 
Q 1825 366 2078 508 
Q 2331 650 2450 897 
Q 2541 1088 2541 1459 
L 2541 1666 
z
" transform="scale(0.015625)"/>
       <path id="ArialMT-6c" d="M 409 0 
L 409 4581 
L 972 4581 
L 972 0 
L 409 0 
z
" transform="scale(0.015625)"/>
       <path id="ArialMT-73" d="M 197 991 
L 753 1078 
Q 800 744 1014 566 
Q 1228 388 1613 388 
Q 2000 388 2187 545 
Q 2375 703 2375 916 
Q 2375 1106 2209 1216 
Q 2094 1291 1634 1406 
Q 1016 1563 777 1677 
Q 538 1791 414 1992 
Q 291 2194 291 2438 
Q 291 2659 392 2848 
Q 494 3038 669 3163 
Q 800 3259 1026 3326 
Q 1253 3394 1513 3394 
Q 1903 3394 2198 3281 
Q 2494 3169 2634 2976 
Q 2775 2784 2828 2463 
L 2278 2388 
Q 2241 2644 2061 2787 
Q 1881 2931 1553 2931 
Q 1166 2931 1000 2803 
Q 834 2675 834 2503 
Q 834 2394 903 2306 
Q 972 2216 1119 2156 
Q 1203 2125 1616 2013 
Q 2213 1853 2448 1751 
Q 2684 1650 2818 1456 
Q 2953 1263 2953 975 
Q 2953 694 2789 445 
Q 2625 197 2315 61 
Q 2006 -75 1616 -75 
Q 969 -75 630 194 
Q 291 463 197 991 
z
" transform="scale(0.015625)"/>
       <path id="ArialMT-65" d="M 2694 1069 
L 3275 997 
Q 3138 488 2766 206 
Q 2394 -75 1816 -75 
Q 1088 -75 661 373 
Q 234 822 234 1631 
Q 234 2469 665 2931 
Q 1097 3394 1784 3394 
Q 2450 3394 2872 2941 
Q 3294 2488 3294 1666 
Q 3294 1616 3291 1516 
L 816 1516 
Q 847 969 1125 678 
Q 1403 388 1819 388 
Q 2128 388 2347 550 
Q 2566 713 2694 1069 
z
M 847 1978 
L 2700 1978 
Q 2663 2397 2488 2606 
Q 2219 2931 1791 2931 
Q 1403 2931 1139 2672 
Q 875 2413 847 1978 
z
" transform="scale(0.015625)"/>
       <path id="ArialMT-20" transform="scale(0.015625)"/>
       <path id="ArialMT-50" d="M 494 0 
L 494 4581 
L 2222 4581 
Q 2678 4581 2919 4538 
Q 3256 4481 3484 4323 
Q 3713 4166 3852 3881 
Q 3991 3597 3991 3256 
Q 3991 2672 3619 2267 
Q 3247 1863 2275 1863 
L 1100 1863 
L 1100 0 
L 494 0 
z
M 1100 2403 
L 2284 2403 
Q 2872 2403 3119 2622 
Q 3366 2841 3366 3238 
Q 3366 3525 3220 3729 
Q 3075 3934 2838 4000 
Q 2684 4041 2272 4041 
L 1100 4041 
L 1100 2403 
z
" transform="scale(0.015625)"/>
       <path id="ArialMT-6f" d="M 213 1659 
Q 213 2581 725 3025 
Q 1153 3394 1769 3394 
Q 2453 3394 2887 2945 
Q 3322 2497 3322 1706 
Q 3322 1066 3130 698 
Q 2938 331 2570 128 
Q 2203 -75 1769 -75 
Q 1072 -75 642 372 
Q 213 819 213 1659 
z
M 791 1659 
Q 791 1022 1069 705 
Q 1347 388 1769 388 
Q 2188 388 2466 706 
Q 2744 1025 2744 1678 
Q 2744 2294 2464 2611 
Q 2184 2928 1769 2928 
Q 1347 2928 1069 2612 
Q 791 2297 791 1659 
z
" transform="scale(0.015625)"/>
       <path id="ArialMT-69" d="M 425 3934 
L 425 4581 
L 988 4581 
L 988 3934 
L 425 3934 
z
M 425 0 
L 425 3319 
L 988 3319 
L 988 0 
L 425 0 
z
" transform="scale(0.015625)"/>
       <path id="ArialMT-74" d="M 1650 503 
L 1731 6 
Q 1494 -44 1306 -44 
Q 1000 -44 831 53 
Q 663 150 594 308 
Q 525 466 525 972 
L 525 2881 
L 113 2881 
L 113 3319 
L 525 3319 
L 525 4141 
L 1084 4478 
L 1084 3319 
L 1650 3319 
L 1650 2881 
L 1084 2881 
L 1084 941 
Q 1084 700 1114 631 
Q 1144 563 1211 522 
Q 1278 481 1403 481 
Q 1497 481 1650 503 
z
" transform="scale(0.015625)"/>
       <path id="ArialMT-76" d="M 1344 0 
L 81 3319 
L 675 3319 
L 1388 1331 
Q 1503 1009 1600 663 
Q 1675 925 1809 1294 
L 2547 3319 
L 3125 3319 
L 1869 0 
L 1344 0 
z
" transform="scale(0.015625)"/>
       <path id="ArialMT-52" d="M 503 0 
L 503 4581 
L 2534 4581 
Q 3147 4581 3465 4457 
Q 3784 4334 3975 4021 
Q 4166 3709 4166 3331 
Q 4166 2844 3850 2509 
Q 3534 2175 2875 2084 
Q 3116 1969 3241 1856 
Q 3506 1613 3744 1247 
L 4541 0 
L 3778 0 
L 3172 953 
Q 2906 1366 2734 1584 
Q 2563 1803 2427 1890 
Q 2291 1978 2150 2013 
Q 2047 2034 1813 2034 
L 1109 2034 
L 1109 0 
L 503 0 
z
M 1109 2559 
L 2413 2559 
Q 2828 2559 3062 2645 
Q 3297 2731 3419 2920 
Q 3541 3109 3541 3331 
Q 3541 3656 3305 3865 
Q 3069 4075 2559 4075 
L 1109 4075 
L 1109 2559 
z
" transform="scale(0.015625)"/>
      </defs>
      <use xlink:href="#ArialMT-46"/>
      <use xlink:href="#ArialMT-61" x="61.083984"/>
      <use xlink:href="#ArialMT-6c" x="116.699219"/>
      <use xlink:href="#ArialMT-73" x="138.916016"/>
      <use xlink:href="#ArialMT-65" x="188.916016"/>
      <use xlink:href="#ArialMT-20" x="244.53125"/>
      <use xlink:href="#ArialMT-50" x="272.314453"/>
      <use xlink:href="#ArialMT-6f" x="339.013672"/>
      <use xlink:href="#ArialMT-73" x="394.628906"/>
      <use xlink:href="#ArialMT-69" x="444.628906"/>
      <use xlink:href="#ArialMT-74" x="466.845703"/>
      <use xlink:href="#ArialMT-69" x="494.628906"/>
      <use xlink:href="#ArialMT-76" x="516.845703"/>
      <use xlink:href="#ArialMT-65" x="566.845703"/>
      <use xlink:href="#ArialMT-20" x="622.460938"/>
      <use xlink:href="#ArialMT-52" x="650.244141"/>
      <use xlink:href="#ArialMT-61" x="722.460938"/>
      <use xlink:href="#ArialMT-74" x="778.076172"/>
      <use xlink:href="#ArialMT-65" x="805.859375"/>
     </g>
    </g>
   </g>
   <g id="matplotlib.axis_2">
    <g id="ytick_1">
     <g id="line2d_13">
      <path d="M 37.745313 229.612235 
L 283.265312 229.612235 
" clip-path="url(#p18663571d4)" style="fill: none; stroke: #ffffff; stroke-width: 0.8; stroke-linecap: round"/>
     </g>
     <g id="line2d_14"/>
     <g id="text_8">
      <!-- 0.4 -->
      <g style="fill: #262626" transform="translate(20.345313 233.191142) scale(0.1 -0.1)">
       <use xlink:href="#ArialMT-30"/>
       <use xlink:href="#ArialMT-2e" x="55.615234"/>
       <use xlink:href="#ArialMT-34" x="83.398438"/>
      </g>
     </g>
    </g>
    <g id="ytick_2">
     <g id="line2d_15">
      <path d="M 37.745313 193.739294 
L 283.265312 193.739294 
" clip-path="url(#p18663571d4)" style="fill: none; stroke: #ffffff; stroke-width: 0.8; stroke-linecap: round"/>
     </g>
     <g id="line2d_16"/>
     <g id="text_9">
      <!-- 0.5 -->
      <g style="fill: #262626" transform="translate(20.345313 197.3182) scale(0.1 -0.1)">
       <defs>
        <path id="ArialMT-35" d="M 266 1200 
L 856 1250 
Q 922 819 1161 601 
Q 1400 384 1738 384 
Q 2144 384 2425 690 
Q 2706 997 2706 1503 
Q 2706 1984 2436 2262 
Q 2166 2541 1728 2541 
Q 1456 2541 1237 2417 
Q 1019 2294 894 2097 
L 366 2166 
L 809 4519 
L 3088 4519 
L 3088 3981 
L 1259 3981 
L 1013 2750 
Q 1425 3038 1878 3038 
Q 2478 3038 2890 2622 
Q 3303 2206 3303 1553 
Q 3303 931 2941 478 
Q 2500 -78 1738 -78 
Q 1113 -78 717 272 
Q 322 622 266 1200 
z
" transform="scale(0.015625)"/>
       </defs>
       <use xlink:href="#ArialMT-30"/>
       <use xlink:href="#ArialMT-2e" x="55.615234"/>
       <use xlink:href="#ArialMT-35" x="83.398438"/>
      </g>
     </g>
    </g>
    <g id="ytick_3">
     <g id="line2d_17">
      <path d="M 37.745313 157.866353 
L 283.265312 157.866353 
" clip-path="url(#p18663571d4)" style="fill: none; stroke: #ffffff; stroke-width: 0.8; stroke-linecap: round"/>
     </g>
     <g id="line2d_18"/>
     <g id="text_10">
      <!-- 0.6 -->
      <g style="fill: #262626" transform="translate(20.345313 161.445259) scale(0.1 -0.1)">
       <use xlink:href="#ArialMT-30"/>
       <use xlink:href="#ArialMT-2e" x="55.615234"/>
       <use xlink:href="#ArialMT-36" x="83.398438"/>
      </g>
     </g>
    </g>
    <g id="ytick_4">
     <g id="line2d_19">
      <path d="M 37.745313 121.993412 
L 283.265312 121.993412 
" clip-path="url(#p18663571d4)" style="fill: none; stroke: #ffffff; stroke-width: 0.8; stroke-linecap: round"/>
     </g>
     <g id="line2d_20"/>
     <g id="text_11">
      <!-- 0.7 -->
      <g style="fill: #262626" transform="translate(20.345313 125.572318) scale(0.1 -0.1)">
       <defs>
        <path id="ArialMT-37" d="M 303 3981 
L 303 4522 
L 3269 4522 
L 3269 4084 
Q 2831 3619 2401 2847 
Q 1972 2075 1738 1259 
Q 1569 684 1522 0 
L 944 0 
Q 953 541 1156 1306 
Q 1359 2072 1739 2783 
Q 2119 3494 2547 3981 
L 303 3981 
z
" transform="scale(0.015625)"/>
       </defs>
       <use xlink:href="#ArialMT-30"/>
       <use xlink:href="#ArialMT-2e" x="55.615234"/>
       <use xlink:href="#ArialMT-37" x="83.398438"/>
      </g>
     </g>
    </g>
    <g id="ytick_5">
     <g id="line2d_21">
      <path d="M 37.745313 86.120471 
L 283.265312 86.120471 
" clip-path="url(#p18663571d4)" style="fill: none; stroke: #ffffff; stroke-width: 0.8; stroke-linecap: round"/>
     </g>
     <g id="line2d_22"/>
     <g id="text_12">
      <!-- 0.8 -->
      <g style="fill: #262626" transform="translate(20.345313 89.699377) scale(0.1 -0.1)">
       <use xlink:href="#ArialMT-30"/>
       <use xlink:href="#ArialMT-2e" x="55.615234"/>
       <use xlink:href="#ArialMT-38" x="83.398438"/>
      </g>
     </g>
    </g>
    <g id="ytick_6">
     <g id="line2d_23">
      <path d="M 37.745313 50.247529 
L 283.265312 50.247529 
" clip-path="url(#p18663571d4)" style="fill: none; stroke: #ffffff; stroke-width: 0.8; stroke-linecap: round"/>
     </g>
     <g id="line2d_24"/>
     <g id="text_13">
      <!-- 0.9 -->
      <g style="fill: #262626" transform="translate(20.345313 53.826436) scale(0.1 -0.1)">
       <defs>
        <path id="ArialMT-39" d="M 350 1059 
L 891 1109 
Q 959 728 1153 556 
Q 1347 384 1650 384 
Q 1909 384 2104 503 
Q 2300 622 2425 820 
Q 2550 1019 2634 1356 
Q 2719 1694 2719 2044 
Q 2719 2081 2716 2156 
Q 2547 1888 2255 1720 
Q 1963 1553 1622 1553 
Q 1053 1553 659 1965 
Q 266 2378 266 3053 
Q 266 3750 677 4175 
Q 1088 4600 1706 4600 
Q 2153 4600 2523 4359 
Q 2894 4119 3086 3673 
Q 3278 3228 3278 2384 
Q 3278 1506 3087 986 
Q 2897 466 2520 194 
Q 2144 -78 1638 -78 
Q 1100 -78 759 220 
Q 419 519 350 1059 
z
M 2653 3081 
Q 2653 3566 2395 3850 
Q 2138 4134 1775 4134 
Q 1400 4134 1122 3828 
Q 844 3522 844 3034 
Q 844 2597 1108 2323 
Q 1372 2050 1759 2050 
Q 2150 2050 2401 2323 
Q 2653 2597 2653 3081 
z
" transform="scale(0.015625)"/>
       </defs>
       <use xlink:href="#ArialMT-30"/>
       <use xlink:href="#ArialMT-2e" x="55.615234"/>
       <use xlink:href="#ArialMT-39" x="83.398438"/>
      </g>
     </g>
    </g>
    <g id="ytick_7">
     <g id="line2d_25">
      <path d="M 37.745313 14.374588 
L 283.265312 14.374588 
" clip-path="url(#p18663571d4)" style="fill: none; stroke: #ffffff; stroke-width: 0.8; stroke-linecap: round"/>
     </g>
     <g id="line2d_26"/>
     <g id="text_14">
      <!-- 1.0 -->
      <g style="fill: #262626" transform="translate(20.345313 17.953494) scale(0.1 -0.1)">
       <use xlink:href="#ArialMT-31"/>
       <use xlink:href="#ArialMT-2e" x="55.615234"/>
       <use xlink:href="#ArialMT-30" x="83.398438"/>
      </g>
     </g>
    </g>
    <g id="text_15">
     <!-- True Positive Rate -->
     <g style="fill: #262626" transform="translate(14.357813 170.106281) rotate(-90) scale(0.1 -0.1)">
      <defs>
       <path id="ArialMT-54" d="M 1659 0 
L 1659 4041 
L 150 4041 
L 150 4581 
L 3781 4581 
L 3781 4041 
L 2266 4041 
L 2266 0 
L 1659 0 
z
" transform="scale(0.015625)"/>
       <path id="ArialMT-72" d="M 416 0 
L 416 3319 
L 922 3319 
L 922 2816 
Q 1116 3169 1280 3281 
Q 1444 3394 1641 3394 
Q 1925 3394 2219 3213 
L 2025 2691 
Q 1819 2813 1613 2813 
Q 1428 2813 1281 2702 
Q 1134 2591 1072 2394 
Q 978 2094 978 1738 
L 978 0 
L 416 0 
z
" transform="scale(0.015625)"/>
       <path id="ArialMT-75" d="M 2597 0 
L 2597 488 
Q 2209 -75 1544 -75 
Q 1250 -75 995 37 
Q 741 150 617 320 
Q 494 491 444 738 
Q 409 903 409 1263 
L 409 3319 
L 972 3319 
L 972 1478 
Q 972 1038 1006 884 
Q 1059 663 1231 536 
Q 1403 409 1656 409 
Q 1909 409 2131 539 
Q 2353 669 2445 892 
Q 2538 1116 2538 1541 
L 2538 3319 
L 3100 3319 
L 3100 0 
L 2597 0 
z
" transform="scale(0.015625)"/>
      </defs>
      <use xlink:href="#ArialMT-54"/>
      <use xlink:href="#ArialMT-72" x="57.333984"/>
      <use xlink:href="#ArialMT-75" x="90.634766"/>
      <use xlink:href="#ArialMT-65" x="146.25"/>
      <use xlink:href="#ArialMT-20" x="201.865234"/>
      <use xlink:href="#ArialMT-50" x="229.648438"/>
      <use xlink:href="#ArialMT-6f" x="296.347656"/>
      <use xlink:href="#ArialMT-73" x="351.962891"/>
      <use xlink:href="#ArialMT-69" x="401.962891"/>
      <use xlink:href="#ArialMT-74" x="424.179688"/>
      <use xlink:href="#ArialMT-69" x="451.962891"/>
      <use xlink:href="#ArialMT-76" x="474.179688"/>
      <use xlink:href="#ArialMT-65" x="524.179688"/>
      <use xlink:href="#ArialMT-20" x="579.794922"/>
      <use xlink:href="#ArialMT-52" x="607.578125"/>
      <use xlink:href="#ArialMT-61" x="679.794922"/>
      <use xlink:href="#ArialMT-74" x="735.410156"/>
      <use xlink:href="#ArialMT-65" x="763.193359"/>
     </g>
    </g>
   </g>
   <g id="line2d_27">
    <path d="M 272.105312 193.739294 
L 272.105312 191.213031 
L 272.105312 188.614588 
L 272.105312 185.940829 
L 272.105312 183.188429 
L 272.105312 180.353868 
L 272.105312 177.433412 
L 272.105312 174.423095 
L 272.105312 171.318706 
L 272.105312 168.115765 
L 272.105312 164.809503 
L 272.105312 161.394839 
L 272.105312 157.866353 
L 272.105312 154.218257 
L 272.105312 150.444365 
L 272.105312 146.538056 
L 272.105312 142.492235 
L 265.905313 144.821647 
L 265.905313 140.594196 
L 265.905313 136.207219 
L 259.705312 138.550154 
L 253.505313 140.984969 
L 253.505313 136.342588 
L 247.305312 138.831731 
L 241.105312 141.424588 
L 241.105312 136.495239 
L 234.905313 139.150036 
L 234.905313 133.951059 
L 234.905313 128.515765 
L 234.905313 122.827666 
L 234.905313 116.868706 
L 228.705312 119.368562 
L 228.705312 113.025176 
L 228.705312 106.356489 
L 228.705312 99.336817 
L 222.505313 101.633094 
L 222.505313 94.092235 
L 222.505313 86.120471 
L 222.505313 77.679779 
L 216.305312 79.598118 
L 216.305312 70.426059 
L 216.305312 60.662254 
L 216.305312 50.247529 
L 210.105312 51.484527 
L 203.905313 52.809882 
L 197.705312 54.233412 
L 191.505313 55.766443 
L 185.305313 57.422118 
L 185.305313 44.268706 
L 179.105312 45.56845 
L 172.905313 46.986353 
L 172.905313 31.456941 
L 172.905313 14.374588 
L 166.705312 14.374588 
L 160.505313 14.374588 
L 154.305313 14.374588 
L 148.105312 14.374588 
L 141.905313 14.374588 
L 135.705312 14.374588 
L 129.505313 14.374588 
L 123.305312 14.374588 
L 117.105313 14.374588 
L 110.905313 14.374588 
L 104.705313 14.374588 
L 98.505313 14.374588 
L 92.305313 14.374588 
L 86.105312 14.374588 
L 79.905313 14.374588 
L 73.705313 14.374588 
L 67.505313 14.374588 
L 61.305313 14.374588 
L 55.105313 14.374588 
L 48.905313 14.374588 
" clip-path="url(#p18663571d4)" style="fill: none; stroke: #03d0c7; stroke-width: 1.5; stroke-linecap: round"/>
   </g>
   <g id="line2d_28">
    <path d="M 272.105312 193.739294 
L 265.905313 196.265558 
L 265.905313 193.739294 
L 259.705312 196.338783 
L 253.505313 199.014727 
L 247.305312 201.77055 
L 247.305312 199.174588 
L 247.305312 196.498751 
L 247.305312 193.739294 
L 247.305312 190.892235 
L 247.305312 187.953336 
L 247.305312 184.918079 
L 247.305312 181.781647 
L 247.305312 178.538895 
L 247.305312 175.184325 
L 247.305312 171.71205 
L 247.305312 168.115765 
L 247.305312 164.388706 
L 241.105312 167.166745 
L 241.105312 163.281137 
L 241.105312 159.246081 
L 241.105312 155.052789 
L 241.105312 150.691765 
L 234.905313 153.473748 
L 234.905313 148.898118 
L 234.905313 144.12778 
L 234.905313 139.150036 
L 234.905313 133.951059 
L 234.905313 128.515765 
L 234.905313 122.827666 
L 228.705312 125.409882 
L 228.705312 119.368562 
L 222.505313 121.993412 
L 216.305312 124.752869 
L 216.305312 118.217313 
L 210.105312 121.023873 
L 210.105312 114.021647 
L 203.905313 116.868706 
L 203.905313 109.332374 
L 197.705312 112.209882 
L 191.505313 115.267235 
L 185.305313 118.521837 
L 179.105312 121.993412 
L 179.105312 113.334426 
L 179.105312 104.056941 
L 172.905313 107.37851 
L 166.705312 110.955584 
L 166.705312 100.469647 
L 160.505313 104.056941 
L 154.305313 107.956174 
L 154.305313 95.904 
L 154.305313 82.704 
L 154.305313 68.184 
L 154.305313 52.135579 
L 154.305313 34.304 
L 148.105312 35.476318 
L 141.905313 36.795176 
L 135.705312 38.289882 
L 129.505313 39.998118 
L 123.305312 41.969158 
L 117.105313 44.268706 
L 117.105313 14.374588 
L 110.905313 14.374588 
L 104.705313 14.374588 
L 98.505313 14.374588 
L 92.305313 14.374588 
L 86.105312 14.374588 
L 79.905313 14.374588 
L 73.705313 14.374588 
L 67.505313 14.374588 
L 61.305313 14.374588 
L 55.105313 14.374588 
L 48.905313 14.374588 
" clip-path="url(#p18663571d4)" style="fill: none; stroke: #f9cc6c; stroke-width: 1.5; stroke-linecap: round"/>
   </g>
   <g id="line2d_29">
    <path d="M 272.105312 193.739294 
L 272.105312 191.213031 
L 272.105312 188.614588 
L 265.905313 191.139806 
L 265.905313 188.463862 
L 265.905313 185.708039 
L 259.705312 188.304 
L 259.705312 185.460923 
L 259.705312 182.529 
L 259.705312 179.504 
L 253.505313 182.167378 
L 253.505313 179.037269 
L 253.505313 175.802824 
L 253.505313 172.458736 
L 247.305312 175.184325 
L 247.305312 171.71205 
L 247.305312 168.115765 
L 247.305312 164.388706 
L 247.305312 160.523608 
L 247.305312 156.512657 
L 247.305312 152.347439 
L 247.305312 148.018879 
L 247.305312 143.517176 
L 247.305312 138.831731 
L 247.305312 133.951059 
L 241.105312 136.495239 
L 241.105312 131.35157 
L 241.105312 125.979294 
L 241.105312 120.362824 
L 241.105312 114.485122 
L 241.105312 108.327529 
L 241.105312 101.869567 
L 241.105312 95.088706 
L 234.905313 97.158299 
L 234.905313 89.89657 
L 228.705312 91.937704 
L 222.505313 94.092235 
L 222.505313 86.120471 
L 222.505313 77.679779 
L 216.305312 79.598118 
L 210.105312 81.636353 
L 210.105312 72.234171 
L 203.905313 74.162824 
L 203.905313 63.854507 
L 197.705312 65.621647 
L 197.705312 54.233412 
L 191.505313 55.766443 
L 191.505313 43.072941 
L 185.305313 44.268706 
L 179.105312 45.56845 
L 172.905313 46.986353 
L 166.705312 48.539294 
L 160.505313 50.247529 
L 154.305313 52.135579 
L 148.105312 54.233412 
L 141.905313 56.578048 
L 135.705312 59.215765 
L 129.505313 62.205176 
L 123.305312 65.621647 
L 117.105313 69.563729 
L 117.105313 44.268706 
L 110.905313 46.986353 
L 104.705313 50.247529 
L 104.705313 14.374588 
L 98.505313 14.374588 
L 92.305313 14.374588 
L 86.105312 14.374588 
L 79.905313 14.374588 
L 73.705313 14.374588 
L 67.505313 14.374588 
L 61.305313 14.374588 
L 55.105313 14.374588 
L 48.905313 14.374588 
" clip-path="url(#p18663571d4)" style="fill: none; stroke: #e00b5a; stroke-width: 1.5; stroke-linecap: round"/>
   </g>
   <g id="line2d_30">
    <path d="M 272.105312 193.739294 
L 272.105312 191.213031 
L 272.105312 188.614588 
L 272.105312 185.940829 
L 272.105312 183.188429 
L 272.105312 180.353868 
L 272.105312 177.433412 
L 272.105312 174.423095 
L 272.105312 171.318706 
L 272.105312 168.115765 
L 272.105312 164.809503 
L 272.105312 161.394839 
L 272.105312 157.866353 
L 272.105312 154.218257 
L 272.105312 150.444365 
L 272.105312 146.538056 
L 265.905313 148.898118 
L 259.705312 151.344 
L 253.505313 153.880471 
L 253.505313 149.744178 
L 253.505313 145.448796 
L 253.505313 140.984969 
L 253.505313 136.342588 
L 253.505313 131.510723 
L 247.305312 133.951059 
L 241.105312 136.495239 
L 241.105312 131.35157 
L 234.905313 133.951059 
L 228.705312 136.668706 
L 222.505313 139.512755 
L 222.505313 133.951059 
L 222.505313 128.11806 
L 222.505313 121.993412 
L 222.505313 115.554679 
L 222.505313 108.777065 
L 222.505313 101.633094 
L 222.505313 94.092235 
L 216.305312 96.369882 
L 216.305312 88.230644 
L 210.105312 90.468706 
L 210.105312 81.636353 
L 210.105312 72.234171 
L 203.905313 74.162824 
L 203.905313 63.854507 
L 203.905313 52.809882 
L 203.905313 40.947137 
L 203.905313 28.171873 
L 197.705312 28.723765 
L 191.505313 29.321647 
L 185.305313 29.971519 
L 179.105312 30.680471 
L 172.905313 31.456941 
L 166.705312 32.311059 
L 160.505313 33.255084 
L 154.305313 34.304 
L 148.105312 35.476318 
L 141.905313 36.795176 
L 135.705312 38.289882 
L 129.505313 39.998118 
L 129.505313 14.374588 
L 123.305312 14.374588 
L 117.105313 14.374588 
L 110.905313 14.374588 
L 104.705313 14.374588 
L 98.505313 14.374588 
L 92.305313 14.374588 
L 86.105312 14.374588 
L 79.905313 14.374588 
L 73.705313 14.374588 
L 67.505313 14.374588 
L 61.305313 14.374588 
L 55.105313 14.374588 
L 48.905313 14.374588 
" clip-path="url(#p18663571d4)" style="fill: none; stroke: #b614bb; stroke-width: 1.5; stroke-linecap: round"/>
   </g>
   <g id="line2d_31">
    <path d="M 272.105312 193.739294 
L 272.105312 191.213031 
L 272.105312 188.614588 
L 272.105312 185.940829 
L 272.105312 183.188429 
L 272.105312 180.353868 
L 265.905313 182.868706 
L 265.905313 179.942009 
L 259.705312 182.529 
L 259.705312 179.504 
L 259.705312 176.381419 
L 253.505313 179.037269 
L 247.305312 181.781647 
L 241.105312 184.619055 
L 241.105312 181.369314 
L 241.105312 178.005548 
L 241.105312 174.521647 
L 241.105312 170.911059 
L 241.105312 167.166745 
L 241.105312 163.281137 
L 234.905313 166.144724 
L 228.705312 169.120609 
L 222.505313 172.215529 
L 222.505313 168.115765 
L 222.505313 163.845176 
L 222.505313 159.392861 
L 222.505313 154.746967 
L 222.505313 149.894588 
L 222.505313 144.821647 
L 222.505313 139.512755 
L 222.505313 133.951059 
L 222.505313 128.11806 
L 222.505313 121.993412 
L 222.505313 115.554679 
L 216.305312 118.217313 
L 216.305312 111.328483 
L 210.105312 114.021647 
L 210.105312 106.619294 
L 203.905313 109.332374 
L 197.705312 112.209882 
L 191.505313 115.267235 
L 185.305313 118.521837 
L 185.305313 110.035765 
L 185.305313 100.964446 
L 179.105312 104.056941 
L 179.105312 94.092235 
L 179.105312 83.361014 
L 172.905313 86.120471 
L 166.705312 89.109882 
L 160.505313 92.359243 
L 160.505313 79.598118 
L 154.305313 82.704 
L 148.105312 86.120471 
L 141.905313 89.89657 
L 135.705312 94.092235 
L 135.705312 77.679779 
L 129.505313 81.636353 
L 123.305312 86.120471 
L 123.305312 65.621647 
L 123.305312 41.969158 
L 123.305312 14.374588 
L 117.105313 14.374588 
L 110.905313 14.374588 
L 104.705313 14.374588 
L 98.505313 14.374588 
L 92.305313 14.374588 
L 86.105312 14.374588 
L 79.905313 14.374588 
L 73.705313 14.374588 
L 67.505313 14.374588 
L 61.305313 14.374588 
L 55.105313 14.374588 
L 48.905313 14.374588 
" clip-path="url(#p18663571d4)" style="fill: none; stroke-dasharray: 1.5,2.475; stroke-dashoffset: 0; stroke: #6d5aef; stroke-width: 1.5"/>
   </g>
   <g id="line2d_32">
    <path d="M 272.105312 193.739294 
L 272.105312 191.213031 
L 272.105312 188.614588 
L 272.105312 185.940829 
L 272.105312 183.188429 
L 272.105312 180.353868 
L 272.105312 177.433412 
L 272.105312 174.423095 
L 272.105312 171.318706 
L 272.105312 168.115765 
L 272.105312 164.809503 
L 272.105312 161.394839 
L 265.905313 163.845176 
L 259.705312 166.378576 
L 253.505313 168.999335 
L 253.505313 165.418551 
L 247.305312 168.115765 
L 247.305312 164.388706 
L 247.305312 160.523608 
L 247.305312 156.512657 
L 241.105312 159.246081 
L 241.105312 155.052789 
L 241.105312 150.691765 
L 241.105312 146.152739 
L 241.105312 141.424588 
L 234.905313 144.12778 
L 234.905313 139.150036 
L 234.905313 133.951059 
L 234.905313 128.515765 
L 234.905313 122.827666 
L 234.905313 116.868706 
L 234.905313 110.619065 
L 228.705312 113.025176 
L 228.705312 106.356489 
L 228.705312 99.336817 
L 228.705312 91.937704 
L 228.705312 84.127529 
L 228.705312 75.871059 
L 228.705312 67.128913 
L 228.705312 57.856941 
L 228.705312 48.005471 
L 228.705312 37.518421 
L 228.705312 26.332235 
L 222.505313 26.744568 
L 216.305312 27.186353 
L 210.105312 27.660863 
L 203.905313 28.171873 
L 197.705312 28.723765 
L 191.505313 29.321647 
L 185.305313 29.971519 
L 179.105312 30.680471 
L 172.905313 31.456941 
L 166.705312 32.311059 
L 160.505313 33.255084 
L 154.305313 34.304 
L 148.105312 35.476318 
L 141.905313 36.795176 
L 135.705312 38.289882 
L 129.505313 39.998118 
L 123.305312 41.969158 
L 117.105313 44.268706 
L 110.905313 46.986353 
L 104.705313 50.247529 
L 98.505313 54.233412 
L 92.305313 59.215765 
L 86.105312 65.621647 
L 86.105312 14.374588 
L 79.905313 14.374588 
L 73.705313 14.374588 
L 67.505313 14.374588 
L 61.305313 14.374588 
L 55.105313 14.374588 
L 48.905313 14.374588 
" clip-path="url(#p18663571d4)" style="fill: none; stroke-dasharray: 1.5,2.475; stroke-dashoffset: 0; stroke: #6fabf2; stroke-width: 1.5"/>
   </g>
   <g id="line2d_33">
    <path d="M 272.105312 193.739294 
L 272.105312 191.213031 
L 272.105312 188.614588 
L 272.105312 185.940829 
L 272.105312 183.188429 
L 272.105312 180.353868 
L 272.105312 177.433412 
L 272.105312 174.423095 
L 272.105312 171.318706 
L 265.905313 173.809882 
L 265.905313 170.595461 
L 265.905313 167.275649 
L 265.905313 163.845176 
L 259.705312 166.378576 
L 259.705312 162.814345 
L 253.505313 165.418551 
L 253.505313 161.709882 
L 253.505313 157.866353 
L 247.305312 160.523608 
L 241.105312 163.281137 
L 241.105312 159.246081 
L 241.105312 155.052789 
L 241.105312 150.691765 
L 241.105312 146.152739 
L 234.905313 148.898118 
L 228.705312 151.76032 
L 228.705312 146.948501 
L 228.705312 141.922824 
L 228.705312 136.668706 
L 228.705312 131.170211 
L 228.705312 125.409882 
L 222.505313 128.11806 
L 222.505313 121.993412 
L 222.505313 115.554679 
L 222.505313 108.777065 
L 222.505313 101.633094 
L 222.505313 94.092235 
L 222.505313 86.120471 
L 222.505313 77.679779 
L 222.505313 68.727529 
L 222.505313 59.215765 
L 216.305312 60.662254 
L 210.105312 62.205176 
L 203.905313 63.854507 
L 203.905313 52.809882 
L 197.705312 54.233412 
L 191.505313 55.766443 
L 185.305313 57.422118 
L 179.105312 59.215765 
L 172.905313 61.165381 
L 166.705312 63.292235 
L 160.505313 65.621647 
L 154.305313 68.184 
L 148.105312 71.016074 
L 141.905313 74.162824 
L 135.705312 77.679779 
L 129.505313 81.636353 
L 129.505313 62.205176 
L 123.305312 65.621647 
L 117.105313 69.563729 
L 117.105313 44.268706 
L 110.905313 46.986353 
L 104.705313 50.247529 
L 98.505313 54.233412 
L 92.305313 59.215765 
L 86.105312 65.621647 
L 79.905313 74.162824 
L 73.705313 86.120471 
L 73.705313 14.374588 
L 67.505313 14.374588 
L 61.305313 14.374588 
L 55.105313 14.374588 
L 48.905313 14.374588 
" clip-path="url(#p18663571d4)" style="fill: none; stroke-dasharray: 1.5,2.475; stroke-dashoffset: 0; stroke: #ffc24b; stroke-width: 1.5"/>
   </g>
   <g id="line2d_34">
    <path d="M 272.105312 193.739294 
L 272.105312 191.213031 
L 272.105312 188.614588 
L 272.105312 185.940829 
L 272.105312 183.188429 
L 272.105312 180.353868 
L 272.105312 177.433412 
L 272.105312 174.423095 
L 272.105312 171.318706 
L 272.105312 168.115765 
L 272.105312 164.809503 
L 272.105312 161.394839 
L 272.105312 157.866353 
L 272.105312 154.218257 
L 265.905313 156.629355 
L 259.705312 159.125053 
L 253.505313 161.709882 
L 253.505313 157.866353 
L 253.505313 153.880471 
L 247.305312 156.512657 
L 247.305312 152.347439 
L 247.305312 148.018879 
L 241.105312 150.691765 
L 241.105312 146.152739 
L 241.105312 141.424588 
L 234.905313 144.12778 
L 234.905313 139.150036 
L 234.905313 133.951059 
L 228.705312 136.668706 
L 222.505313 139.512755 
L 222.505313 133.951059 
L 216.305312 136.867558 
L 216.305312 130.961647 
L 216.305312 124.752869 
L 216.305312 118.217313 
L 216.305312 111.328483 
L 216.305312 104.056941 
L 216.305312 96.369882 
L 216.305312 88.230644 
L 210.105312 90.468706 
L 203.905313 92.846647 
L 197.705312 95.378004 
L 191.505313 98.078118 
L 191.505313 88.594467 
L 191.505313 78.433412 
L 185.305313 80.805961 
L 185.305313 69.563729 
L 179.105312 71.771294 
L 172.905313 74.162824 
L 166.705312 76.762312 
L 160.505313 79.598118 
L 160.505313 65.621647 
L 154.305313 68.184 
L 148.105312 71.016074 
L 141.905313 74.162824 
L 135.705312 77.679779 
L 129.505313 81.636353 
L 123.305312 86.120471 
L 117.105313 91.245176 
L 117.105313 69.563729 
L 110.905313 74.162824 
L 110.905313 46.986353 
L 104.705313 50.247529 
L 104.705313 14.374588 
L 98.505313 14.374588 
L 92.305313 14.374588 
L 86.105312 14.374588 
L 79.905313 14.374588 
L 73.705313 14.374588 
L 67.505313 14.374588 
L 61.305313 14.374588 
L 55.105313 14.374588 
L 48.905313 14.374588 
" clip-path="url(#p18663571d4)" style="fill: none; stroke-dasharray: 1.5,2.475; stroke-dashoffset: 0; stroke: #feb3ae; stroke-width: 1.5"/>
   </g>
   <g id="line2d_35">
    <path d="M 272.105312 137.442343 
L 272.105312 119.883239 
L 270.865312 120.298627 
L 270.865312 116.253741 
L 269.625313 116.662894 
L 269.625313 90.564906 
L 268.385312 90.903529 
L 268.385312 89.643706 
L 264.665313 90.665459 
L 264.665313 89.381647 
L 263.425313 89.724145 
L 263.425313 73.296327 
L 260.945312 73.871174 
L 260.945312 63.292235 
L 258.465312 63.791395 
L 258.465312 60.602605 
L 257.225312 60.842129 
L 257.225312 59.215765 
L 255.985312 59.450535 
L 255.985312 56.131451 
L 254.745313 56.353562 
L 254.745313 36.668506 
L 253.505313 36.795176 
L 253.505313 34.873412 
L 252.265312 34.991221 
L 252.265312 33.036812 
L 243.585312 33.823773 
L 243.585312 31.767529 
L 242.345313 31.873584 
L 242.345313 27.660863 
L 224.985312 28.917672 
L 210.105312 30.200886 
L 196.465313 31.5936 
L 186.545312 32.770968 
L 186.545312 29.837063 
L 182.825312 30.247571 
L 182.825312 27.186353 
L 180.345313 27.419294 
L 180.345313 24.247875 
L 175.385312 24.624 
L 175.385312 21.273231 
L 162.985312 22.007129 
L 162.985312 18.231894 
L 145.625313 18.915467 
L 131.985313 19.650021 
L 120.825313 20.454748 
L 115.865313 20.896941 
L 115.865313 14.374588 
L 48.905313 14.374588 
L 48.905313 14.374588 
" clip-path="url(#p18663571d4)" style="fill: none; stroke-dasharray: 9.6,2.4,1.5,2.4; stroke-dashoffset: 0; stroke: #e54391; stroke-width: 1.5"/>
   </g>
   <g id="patch_3">
    <path d="M 37.745313 251.136 
L 37.745313 7.2 
" style="fill: none"/>
   </g>
   <g id="patch_4">
    <path d="M 283.265312 251.136 
L 283.265312 7.2 
" style="fill: none"/>
   </g>
   <g id="patch_5">
    <path d="M 37.745313 251.136 
L 283.265312 251.136 
" style="fill: none"/>
   </g>
   <g id="patch_6">
    <path d="M 37.745313 7.2 
L 283.265312 7.2 
" style="fill: none"/>
   </g>
   <g id="legend_1">
    <g id="line2d_36">
     <path d="M 44.945313 148.90475 
L 52.945313 148.90475 
L 60.945313 148.90475 
" style="fill: none; stroke: #03d0c7; stroke-width: 1.5; stroke-linecap: round"/>
    </g>
    <g id="text_16">
     <!-- Mutation(AUPRC=0.9034) -->
     <g style="fill: #262626" transform="translate(67.345313 151.70475) scale(0.08 -0.08)">
      <defs>
       <path id="TimesNewRomanPSMT-4d" d="M 2619 0 
L 981 3566 
L 981 734 
Q 981 344 1066 247 
Q 1181 116 1431 116 
L 1581 116 
L 1581 0 
L 106 0 
L 106 116 
L 256 116 
Q 525 116 638 278 
Q 706 378 706 734 
L 706 3503 
Q 706 3784 644 3909 
Q 600 4000 483 4061 
Q 366 4122 106 4122 
L 106 4238 
L 1306 4238 
L 2844 922 
L 4356 4238 
L 5556 4238 
L 5556 4122 
L 5409 4122 
Q 5138 4122 5025 3959 
Q 4956 3859 4956 3503 
L 4956 734 
Q 4956 344 5044 247 
Q 5159 116 5409 116 
L 5556 116 
L 5556 0 
L 3756 0 
L 3756 116 
L 3906 116 
Q 4178 116 4288 278 
Q 4356 378 4356 734 
L 4356 3566 
L 2722 0 
L 2619 0 
z
" transform="scale(0.015625)"/>
       <path id="TimesNewRomanPSMT-75" d="M 2709 2863 
L 2709 1128 
Q 2709 631 2732 520 
Q 2756 409 2807 365 
Q 2859 322 2928 322 
Q 3025 322 3147 375 
L 3191 266 
L 2334 -88 
L 2194 -88 
L 2194 519 
Q 1825 119 1631 15 
Q 1438 -88 1222 -88 
Q 981 -88 804 51 
Q 628 191 559 409 
Q 491 628 491 1028 
L 491 2306 
Q 491 2509 447 2587 
Q 403 2666 317 2708 
Q 231 2750 6 2747 
L 6 2863 
L 1009 2863 
L 1009 947 
Q 1009 547 1148 422 
Q 1288 297 1484 297 
Q 1619 297 1789 381 
Q 1959 466 2194 703 
L 2194 2325 
Q 2194 2569 2105 2655 
Q 2016 2741 1734 2747 
L 1734 2863 
L 2709 2863 
z
" transform="scale(0.015625)"/>
       <path id="TimesNewRomanPSMT-74" d="M 1031 3803 
L 1031 2863 
L 1700 2863 
L 1700 2644 
L 1031 2644 
L 1031 788 
Q 1031 509 1111 412 
Q 1191 316 1316 316 
Q 1419 316 1516 380 
Q 1613 444 1666 569 
L 1788 569 
Q 1678 263 1478 108 
Q 1278 -47 1066 -47 
Q 922 -47 784 33 
Q 647 113 581 261 
Q 516 409 516 719 
L 516 2644 
L 63 2644 
L 63 2747 
Q 234 2816 414 2980 
Q 594 3144 734 3369 
Q 806 3488 934 3803 
L 1031 3803 
z
" transform="scale(0.015625)"/>
       <path id="TimesNewRomanPSMT-61" d="M 1822 413 
Q 1381 72 1269 19 
Q 1100 -59 909 -59 
Q 613 -59 420 144 
Q 228 347 228 678 
Q 228 888 322 1041 
Q 450 1253 767 1440 
Q 1084 1628 1822 1897 
L 1822 2009 
Q 1822 2438 1686 2597 
Q 1550 2756 1291 2756 
Q 1094 2756 978 2650 
Q 859 2544 859 2406 
L 866 2225 
Q 866 2081 792 2003 
Q 719 1925 600 1925 
Q 484 1925 411 2006 
Q 338 2088 338 2228 
Q 338 2497 613 2722 
Q 888 2947 1384 2947 
Q 1766 2947 2009 2819 
Q 2194 2722 2281 2516 
Q 2338 2381 2338 1966 
L 2338 994 
Q 2338 584 2353 492 
Q 2369 400 2405 369 
Q 2441 338 2488 338 
Q 2538 338 2575 359 
Q 2641 400 2828 588 
L 2828 413 
Q 2478 -56 2159 -56 
Q 2006 -56 1915 50 
Q 1825 156 1822 413 
z
M 1822 616 
L 1822 1706 
Q 1350 1519 1213 1441 
Q 966 1303 859 1153 
Q 753 1003 753 825 
Q 753 600 887 451 
Q 1022 303 1197 303 
Q 1434 303 1822 616 
z
" transform="scale(0.015625)"/>
       <path id="TimesNewRomanPSMT-69" d="M 928 4444 
Q 1059 4444 1151 4351 
Q 1244 4259 1244 4128 
Q 1244 3997 1151 3903 
Q 1059 3809 928 3809 
Q 797 3809 703 3903 
Q 609 3997 609 4128 
Q 609 4259 701 4351 
Q 794 4444 928 4444 
z
M 1188 2947 
L 1188 647 
Q 1188 378 1227 289 
Q 1266 200 1342 156 
Q 1419 113 1622 113 
L 1622 0 
L 231 0 
L 231 113 
Q 441 113 512 153 
Q 584 194 626 287 
Q 669 381 669 647 
L 669 1750 
Q 669 2216 641 2353 
Q 619 2453 572 2492 
Q 525 2531 444 2531 
Q 356 2531 231 2484 
L 188 2597 
L 1050 2947 
L 1188 2947 
z
" transform="scale(0.015625)"/>
       <path id="TimesNewRomanPSMT-6f" d="M 1600 2947 
Q 2250 2947 2644 2453 
Q 2978 2031 2978 1484 
Q 2978 1100 2793 706 
Q 2609 313 2286 112 
Q 1963 -88 1566 -88 
Q 919 -88 538 428 
Q 216 863 216 1403 
Q 216 1797 411 2186 
Q 606 2575 925 2761 
Q 1244 2947 1600 2947 
z
M 1503 2744 
Q 1338 2744 1170 2645 
Q 1003 2547 900 2300 
Q 797 2053 797 1666 
Q 797 1041 1045 587 
Q 1294 134 1700 134 
Q 2003 134 2200 384 
Q 2397 634 2397 1244 
Q 2397 2006 2069 2444 
Q 1847 2744 1503 2744 
z
" transform="scale(0.015625)"/>
       <path id="TimesNewRomanPSMT-6e" d="M 1034 2341 
Q 1538 2947 1994 2947 
Q 2228 2947 2397 2830 
Q 2566 2713 2666 2444 
Q 2734 2256 2734 1869 
L 2734 647 
Q 2734 375 2778 278 
Q 2813 200 2889 156 
Q 2966 113 3172 113 
L 3172 0 
L 1756 0 
L 1756 113 
L 1816 113 
Q 2016 113 2095 173 
Q 2175 234 2206 353 
Q 2219 400 2219 647 
L 2219 1819 
Q 2219 2209 2117 2386 
Q 2016 2563 1775 2563 
Q 1403 2563 1034 2156 
L 1034 647 
Q 1034 356 1069 288 
Q 1113 197 1189 155 
Q 1266 113 1500 113 
L 1500 0 
L 84 0 
L 84 113 
L 147 113 
Q 366 113 442 223 
Q 519 334 519 647 
L 519 1709 
Q 519 2225 495 2337 
Q 472 2450 423 2490 
Q 375 2531 294 2531 
Q 206 2531 84 2484 
L 38 2597 
L 900 2947 
L 1034 2947 
L 1034 2341 
z
" transform="scale(0.015625)"/>
       <path id="TimesNewRomanPSMT-28" d="M 1988 -1253 
L 1988 -1369 
Q 1516 -1131 1200 -813 
Q 750 -359 506 256 
Q 263 872 263 1534 
Q 263 2503 741 3301 
Q 1219 4100 1988 4444 
L 1988 4313 
Q 1603 4100 1356 3731 
Q 1109 3363 987 2797 
Q 866 2231 866 1616 
Q 866 947 969 400 
Q 1050 -31 1165 -292 
Q 1281 -553 1476 -793 
Q 1672 -1034 1988 -1253 
z
" transform="scale(0.015625)"/>
       <path id="TimesNewRomanPSMT-41" d="M 2928 1419 
L 1288 1419 
L 1000 750 
Q 894 503 894 381 
Q 894 284 986 211 
Q 1078 138 1384 116 
L 1384 0 
L 50 0 
L 50 116 
Q 316 163 394 238 
Q 553 388 747 847 
L 2238 4334 
L 2347 4334 
L 3822 809 
Q 4000 384 4145 257 
Q 4291 131 4550 116 
L 4550 0 
L 2878 0 
L 2878 116 
Q 3131 128 3220 200 
Q 3309 272 3309 375 
Q 3309 513 3184 809 
L 2928 1419 
z
M 2841 1650 
L 2122 3363 
L 1384 1650 
L 2841 1650 
z
" transform="scale(0.015625)"/>
       <path id="TimesNewRomanPSMT-55" d="M 3053 4122 
L 3053 4238 
L 4553 4238 
L 4553 4122 
L 4394 4122 
Q 4144 4122 4009 3913 
Q 3944 3816 3944 3463 
L 3944 1744 
Q 3944 1106 3817 754 
Q 3691 403 3320 151 
Q 2950 -100 2313 -100 
Q 1619 -100 1259 140 
Q 900 381 750 788 
Q 650 1066 650 1831 
L 650 3488 
Q 650 3878 542 4000 
Q 434 4122 194 4122 
L 34 4122 
L 34 4238 
L 1866 4238 
L 1866 4122 
L 1703 4122 
Q 1441 4122 1328 3956 
Q 1250 3844 1250 3488 
L 1250 1641 
Q 1250 1394 1295 1075 
Q 1341 756 1459 578 
Q 1578 400 1801 284 
Q 2025 169 2350 169 
Q 2766 169 3094 350 
Q 3422 531 3542 814 
Q 3663 1097 3663 1772 
L 3663 3488 
Q 3663 3884 3575 3984 
Q 3453 4122 3213 4122 
L 3053 4122 
z
" transform="scale(0.015625)"/>
       <path id="TimesNewRomanPSMT-50" d="M 1313 1984 
L 1313 750 
Q 1313 350 1400 253 
Q 1519 116 1759 116 
L 1922 116 
L 1922 0 
L 106 0 
L 106 116 
L 266 116 
Q 534 116 650 291 
Q 713 388 713 750 
L 713 3488 
Q 713 3888 628 3984 
Q 506 4122 266 4122 
L 106 4122 
L 106 4238 
L 1659 4238 
Q 2228 4238 2556 4120 
Q 2884 4003 3109 3725 
Q 3334 3447 3334 3066 
Q 3334 2547 2992 2222 
Q 2650 1897 2025 1897 
Q 1872 1897 1694 1919 
Q 1516 1941 1313 1984 
z
M 1313 2163 
Q 1478 2131 1606 2115 
Q 1734 2100 1825 2100 
Q 2150 2100 2386 2351 
Q 2622 2603 2622 3003 
Q 2622 3278 2509 3514 
Q 2397 3750 2190 3867 
Q 1984 3984 1722 3984 
Q 1563 3984 1313 3925 
L 1313 2163 
z
" transform="scale(0.015625)"/>
       <path id="TimesNewRomanPSMT-52" d="M 4325 0 
L 3194 0 
L 1759 1981 
Q 1600 1975 1500 1975 
Q 1459 1975 1412 1976 
Q 1366 1978 1316 1981 
L 1316 750 
Q 1316 350 1403 253 
Q 1522 116 1759 116 
L 1925 116 
L 1925 0 
L 109 0 
L 109 116 
L 269 116 
Q 538 116 653 291 
Q 719 388 719 750 
L 719 3488 
Q 719 3888 631 3984 
Q 509 4122 269 4122 
L 109 4122 
L 109 4238 
L 1653 4238 
Q 2328 4238 2648 4139 
Q 2969 4041 3192 3777 
Q 3416 3513 3416 3147 
Q 3416 2756 3161 2468 
Q 2906 2181 2372 2063 
L 3247 847 
Q 3547 428 3762 290 
Q 3978 153 4325 116 
L 4325 0 
z
M 1316 2178 
Q 1375 2178 1419 2176 
Q 1463 2175 1491 2175 
Q 2097 2175 2405 2437 
Q 2713 2700 2713 3106 
Q 2713 3503 2464 3751 
Q 2216 4000 1806 4000 
Q 1625 4000 1316 3941 
L 1316 2178 
z
" transform="scale(0.015625)"/>
       <path id="TimesNewRomanPSMT-43" d="M 3853 4334 
L 3950 2894 
L 3853 2894 
Q 3659 3541 3300 3825 
Q 2941 4109 2438 4109 
Q 2016 4109 1675 3895 
Q 1334 3681 1139 3212 
Q 944 2744 944 2047 
Q 944 1472 1128 1050 
Q 1313 628 1683 403 
Q 2053 178 2528 178 
Q 2941 178 3256 354 
Q 3572 531 3950 1056 
L 4047 994 
Q 3728 428 3303 165 
Q 2878 -97 2294 -97 
Q 1241 -97 663 684 
Q 231 1266 231 2053 
Q 231 2688 515 3219 
Q 800 3750 1298 4042 
Q 1797 4334 2388 4334 
Q 2847 4334 3294 4109 
Q 3425 4041 3481 4041 
Q 3566 4041 3628 4100 
Q 3709 4184 3744 4334 
L 3853 4334 
z
" transform="scale(0.015625)"/>
       <path id="TimesNewRomanPSMT-3d" d="M 116 2759 
L 3488 2759 
L 3488 2503 
L 116 2503 
L 116 2759 
z
M 116 1741 
L 3488 1741 
L 3488 1484 
L 116 1484 
L 116 1741 
z
" transform="scale(0.015625)"/>
       <path id="TimesNewRomanPSMT-30" d="M 231 2094 
Q 231 2819 450 3342 
Q 669 3866 1031 4122 
Q 1313 4325 1613 4325 
Q 2100 4325 2488 3828 
Q 2972 3213 2972 2159 
Q 2972 1422 2759 906 
Q 2547 391 2217 158 
Q 1888 -75 1581 -75 
Q 975 -75 572 641 
Q 231 1244 231 2094 
z
M 844 2016 
Q 844 1141 1059 588 
Q 1238 122 1591 122 
Q 1759 122 1940 273 
Q 2122 425 2216 781 
Q 2359 1319 2359 2297 
Q 2359 3022 2209 3506 
Q 2097 3866 1919 4016 
Q 1791 4119 1609 4119 
Q 1397 4119 1231 3928 
Q 1006 3669 925 3112 
Q 844 2556 844 2016 
z
" transform="scale(0.015625)"/>
       <path id="TimesNewRomanPSMT-2e" d="M 800 606 
Q 947 606 1047 504 
Q 1147 403 1147 259 
Q 1147 116 1045 14 
Q 944 -88 800 -88 
Q 656 -88 554 14 
Q 453 116 453 259 
Q 453 406 554 506 
Q 656 606 800 606 
z
" transform="scale(0.015625)"/>
       <path id="TimesNewRomanPSMT-39" d="M 338 -88 
L 338 28 
Q 744 34 1094 217 
Q 1444 400 1770 856 
Q 2097 1313 2225 1859 
Q 1734 1544 1338 1544 
Q 891 1544 572 1889 
Q 253 2234 253 2806 
Q 253 3363 572 3797 
Q 956 4325 1575 4325 
Q 2097 4325 2469 3894 
Q 2925 3359 2925 2575 
Q 2925 1869 2578 1258 
Q 2231 647 1613 244 
Q 1109 -88 516 -88 
L 338 -88 
z
M 2275 2091 
Q 2331 2497 2331 2741 
Q 2331 3044 2228 3395 
Q 2125 3747 1936 3934 
Q 1747 4122 1506 4122 
Q 1228 4122 1018 3872 
Q 809 3622 809 3128 
Q 809 2469 1088 2097 
Q 1291 1828 1588 1828 
Q 1731 1828 1928 1897 
Q 2125 1966 2275 2091 
z
" transform="scale(0.015625)"/>
       <path id="TimesNewRomanPSMT-33" d="M 325 3431 
Q 506 3859 782 4092 
Q 1059 4325 1472 4325 
Q 1981 4325 2253 3994 
Q 2459 3747 2459 3466 
Q 2459 3003 1878 2509 
Q 2269 2356 2469 2072 
Q 2669 1788 2669 1403 
Q 2669 853 2319 450 
Q 1863 -75 997 -75 
Q 569 -75 414 31 
Q 259 138 259 259 
Q 259 350 332 419 
Q 406 488 509 488 
Q 588 488 669 463 
Q 722 447 909 348 
Q 1097 250 1169 231 
Q 1284 197 1416 197 
Q 1734 197 1970 444 
Q 2206 691 2206 1028 
Q 2206 1275 2097 1509 
Q 2016 1684 1919 1775 
Q 1784 1900 1550 2001 
Q 1316 2103 1072 2103 
L 972 2103 
L 972 2197 
Q 1219 2228 1467 2375 
Q 1716 2522 1828 2728 
Q 1941 2934 1941 3181 
Q 1941 3503 1739 3701 
Q 1538 3900 1238 3900 
Q 753 3900 428 3381 
L 325 3431 
z
" transform="scale(0.015625)"/>
       <path id="TimesNewRomanPSMT-34" d="M 2978 1563 
L 2978 1119 
L 2409 1119 
L 2409 0 
L 1894 0 
L 1894 1119 
L 100 1119 
L 100 1519 
L 2066 4325 
L 2409 4325 
L 2409 1563 
L 2978 1563 
z
M 1894 1563 
L 1894 3666 
L 406 1563 
L 1894 1563 
z
" transform="scale(0.015625)"/>
       <path id="TimesNewRomanPSMT-29" d="M 144 4313 
L 144 4444 
Q 619 4209 934 3891 
Q 1381 3434 1625 2820 
Q 1869 2206 1869 1541 
Q 1869 572 1392 -226 
Q 916 -1025 144 -1369 
L 144 -1253 
Q 528 -1038 776 -670 
Q 1025 -303 1145 264 
Q 1266 831 1266 1447 
Q 1266 2113 1163 2663 
Q 1084 3094 967 3353 
Q 850 3613 656 3853 
Q 463 4094 144 4313 
z
" transform="scale(0.015625)"/>
      </defs>
      <use xlink:href="#TimesNewRomanPSMT-4d"/>
      <use xlink:href="#TimesNewRomanPSMT-75" x="88.916016"/>
      <use xlink:href="#TimesNewRomanPSMT-74" x="138.916016"/>
      <use xlink:href="#TimesNewRomanPSMT-61" x="166.699219"/>
      <use xlink:href="#TimesNewRomanPSMT-74" x="211.083984"/>
      <use xlink:href="#TimesNewRomanPSMT-69" x="238.867188"/>
      <use xlink:href="#TimesNewRomanPSMT-6f" x="266.650391"/>
      <use xlink:href="#TimesNewRomanPSMT-6e" x="316.650391"/>
      <use xlink:href="#TimesNewRomanPSMT-28" x="366.650391"/>
      <use xlink:href="#TimesNewRomanPSMT-41" x="399.951172"/>
      <use xlink:href="#TimesNewRomanPSMT-55" x="472.167969"/>
      <use xlink:href="#TimesNewRomanPSMT-50" x="544.384766"/>
      <use xlink:href="#TimesNewRomanPSMT-52" x="600"/>
      <use xlink:href="#TimesNewRomanPSMT-43" x="666.699219"/>
      <use xlink:href="#TimesNewRomanPSMT-3d" x="733.398438"/>
      <use xlink:href="#TimesNewRomanPSMT-30" x="789.794922"/>
      <use xlink:href="#TimesNewRomanPSMT-2e" x="839.794922"/>
      <use xlink:href="#TimesNewRomanPSMT-39" x="864.794922"/>
      <use xlink:href="#TimesNewRomanPSMT-30" x="914.794922"/>
      <use xlink:href="#TimesNewRomanPSMT-33" x="964.794922"/>
      <use xlink:href="#TimesNewRomanPSMT-34" x="1014.794922"/>
      <use xlink:href="#TimesNewRomanPSMT-29" x="1064.794922"/>
     </g>
    </g>
    <g id="line2d_37">
     <path d="M 44.945313 160.216 
L 52.945313 160.216 
L 60.945313 160.216 
" style="fill: none; stroke: #f9cc6c; stroke-width: 1.5; stroke-linecap: round"/>
    </g>
    <g id="text_17">
     <!-- Genomics(AUPRC=0.8116) -->
     <g style="fill: #262626" transform="translate(67.345313 163.016) scale(0.08 -0.08)">
      <defs>
       <path id="TimesNewRomanPSMT-47" d="M 3928 4334 
L 4038 2997 
L 3928 2997 
Q 3763 3497 3500 3750 
Q 3122 4116 2528 4116 
Q 1719 4116 1297 3475 
Q 944 2934 944 2188 
Q 944 1581 1178 1081 
Q 1413 581 1792 348 
Q 2172 116 2572 116 
Q 2806 116 3025 175 
Q 3244 234 3447 350 
L 3447 1575 
Q 3447 1894 3398 1992 
Q 3350 2091 3248 2142 
Q 3147 2194 2891 2194 
L 2891 2313 
L 4531 2313 
L 4531 2194 
L 4453 2194 
Q 4209 2194 4119 2031 
Q 4056 1916 4056 1575 
L 4056 278 
Q 3697 84 3347 -6 
Q 2997 -97 2569 -97 
Q 1341 -97 703 691 
Q 225 1281 225 2053 
Q 225 2613 494 3125 
Q 813 3734 1369 4063 
Q 1834 4334 2469 4334 
Q 2700 4334 2889 4296 
Q 3078 4259 3425 4131 
Q 3600 4066 3659 4066 
Q 3719 4066 3761 4120 
Q 3803 4175 3813 4334 
L 3928 4334 
z
" transform="scale(0.015625)"/>
       <path id="TimesNewRomanPSMT-65" d="M 681 1784 
Q 678 1147 991 784 
Q 1303 422 1725 422 
Q 2006 422 2214 576 
Q 2422 731 2563 1106 
L 2659 1044 
Q 2594 616 2278 264 
Q 1963 -88 1488 -88 
Q 972 -88 605 314 
Q 238 716 238 1394 
Q 238 2128 614 2539 
Q 991 2950 1559 2950 
Q 2041 2950 2350 2633 
Q 2659 2316 2659 1784 
L 681 1784 
z
M 681 1966 
L 2006 1966 
Q 1991 2241 1941 2353 
Q 1863 2528 1708 2628 
Q 1553 2728 1384 2728 
Q 1125 2728 920 2526 
Q 716 2325 681 1966 
z
" transform="scale(0.015625)"/>
       <path id="TimesNewRomanPSMT-6d" d="M 1050 2338 
Q 1363 2650 1419 2697 
Q 1559 2816 1721 2881 
Q 1884 2947 2044 2947 
Q 2313 2947 2506 2790 
Q 2700 2634 2766 2338 
Q 3088 2713 3309 2830 
Q 3531 2947 3766 2947 
Q 3994 2947 4170 2830 
Q 4347 2713 4450 2447 
Q 4519 2266 4519 1878 
L 4519 647 
Q 4519 378 4559 278 
Q 4591 209 4675 161 
Q 4759 113 4950 113 
L 4950 0 
L 3538 0 
L 3538 113 
L 3597 113 
Q 3781 113 3884 184 
Q 3956 234 3988 344 
Q 4000 397 4000 647 
L 4000 1878 
Q 4000 2228 3916 2372 
Q 3794 2572 3525 2572 
Q 3359 2572 3192 2489 
Q 3025 2406 2788 2181 
L 2781 2147 
L 2788 2013 
L 2788 647 
Q 2788 353 2820 281 
Q 2853 209 2943 161 
Q 3034 113 3253 113 
L 3253 0 
L 1806 0 
L 1806 113 
Q 2044 113 2133 169 
Q 2222 225 2256 338 
Q 2272 391 2272 647 
L 2272 1878 
Q 2272 2228 2169 2381 
Q 2031 2581 1784 2581 
Q 1616 2581 1450 2491 
Q 1191 2353 1050 2181 
L 1050 647 
Q 1050 366 1089 281 
Q 1128 197 1204 155 
Q 1281 113 1516 113 
L 1516 0 
L 100 0 
L 100 113 
Q 297 113 375 155 
Q 453 197 493 289 
Q 534 381 534 647 
L 534 1741 
Q 534 2213 506 2350 
Q 484 2453 437 2492 
Q 391 2531 309 2531 
Q 222 2531 100 2484 
L 53 2597 
L 916 2947 
L 1050 2947 
L 1050 2338 
z
" transform="scale(0.015625)"/>
       <path id="TimesNewRomanPSMT-63" d="M 2631 1088 
Q 2516 522 2178 217 
Q 1841 -88 1431 -88 
Q 944 -88 581 321 
Q 219 731 219 1428 
Q 219 2103 620 2525 
Q 1022 2947 1584 2947 
Q 2006 2947 2278 2723 
Q 2550 2500 2550 2259 
Q 2550 2141 2473 2067 
Q 2397 1994 2259 1994 
Q 2075 1994 1981 2113 
Q 1928 2178 1911 2362 
Q 1894 2547 1784 2644 
Q 1675 2738 1481 2738 
Q 1169 2738 978 2506 
Q 725 2200 725 1697 
Q 725 1184 976 792 
Q 1228 400 1656 400 
Q 1963 400 2206 609 
Q 2378 753 2541 1131 
L 2631 1088 
z
" transform="scale(0.015625)"/>
       <path id="TimesNewRomanPSMT-73" d="M 2050 2947 
L 2050 1972 
L 1947 1972 
Q 1828 2431 1642 2597 
Q 1456 2763 1169 2763 
Q 950 2763 815 2647 
Q 681 2531 681 2391 
Q 681 2216 781 2091 
Q 878 1963 1175 1819 
L 1631 1597 
Q 2266 1288 2266 781 
Q 2266 391 1970 151 
Q 1675 -88 1309 -88 
Q 1047 -88 709 6 
Q 606 38 541 38 
Q 469 38 428 -44 
L 325 -44 
L 325 978 
L 428 978 
Q 516 541 762 319 
Q 1009 97 1316 97 
Q 1531 97 1667 223 
Q 1803 350 1803 528 
Q 1803 744 1651 891 
Q 1500 1038 1047 1263 
Q 594 1488 453 1669 
Q 313 1847 313 2119 
Q 313 2472 555 2709 
Q 797 2947 1181 2947 
Q 1350 2947 1591 2875 
Q 1750 2828 1803 2828 
Q 1853 2828 1881 2850 
Q 1909 2872 1947 2947 
L 2050 2947 
z
" transform="scale(0.015625)"/>
       <path id="TimesNewRomanPSMT-38" d="M 1228 2134 
Q 725 2547 579 2797 
Q 434 3047 434 3316 
Q 434 3728 753 4026 
Q 1072 4325 1600 4325 
Q 2113 4325 2425 4047 
Q 2738 3769 2738 3413 
Q 2738 3175 2569 2928 
Q 2400 2681 1866 2347 
Q 2416 1922 2594 1678 
Q 2831 1359 2831 1006 
Q 2831 559 2490 242 
Q 2150 -75 1597 -75 
Q 994 -75 656 303 
Q 388 606 388 966 
Q 388 1247 577 1523 
Q 766 1800 1228 2134 
z
M 1719 2469 
Q 2094 2806 2194 3001 
Q 2294 3197 2294 3444 
Q 2294 3772 2109 3958 
Q 1925 4144 1606 4144 
Q 1288 4144 1088 3959 
Q 888 3775 888 3528 
Q 888 3366 970 3203 
Q 1053 3041 1206 2894 
L 1719 2469 
z
M 1375 2016 
Q 1116 1797 991 1539 
Q 866 1281 866 981 
Q 866 578 1086 336 
Q 1306 94 1647 94 
Q 1984 94 2187 284 
Q 2391 475 2391 747 
Q 2391 972 2272 1150 
Q 2050 1481 1375 2016 
z
" transform="scale(0.015625)"/>
       <path id="TimesNewRomanPSMT-31" d="M 750 3822 
L 1781 4325 
L 1884 4325 
L 1884 747 
Q 1884 391 1914 303 
Q 1944 216 2037 169 
Q 2131 122 2419 116 
L 2419 0 
L 825 0 
L 825 116 
Q 1125 122 1212 167 
Q 1300 213 1334 289 
Q 1369 366 1369 747 
L 1369 3034 
Q 1369 3497 1338 3628 
Q 1316 3728 1258 3775 
Q 1200 3822 1119 3822 
Q 1003 3822 797 3725 
L 750 3822 
z
" transform="scale(0.015625)"/>
       <path id="TimesNewRomanPSMT-36" d="M 2869 4325 
L 2869 4209 
Q 2456 4169 2195 4045 
Q 1934 3922 1679 3669 
Q 1425 3416 1258 3105 
Q 1091 2794 978 2366 
Q 1428 2675 1881 2675 
Q 2316 2675 2634 2325 
Q 2953 1975 2953 1425 
Q 2953 894 2631 456 
Q 2244 -75 1606 -75 
Q 1172 -75 869 213 
Q 275 772 275 1663 
Q 275 2231 503 2743 
Q 731 3256 1154 3653 
Q 1578 4050 1965 4187 
Q 2353 4325 2688 4325 
L 2869 4325 
z
M 925 2138 
Q 869 1716 869 1456 
Q 869 1156 980 804 
Q 1091 453 1309 247 
Q 1469 100 1697 100 
Q 1969 100 2183 356 
Q 2397 613 2397 1088 
Q 2397 1622 2184 2012 
Q 1972 2403 1581 2403 
Q 1463 2403 1327 2353 
Q 1191 2303 925 2138 
z
" transform="scale(0.015625)"/>
      </defs>
      <use xlink:href="#TimesNewRomanPSMT-47"/>
      <use xlink:href="#TimesNewRomanPSMT-65" x="72.216797"/>
      <use xlink:href="#TimesNewRomanPSMT-6e" x="116.601562"/>
      <use xlink:href="#TimesNewRomanPSMT-6f" x="166.601562"/>
      <use xlink:href="#TimesNewRomanPSMT-6d" x="216.601562"/>
      <use xlink:href="#TimesNewRomanPSMT-69" x="294.384766"/>
      <use xlink:href="#TimesNewRomanPSMT-63" x="322.167969"/>
      <use xlink:href="#TimesNewRomanPSMT-73" x="366.552734"/>
      <use xlink:href="#TimesNewRomanPSMT-28" x="405.46875"/>
      <use xlink:href="#TimesNewRomanPSMT-41" x="438.769531"/>
      <use xlink:href="#TimesNewRomanPSMT-55" x="510.986328"/>
      <use xlink:href="#TimesNewRomanPSMT-50" x="583.203125"/>
      <use xlink:href="#TimesNewRomanPSMT-52" x="638.818359"/>
      <use xlink:href="#TimesNewRomanPSMT-43" x="705.517578"/>
      <use xlink:href="#TimesNewRomanPSMT-3d" x="772.216797"/>
      <use xlink:href="#TimesNewRomanPSMT-30" x="828.613281"/>
      <use xlink:href="#TimesNewRomanPSMT-2e" x="878.613281"/>
      <use xlink:href="#TimesNewRomanPSMT-38" x="903.613281"/>
      <use xlink:href="#TimesNewRomanPSMT-31" x="953.613281"/>
      <use xlink:href="#TimesNewRomanPSMT-31" x="999.863281"/>
      <use xlink:href="#TimesNewRomanPSMT-36" x="1049.863281"/>
      <use xlink:href="#TimesNewRomanPSMT-29" x="1099.863281"/>
     </g>
    </g>
    <g id="line2d_38">
     <path d="M 44.945313 171.52725 
L 52.945313 171.52725 
L 60.945313 171.52725 
" style="fill: none; stroke: #e00b5a; stroke-width: 1.5; stroke-linecap: round"/>
    </g>
    <g id="text_18">
     <!-- Transcriptomics(AUPRC=0.8593) -->
     <g style="fill: #262626" transform="translate(67.345313 174.32725) scale(0.08 -0.08)">
      <defs>
       <path id="TimesNewRomanPSMT-54" d="M 3703 4238 
L 3750 3244 
L 3631 3244 
Q 3597 3506 3538 3619 
Q 3441 3800 3280 3886 
Q 3119 3972 2856 3972 
L 2259 3972 
L 2259 734 
Q 2259 344 2344 247 
Q 2463 116 2709 116 
L 2856 116 
L 2856 0 
L 1059 0 
L 1059 116 
L 1209 116 
Q 1478 116 1591 278 
Q 1659 378 1659 734 
L 1659 3972 
L 1150 3972 
Q 853 3972 728 3928 
Q 566 3869 450 3700 
Q 334 3531 313 3244 
L 194 3244 
L 244 4238 
L 3703 4238 
z
" transform="scale(0.015625)"/>
       <path id="TimesNewRomanPSMT-72" d="M 1038 2947 
L 1038 2303 
Q 1397 2947 1775 2947 
Q 1947 2947 2059 2842 
Q 2172 2738 2172 2600 
Q 2172 2478 2090 2393 
Q 2009 2309 1897 2309 
Q 1788 2309 1652 2417 
Q 1516 2525 1450 2525 
Q 1394 2525 1328 2463 
Q 1188 2334 1038 2041 
L 1038 669 
Q 1038 431 1097 309 
Q 1138 225 1241 169 
Q 1344 113 1538 113 
L 1538 0 
L 72 0 
L 72 113 
Q 291 113 397 181 
Q 475 231 506 341 
Q 522 394 522 644 
L 522 1753 
Q 522 2253 501 2348 
Q 481 2444 426 2487 
Q 372 2531 291 2531 
Q 194 2531 72 2484 
L 41 2597 
L 906 2947 
L 1038 2947 
z
" transform="scale(0.015625)"/>
       <path id="TimesNewRomanPSMT-70" d="M -6 2578 
L 875 2934 
L 994 2934 
L 994 2266 
Q 1216 2644 1439 2795 
Q 1663 2947 1909 2947 
Q 2341 2947 2628 2609 
Q 2981 2197 2981 1534 
Q 2981 794 2556 309 
Q 2206 -88 1675 -88 
Q 1444 -88 1275 -22 
Q 1150 25 994 166 
L 994 -706 
Q 994 -1000 1030 -1079 
Q 1066 -1159 1155 -1206 
Q 1244 -1253 1478 -1253 
L 1478 -1369 
L -22 -1369 
L -22 -1253 
L 56 -1253 
Q 228 -1256 350 -1188 
Q 409 -1153 442 -1076 
Q 475 -1000 475 -688 
L 475 2019 
Q 475 2297 450 2372 
Q 425 2447 370 2484 
Q 316 2522 222 2522 
Q 147 2522 31 2478 
L -6 2578 
z
M 994 2081 
L 994 1013 
Q 994 666 1022 556 
Q 1066 375 1236 237 
Q 1406 100 1666 100 
Q 1978 100 2172 344 
Q 2425 663 2425 1241 
Q 2425 1897 2138 2250 
Q 1938 2494 1663 2494 
Q 1513 2494 1366 2419 
Q 1253 2363 994 2081 
z
" transform="scale(0.015625)"/>
       <path id="TimesNewRomanPSMT-35" d="M 2778 4238 
L 2534 3706 
L 1259 3706 
L 981 3138 
Q 1809 3016 2294 2522 
Q 2709 2097 2709 1522 
Q 2709 1188 2573 903 
Q 2438 619 2231 419 
Q 2025 219 1772 97 
Q 1413 -75 1034 -75 
Q 653 -75 479 54 
Q 306 184 306 341 
Q 306 428 378 495 
Q 450 563 559 563 
Q 641 563 702 538 
Q 763 513 909 409 
Q 1144 247 1384 247 
Q 1750 247 2026 523 
Q 2303 800 2303 1197 
Q 2303 1581 2056 1914 
Q 1809 2247 1375 2428 
Q 1034 2569 447 2591 
L 1259 4238 
L 2778 4238 
z
" transform="scale(0.015625)"/>
      </defs>
      <use xlink:href="#TimesNewRomanPSMT-54"/>
      <use xlink:href="#TimesNewRomanPSMT-72" x="57.583984"/>
      <use xlink:href="#TimesNewRomanPSMT-61" x="90.884766"/>
      <use xlink:href="#TimesNewRomanPSMT-6e" x="135.269531"/>
      <use xlink:href="#TimesNewRomanPSMT-73" x="185.269531"/>
      <use xlink:href="#TimesNewRomanPSMT-63" x="224.185547"/>
      <use xlink:href="#TimesNewRomanPSMT-72" x="268.570312"/>
      <use xlink:href="#TimesNewRomanPSMT-69" x="301.871094"/>
      <use xlink:href="#TimesNewRomanPSMT-70" x="329.654297"/>
      <use xlink:href="#TimesNewRomanPSMT-74" x="379.654297"/>
      <use xlink:href="#TimesNewRomanPSMT-6f" x="407.4375"/>
      <use xlink:href="#TimesNewRomanPSMT-6d" x="457.4375"/>
      <use xlink:href="#TimesNewRomanPSMT-69" x="535.220703"/>
      <use xlink:href="#TimesNewRomanPSMT-63" x="563.003906"/>
      <use xlink:href="#TimesNewRomanPSMT-73" x="607.388672"/>
      <use xlink:href="#TimesNewRomanPSMT-28" x="646.304688"/>
      <use xlink:href="#TimesNewRomanPSMT-41" x="679.605469"/>
      <use xlink:href="#TimesNewRomanPSMT-55" x="751.822266"/>
      <use xlink:href="#TimesNewRomanPSMT-50" x="824.039062"/>
      <use xlink:href="#TimesNewRomanPSMT-52" x="879.654297"/>
      <use xlink:href="#TimesNewRomanPSMT-43" x="946.353516"/>
      <use xlink:href="#TimesNewRomanPSMT-3d" x="1013.052734"/>
      <use xlink:href="#TimesNewRomanPSMT-30" x="1069.449219"/>
      <use xlink:href="#TimesNewRomanPSMT-2e" x="1119.449219"/>
      <use xlink:href="#TimesNewRomanPSMT-38" x="1144.449219"/>
      <use xlink:href="#TimesNewRomanPSMT-35" x="1194.449219"/>
      <use xlink:href="#TimesNewRomanPSMT-39" x="1244.449219"/>
      <use xlink:href="#TimesNewRomanPSMT-33" x="1294.449219"/>
      <use xlink:href="#TimesNewRomanPSMT-29" x="1344.449219"/>
     </g>
    </g>
    <g id="line2d_39">
     <path d="M 44.945313 182.8385 
L 52.945313 182.8385 
L 60.945313 182.8385 
" style="fill: none; stroke: #b614bb; stroke-width: 1.5; stroke-linecap: round"/>
    </g>
    <g id="text_19">
     <!-- Epigenetics(AUPRC=0.8895) -->
     <g style="fill: #262626" transform="translate(67.345313 185.6385) scale(0.08 -0.08)">
      <defs>
       <path id="TimesNewRomanPSMT-45" d="M 1338 4006 
L 1338 2331 
L 2269 2331 
Q 2631 2331 2753 2441 
Q 2916 2584 2934 2947 
L 3050 2947 
L 3050 1472 
L 2934 1472 
Q 2891 1781 2847 1869 
Q 2791 1978 2662 2040 
Q 2534 2103 2269 2103 
L 1338 2103 
L 1338 706 
Q 1338 425 1363 364 
Q 1388 303 1450 267 
Q 1513 231 1688 231 
L 2406 231 
Q 2766 231 2928 281 
Q 3091 331 3241 478 
Q 3434 672 3638 1063 
L 3763 1063 
L 3397 0 
L 131 0 
L 131 116 
L 281 116 
Q 431 116 566 188 
Q 666 238 702 338 
Q 738 438 738 747 
L 738 3500 
Q 738 3903 656 3997 
Q 544 4122 281 4122 
L 131 4122 
L 131 4238 
L 3397 4238 
L 3444 3309 
L 3322 3309 
Q 3256 3644 3176 3769 
Q 3097 3894 2941 3959 
Q 2816 4006 2500 4006 
L 1338 4006 
z
" transform="scale(0.015625)"/>
       <path id="TimesNewRomanPSMT-67" d="M 966 1044 
Q 703 1172 562 1401 
Q 422 1631 422 1909 
Q 422 2334 742 2640 
Q 1063 2947 1563 2947 
Q 1972 2947 2272 2747 
L 2878 2747 
Q 3013 2747 3034 2739 
Q 3056 2731 3066 2713 
Q 3084 2684 3084 2613 
Q 3084 2531 3069 2500 
Q 3059 2484 3036 2475 
Q 3013 2466 2878 2466 
L 2506 2466 
Q 2681 2241 2681 1891 
Q 2681 1491 2375 1206 
Q 2069 922 1553 922 
Q 1341 922 1119 984 
Q 981 866 932 777 
Q 884 688 884 625 
Q 884 572 936 522 
Q 988 472 1138 450 
Q 1225 438 1575 428 
Q 2219 413 2409 384 
Q 2700 344 2873 169 
Q 3047 -6 3047 -263 
Q 3047 -616 2716 -925 
Q 2228 -1381 1444 -1381 
Q 841 -1381 425 -1109 
Q 191 -953 191 -784 
Q 191 -709 225 -634 
Q 278 -519 444 -313 
Q 466 -284 763 25 
Q 600 122 533 198 
Q 466 275 466 372 
Q 466 481 555 628 
Q 644 775 966 1044 
z
M 1509 2797 
Q 1278 2797 1122 2612 
Q 966 2428 966 2047 
Q 966 1553 1178 1281 
Q 1341 1075 1591 1075 
Q 1828 1075 1981 1253 
Q 2134 1431 2134 1813 
Q 2134 2309 1919 2591 
Q 1759 2797 1509 2797 
z
M 934 0 
Q 788 -159 713 -296 
Q 638 -434 638 -550 
Q 638 -700 819 -813 
Q 1131 -1006 1722 -1006 
Q 2284 -1006 2551 -807 
Q 2819 -609 2819 -384 
Q 2819 -222 2659 -153 
Q 2497 -84 2016 -72 
Q 1313 -53 934 0 
z
" transform="scale(0.015625)"/>
      </defs>
      <use xlink:href="#TimesNewRomanPSMT-45"/>
      <use xlink:href="#TimesNewRomanPSMT-70" x="61.083984"/>
      <use xlink:href="#TimesNewRomanPSMT-69" x="111.083984"/>
      <use xlink:href="#TimesNewRomanPSMT-67" x="138.867188"/>
      <use xlink:href="#TimesNewRomanPSMT-65" x="188.867188"/>
      <use xlink:href="#TimesNewRomanPSMT-6e" x="233.251953"/>
      <use xlink:href="#TimesNewRomanPSMT-65" x="283.251953"/>
      <use xlink:href="#TimesNewRomanPSMT-74" x="327.636719"/>
      <use xlink:href="#TimesNewRomanPSMT-69" x="355.419922"/>
      <use xlink:href="#TimesNewRomanPSMT-63" x="383.203125"/>
      <use xlink:href="#TimesNewRomanPSMT-73" x="427.587891"/>
      <use xlink:href="#TimesNewRomanPSMT-28" x="466.503906"/>
      <use xlink:href="#TimesNewRomanPSMT-41" x="499.804688"/>
      <use xlink:href="#TimesNewRomanPSMT-55" x="572.021484"/>
      <use xlink:href="#TimesNewRomanPSMT-50" x="644.238281"/>
      <use xlink:href="#TimesNewRomanPSMT-52" x="699.853516"/>
      <use xlink:href="#TimesNewRomanPSMT-43" x="766.552734"/>
      <use xlink:href="#TimesNewRomanPSMT-3d" x="833.251953"/>
      <use xlink:href="#TimesNewRomanPSMT-30" x="889.648438"/>
      <use xlink:href="#TimesNewRomanPSMT-2e" x="939.648438"/>
      <use xlink:href="#TimesNewRomanPSMT-38" x="964.648438"/>
      <use xlink:href="#TimesNewRomanPSMT-38" x="1014.648438"/>
      <use xlink:href="#TimesNewRomanPSMT-39" x="1064.648438"/>
      <use xlink:href="#TimesNewRomanPSMT-35" x="1114.648438"/>
      <use xlink:href="#TimesNewRomanPSMT-29" x="1164.648438"/>
     </g>
    </g>
    <g id="line2d_40">
     <path d="M 44.945313 194.16475 
L 52.945313 194.16475 
L 60.945313 194.16475 
" style="fill: none; stroke-dasharray: 1.5,2.475; stroke-dashoffset: 0; stroke: #6d5aef; stroke-width: 1.5"/>
    </g>
    <g id="text_20">
     <!-- w/o mutation(AUPRC=0.8003) -->
     <g style="fill: #262626" transform="translate(67.345313 196.96475) scale(0.08 -0.08)">
      <defs>
       <path id="TimesNewRomanPSMT-77" d="M 41 2863 
L 1241 2863 
L 1241 2747 
Q 1075 2734 1023 2687 
Q 972 2641 972 2553 
Q 972 2456 1025 2319 
L 1638 672 
L 2253 2013 
L 2091 2434 
Q 2016 2622 1894 2694 
Q 1825 2738 1638 2747 
L 1638 2863 
L 3000 2863 
L 3000 2747 
Q 2775 2738 2681 2666 
Q 2619 2616 2619 2506 
Q 2619 2444 2644 2378 
L 3294 734 
L 3897 2319 
Q 3959 2488 3959 2588 
Q 3959 2647 3898 2694 
Q 3838 2741 3659 2747 
L 3659 2863 
L 4563 2863 
L 4563 2747 
Q 4291 2706 4163 2378 
L 3206 -88 
L 3078 -88 
L 2363 1741 
L 1528 -88 
L 1413 -88 
L 494 2319 
Q 403 2547 315 2626 
Q 228 2706 41 2747 
L 41 2863 
z
" transform="scale(0.015625)"/>
       <path id="TimesNewRomanPSMT-2f" d="M 1794 4444 
L 259 -88 
L 9 -88 
L 1544 4444 
L 1794 4444 
z
" transform="scale(0.015625)"/>
       <path id="TimesNewRomanPSMT-20" transform="scale(0.015625)"/>
      </defs>
      <use xlink:href="#TimesNewRomanPSMT-77"/>
      <use xlink:href="#TimesNewRomanPSMT-2f" x="72.216797"/>
      <use xlink:href="#TimesNewRomanPSMT-6f" x="100"/>
      <use xlink:href="#TimesNewRomanPSMT-20" x="150"/>
      <use xlink:href="#TimesNewRomanPSMT-6d" x="175"/>
      <use xlink:href="#TimesNewRomanPSMT-75" x="252.783203"/>
      <use xlink:href="#TimesNewRomanPSMT-74" x="302.783203"/>
      <use xlink:href="#TimesNewRomanPSMT-61" x="330.566406"/>
      <use xlink:href="#TimesNewRomanPSMT-74" x="374.951172"/>
      <use xlink:href="#TimesNewRomanPSMT-69" x="402.734375"/>
      <use xlink:href="#TimesNewRomanPSMT-6f" x="430.517578"/>
      <use xlink:href="#TimesNewRomanPSMT-6e" x="480.517578"/>
      <use xlink:href="#TimesNewRomanPSMT-28" x="530.517578"/>
      <use xlink:href="#TimesNewRomanPSMT-41" x="563.818359"/>
      <use xlink:href="#TimesNewRomanPSMT-55" x="636.035156"/>
      <use xlink:href="#TimesNewRomanPSMT-50" x="708.251953"/>
      <use xlink:href="#TimesNewRomanPSMT-52" x="763.867188"/>
      <use xlink:href="#TimesNewRomanPSMT-43" x="830.566406"/>
      <use xlink:href="#TimesNewRomanPSMT-3d" x="897.265625"/>
      <use xlink:href="#TimesNewRomanPSMT-30" x="953.662109"/>
      <use xlink:href="#TimesNewRomanPSMT-2e" x="1003.662109"/>
      <use xlink:href="#TimesNewRomanPSMT-38" x="1028.662109"/>
      <use xlink:href="#TimesNewRomanPSMT-30" x="1078.662109"/>
      <use xlink:href="#TimesNewRomanPSMT-30" x="1128.662109"/>
      <use xlink:href="#TimesNewRomanPSMT-33" x="1178.662109"/>
      <use xlink:href="#TimesNewRomanPSMT-29" x="1228.662109"/>
     </g>
    </g>
    <g id="line2d_41">
     <path d="M 44.945313 205.476 
L 52.945313 205.476 
L 60.945313 205.476 
" style="fill: none; stroke-dasharray: 1.5,2.475; stroke-dashoffset: 0; stroke: #6fabf2; stroke-width: 1.5"/>
    </g>
    <g id="text_21">
     <!-- w/o Genomics(AUPRC=0.8863) -->
     <g style="fill: #262626" transform="translate(67.345313 208.276) scale(0.08 -0.08)">
      <use xlink:href="#TimesNewRomanPSMT-77"/>
      <use xlink:href="#TimesNewRomanPSMT-2f" x="72.216797"/>
      <use xlink:href="#TimesNewRomanPSMT-6f" x="100"/>
      <use xlink:href="#TimesNewRomanPSMT-20" x="150"/>
      <use xlink:href="#TimesNewRomanPSMT-47" x="175"/>
      <use xlink:href="#TimesNewRomanPSMT-65" x="247.216797"/>
      <use xlink:href="#TimesNewRomanPSMT-6e" x="291.601562"/>
      <use xlink:href="#TimesNewRomanPSMT-6f" x="341.601562"/>
      <use xlink:href="#TimesNewRomanPSMT-6d" x="391.601562"/>
      <use xlink:href="#TimesNewRomanPSMT-69" x="469.384766"/>
      <use xlink:href="#TimesNewRomanPSMT-63" x="497.167969"/>
      <use xlink:href="#TimesNewRomanPSMT-73" x="541.552734"/>
      <use xlink:href="#TimesNewRomanPSMT-28" x="580.46875"/>
      <use xlink:href="#TimesNewRomanPSMT-41" x="613.769531"/>
      <use xlink:href="#TimesNewRomanPSMT-55" x="685.986328"/>
      <use xlink:href="#TimesNewRomanPSMT-50" x="758.203125"/>
      <use xlink:href="#TimesNewRomanPSMT-52" x="813.818359"/>
      <use xlink:href="#TimesNewRomanPSMT-43" x="880.517578"/>
      <use xlink:href="#TimesNewRomanPSMT-3d" x="947.216797"/>
      <use xlink:href="#TimesNewRomanPSMT-30" x="1003.613281"/>
      <use xlink:href="#TimesNewRomanPSMT-2e" x="1053.613281"/>
      <use xlink:href="#TimesNewRomanPSMT-38" x="1078.613281"/>
      <use xlink:href="#TimesNewRomanPSMT-38" x="1128.613281"/>
      <use xlink:href="#TimesNewRomanPSMT-36" x="1178.613281"/>
      <use xlink:href="#TimesNewRomanPSMT-33" x="1228.613281"/>
      <use xlink:href="#TimesNewRomanPSMT-29" x="1278.613281"/>
     </g>
    </g>
    <g id="line2d_42">
     <path d="M 44.945313 216.78725 
L 52.945313 216.78725 
L 60.945313 216.78725 
" style="fill: none; stroke-dasharray: 1.5,2.475; stroke-dashoffset: 0; stroke: #ffc24b; stroke-width: 1.5"/>
    </g>
    <g id="text_22">
     <!-- w/o Transcriptomics(AUPRC=0.8264) -->
     <g style="fill: #262626" transform="translate(67.345313 219.58725) scale(0.08 -0.08)">
      <defs>
       <path id="TimesNewRomanPSMT-32" d="M 2934 816 
L 2638 0 
L 138 0 
L 138 116 
Q 1241 1122 1691 1759 
Q 2141 2397 2141 2925 
Q 2141 3328 1894 3587 
Q 1647 3847 1303 3847 
Q 991 3847 742 3664 
Q 494 3481 375 3128 
L 259 3128 
Q 338 3706 661 4015 
Q 984 4325 1469 4325 
Q 1984 4325 2329 3994 
Q 2675 3663 2675 3213 
Q 2675 2891 2525 2569 
Q 2294 2063 1775 1497 
Q 997 647 803 472 
L 1909 472 
Q 2247 472 2383 497 
Q 2519 522 2628 598 
Q 2738 675 2819 816 
L 2934 816 
z
" transform="scale(0.015625)"/>
      </defs>
      <use xlink:href="#TimesNewRomanPSMT-77"/>
      <use xlink:href="#TimesNewRomanPSMT-2f" x="72.216797"/>
      <use xlink:href="#TimesNewRomanPSMT-6f" x="100"/>
      <use xlink:href="#TimesNewRomanPSMT-20" x="150"/>
      <use xlink:href="#TimesNewRomanPSMT-54" x="173.25"/>
      <use xlink:href="#TimesNewRomanPSMT-72" x="230.833984"/>
      <use xlink:href="#TimesNewRomanPSMT-61" x="264.134766"/>
      <use xlink:href="#TimesNewRomanPSMT-6e" x="308.519531"/>
      <use xlink:href="#TimesNewRomanPSMT-73" x="358.519531"/>
      <use xlink:href="#TimesNewRomanPSMT-63" x="397.435547"/>
      <use xlink:href="#TimesNewRomanPSMT-72" x="441.820312"/>
      <use xlink:href="#TimesNewRomanPSMT-69" x="475.121094"/>
      <use xlink:href="#TimesNewRomanPSMT-70" x="502.904297"/>
      <use xlink:href="#TimesNewRomanPSMT-74" x="552.904297"/>
      <use xlink:href="#TimesNewRomanPSMT-6f" x="580.6875"/>
      <use xlink:href="#TimesNewRomanPSMT-6d" x="630.6875"/>
      <use xlink:href="#TimesNewRomanPSMT-69" x="708.470703"/>
      <use xlink:href="#TimesNewRomanPSMT-63" x="736.253906"/>
      <use xlink:href="#TimesNewRomanPSMT-73" x="780.638672"/>
      <use xlink:href="#TimesNewRomanPSMT-28" x="819.554688"/>
      <use xlink:href="#TimesNewRomanPSMT-41" x="852.855469"/>
      <use xlink:href="#TimesNewRomanPSMT-55" x="925.072266"/>
      <use xlink:href="#TimesNewRomanPSMT-50" x="997.289062"/>
      <use xlink:href="#TimesNewRomanPSMT-52" x="1052.904297"/>
      <use xlink:href="#TimesNewRomanPSMT-43" x="1119.603516"/>
      <use xlink:href="#TimesNewRomanPSMT-3d" x="1186.302734"/>
      <use xlink:href="#TimesNewRomanPSMT-30" x="1242.699219"/>
      <use xlink:href="#TimesNewRomanPSMT-2e" x="1292.699219"/>
      <use xlink:href="#TimesNewRomanPSMT-38" x="1317.699219"/>
      <use xlink:href="#TimesNewRomanPSMT-32" x="1367.699219"/>
      <use xlink:href="#TimesNewRomanPSMT-36" x="1417.699219"/>
      <use xlink:href="#TimesNewRomanPSMT-34" x="1467.699219"/>
      <use xlink:href="#TimesNewRomanPSMT-29" x="1517.699219"/>
     </g>
    </g>
    <g id="line2d_43">
     <path d="M 44.945313 228.0985 
L 52.945313 228.0985 
L 60.945313 228.0985 
" style="fill: none; stroke-dasharray: 1.5,2.475; stroke-dashoffset: 0; stroke: #feb3ae; stroke-width: 1.5"/>
    </g>
    <g id="text_23">
     <!-- w/o Epigenetics(AUPRC=0.8213) -->
     <g style="fill: #262626" transform="translate(67.345313 230.8985) scale(0.08 -0.08)">
      <use xlink:href="#TimesNewRomanPSMT-77"/>
      <use xlink:href="#TimesNewRomanPSMT-2f" x="72.216797"/>
      <use xlink:href="#TimesNewRomanPSMT-6f" x="100"/>
      <use xlink:href="#TimesNewRomanPSMT-20" x="150"/>
      <use xlink:href="#TimesNewRomanPSMT-45" x="175"/>
      <use xlink:href="#TimesNewRomanPSMT-70" x="236.083984"/>
      <use xlink:href="#TimesNewRomanPSMT-69" x="286.083984"/>
      <use xlink:href="#TimesNewRomanPSMT-67" x="313.867188"/>
      <use xlink:href="#TimesNewRomanPSMT-65" x="363.867188"/>
      <use xlink:href="#TimesNewRomanPSMT-6e" x="408.251953"/>
      <use xlink:href="#TimesNewRomanPSMT-65" x="458.251953"/>
      <use xlink:href="#TimesNewRomanPSMT-74" x="502.636719"/>
      <use xlink:href="#TimesNewRomanPSMT-69" x="530.419922"/>
      <use xlink:href="#TimesNewRomanPSMT-63" x="558.203125"/>
      <use xlink:href="#TimesNewRomanPSMT-73" x="602.587891"/>
      <use xlink:href="#TimesNewRomanPSMT-28" x="641.503906"/>
      <use xlink:href="#TimesNewRomanPSMT-41" x="674.804688"/>
      <use xlink:href="#TimesNewRomanPSMT-55" x="747.021484"/>
      <use xlink:href="#TimesNewRomanPSMT-50" x="819.238281"/>
      <use xlink:href="#TimesNewRomanPSMT-52" x="874.853516"/>
      <use xlink:href="#TimesNewRomanPSMT-43" x="941.552734"/>
      <use xlink:href="#TimesNewRomanPSMT-3d" x="1008.251953"/>
      <use xlink:href="#TimesNewRomanPSMT-30" x="1064.648438"/>
      <use xlink:href="#TimesNewRomanPSMT-2e" x="1114.648438"/>
      <use xlink:href="#TimesNewRomanPSMT-38" x="1139.648438"/>
      <use xlink:href="#TimesNewRomanPSMT-32" x="1189.648438"/>
      <use xlink:href="#TimesNewRomanPSMT-31" x="1239.648438"/>
      <use xlink:href="#TimesNewRomanPSMT-33" x="1289.648438"/>
      <use xlink:href="#TimesNewRomanPSMT-29" x="1339.648438"/>
     </g>
    </g>
    <g id="line2d_44">
     <path d="M 44.945313 239.42475 
L 52.945313 239.42475 
L 60.945313 239.42475 
" style="fill: none; stroke-dasharray: 9.6,2.4,1.5,2.4; stroke-dashoffset: 0; stroke: #e54391; stroke-width: 1.5"/>
    </g>
    <g id="text_24">
     <!-- All(AUPRC=0.9660) -->
     <g style="fill: #262626" transform="translate(67.345313 242.22475) scale(0.08 -0.08)">
      <defs>
       <path id="TimesNewRomanPSMT-6c" d="M 1184 4444 
L 1184 647 
Q 1184 378 1223 290 
Q 1263 203 1344 158 
Q 1425 113 1647 113 
L 1647 0 
L 244 0 
L 244 113 
Q 441 113 512 153 
Q 584 194 625 287 
Q 666 381 666 647 
L 666 3247 
Q 666 3731 644 3842 
Q 622 3953 573 3993 
Q 525 4034 450 4034 
Q 369 4034 244 3984 
L 191 4094 
L 1044 4444 
L 1184 4444 
z
" transform="scale(0.015625)"/>
      </defs>
      <use xlink:href="#TimesNewRomanPSMT-41"/>
      <use xlink:href="#TimesNewRomanPSMT-6c" x="72.216797"/>
      <use xlink:href="#TimesNewRomanPSMT-6c" x="100"/>
      <use xlink:href="#TimesNewRomanPSMT-28" x="127.783203"/>
      <use xlink:href="#TimesNewRomanPSMT-41" x="161.083984"/>
      <use xlink:href="#TimesNewRomanPSMT-55" x="233.300781"/>
      <use xlink:href="#TimesNewRomanPSMT-50" x="305.517578"/>
      <use xlink:href="#TimesNewRomanPSMT-52" x="361.132812"/>
      <use xlink:href="#TimesNewRomanPSMT-43" x="427.832031"/>
      <use xlink:href="#TimesNewRomanPSMT-3d" x="494.53125"/>
      <use xlink:href="#TimesNewRomanPSMT-30" x="550.927734"/>
      <use xlink:href="#TimesNewRomanPSMT-2e" x="600.927734"/>
      <use xlink:href="#TimesNewRomanPSMT-39" x="625.927734"/>
      <use xlink:href="#TimesNewRomanPSMT-36" x="675.927734"/>
      <use xlink:href="#TimesNewRomanPSMT-36" x="725.927734"/>
      <use xlink:href="#TimesNewRomanPSMT-30" x="775.927734"/>
      <use xlink:href="#TimesNewRomanPSMT-29" x="825.927734"/>
     </g>
    </g>
   </g>
  </g>
 </g>
 <defs>
  <clipPath id="p18663571d4">
   <rect x="37.745313" y="7.2" width="245.52" height="243.936"/>
  </clipPath>
 </defs>
</svg>
