<?xml version="1.0" encoding="utf-8" standalone="no"?>
<!DOCTYPE svg PUBLIC "-//W3C//DTD SVG 1.1//EN"
  "http://www.w3.org/Graphics/SVG/1.1/DTD/svg11.dtd">
<svg xmlns:xlink="http://www.w3.org/1999/xlink" width="432pt" height="288pt" viewBox="0 0 432 288" xmlns="http://www.w3.org/2000/svg" version="1.1">
 <metadata>
  <rdf:RDF xmlns:dc="http://purl.org/dc/elements/1.1/" xmlns:cc="http://creativecommons.org/ns#" xmlns:rdf="http://www.w3.org/1999/02/22-rdf-syntax-ns#">
   <cc:Work>
    <dc:type rdf:resource="http://purl.org/dc/dcmitype/StillImage"/>
    <dc:date>2024-03-04T21:09:36.208673</dc:date>
    <dc:format>image/svg+xml</dc:format>
    <dc:creator>
     <cc:Agent>
      <dc:title>Matplotlib v3.8.1, https://matplotlib.org/</dc:title>
     </cc:Agent>
    </dc:creator>
   </cc:Work>
  </rdf:RDF>
 </metadata>
 <defs>
  <style type="text/css">*{stroke-linejoin: round; stroke-linecap: butt}</style>
 </defs>
 <g id="figure_1">
  <g id="patch_1">
   <path d="M 0 288 
L 432 288 
L 432 0 
L 0 0 
z
" style="fill: #ffffff"/>
  </g>
  <g id="axes_1">
   <g id="patch_2">
    <path d="M 41.565 250.98 
L 215.440952 250.98 
L 215.440952 10.8 
L 41.565 10.8 
z
" style="fill: #eaeaf2"/>
   </g>
   <g id="matplotlib.axis_1">
    <g id="xtick_1">
     <g id="line2d_1">
      <path d="M 49.468452 250.98 
L 49.468452 10.8 
" clip-path="url(#p5ef93ed980)" style="fill: none; stroke: #ffffff; stroke-width: 0.8; stroke-linecap: round"/>
     </g>
     <g id="line2d_2"/>
     <g id="text_1">
      <!-- 0.00 -->
      <g style="fill: #262626" transform="translate(39.737984 261.637812) scale(0.1 -0.1)">
       <defs>
        <path id="ArialMT-30" d="M 266 2259 
Q 266 3072 433 3567 
Q 600 4063 929 4331 
Q 1259 4600 1759 4600 
Q 2128 4600 2406 4451 
Q 2684 4303 2865 4023 
Q 3047 3744 3150 3342 
Q 3253 2941 3253 2259 
Q 3253 1453 3087 958 
Q 2922 463 2592 192 
Q 2263 -78 1759 -78 
Q 1097 -78 719 397 
Q 266 969 266 2259 
z
M 844 2259 
Q 844 1131 1108 757 
Q 1372 384 1759 384 
Q 2147 384 2411 759 
Q 2675 1134 2675 2259 
Q 2675 3391 2411 3762 
Q 2147 4134 1753 4134 
Q 1366 4134 1134 3806 
Q 844 3388 844 2259 
z
" transform="scale(0.015625)"/>
        <path id="ArialMT-2e" d="M 581 0 
L 581 641 
L 1222 641 
L 1222 0 
L 581 0 
z
" transform="scale(0.015625)"/>
       </defs>
       <use xlink:href="#ArialMT-30"/>
       <use xlink:href="#ArialMT-2e" x="55.615234"/>
       <use xlink:href="#ArialMT-30" x="83.398438"/>
       <use xlink:href="#ArialMT-30" x="139.013672"/>
      </g>
     </g>
    </g>
    <g id="xtick_2">
     <g id="line2d_3">
      <path d="M 88.985714 250.98 
L 88.985714 10.8 
" clip-path="url(#p5ef93ed980)" style="fill: none; stroke: #ffffff; stroke-width: 0.8; stroke-linecap: round"/>
     </g>
     <g id="line2d_4"/>
     <g id="text_2">
      <!-- 0.25 -->
      <g style="fill: #262626" transform="translate(79.255246 261.637812) scale(0.1 -0.1)">
       <defs>
        <path id="ArialMT-32" d="M 3222 541 
L 3222 0 
L 194 0 
Q 188 203 259 391 
Q 375 700 629 1000 
Q 884 1300 1366 1694 
Q 2113 2306 2375 2664 
Q 2638 3022 2638 3341 
Q 2638 3675 2398 3904 
Q 2159 4134 1775 4134 
Q 1369 4134 1125 3890 
Q 881 3647 878 3216 
L 300 3275 
Q 359 3922 746 4261 
Q 1134 4600 1788 4600 
Q 2447 4600 2831 4234 
Q 3216 3869 3216 3328 
Q 3216 3053 3103 2787 
Q 2991 2522 2730 2228 
Q 2469 1934 1863 1422 
Q 1356 997 1212 845 
Q 1069 694 975 541 
L 3222 541 
z
" transform="scale(0.015625)"/>
        <path id="ArialMT-35" d="M 266 1200 
L 856 1250 
Q 922 819 1161 601 
Q 1400 384 1738 384 
Q 2144 384 2425 690 
Q 2706 997 2706 1503 
Q 2706 1984 2436 2262 
Q 2166 2541 1728 2541 
Q 1456 2541 1237 2417 
Q 1019 2294 894 2097 
L 366 2166 
L 809 4519 
L 3088 4519 
L 3088 3981 
L 1259 3981 
L 1013 2750 
Q 1425 3038 1878 3038 
Q 2478 3038 2890 2622 
Q 3303 2206 3303 1553 
Q 3303 931 2941 478 
Q 2500 -78 1738 -78 
Q 1113 -78 717 272 
Q 322 622 266 1200 
z
" transform="scale(0.015625)"/>
       </defs>
       <use xlink:href="#ArialMT-30"/>
       <use xlink:href="#ArialMT-2e" x="55.615234"/>
       <use xlink:href="#ArialMT-32" x="83.398438"/>
       <use xlink:href="#ArialMT-35" x="139.013672"/>
      </g>
     </g>
    </g>
    <g id="xtick_3">
     <g id="line2d_5">
      <path d="M 128.502976 250.98 
L 128.502976 10.8 
" clip-path="url(#p5ef93ed980)" style="fill: none; stroke: #ffffff; stroke-width: 0.8; stroke-linecap: round"/>
     </g>
     <g id="line2d_6"/>
     <g id="text_3">
      <!-- 0.50 -->
      <g style="fill: #262626" transform="translate(118.772507 261.637812) scale(0.1 -0.1)">
       <use xlink:href="#ArialMT-30"/>
       <use xlink:href="#ArialMT-2e" x="55.615234"/>
       <use xlink:href="#ArialMT-35" x="83.398438"/>
       <use xlink:href="#ArialMT-30" x="139.013672"/>
      </g>
     </g>
    </g>
    <g id="xtick_4">
     <g id="line2d_7">
      <path d="M 168.020238 250.98 
L 168.020238 10.8 
" clip-path="url(#p5ef93ed980)" style="fill: none; stroke: #ffffff; stroke-width: 0.8; stroke-linecap: round"/>
     </g>
     <g id="line2d_8"/>
     <g id="text_4">
      <!-- 0.75 -->
      <g style="fill: #262626" transform="translate(158.289769 261.637812) scale(0.1 -0.1)">
       <defs>
        <path id="ArialMT-37" d="M 303 3981 
L 303 4522 
L 3269 4522 
L 3269 4084 
Q 2831 3619 2401 2847 
Q 1972 2075 1738 1259 
Q 1569 684 1522 0 
L 944 0 
Q 953 541 1156 1306 
Q 1359 2072 1739 2783 
Q 2119 3494 2547 3981 
L 303 3981 
z
" transform="scale(0.015625)"/>
       </defs>
       <use xlink:href="#ArialMT-30"/>
       <use xlink:href="#ArialMT-2e" x="55.615234"/>
       <use xlink:href="#ArialMT-37" x="83.398438"/>
       <use xlink:href="#ArialMT-35" x="139.013672"/>
      </g>
     </g>
    </g>
    <g id="xtick_5">
     <g id="line2d_9">
      <path d="M 207.5375 250.98 
L 207.5375 10.8 
" clip-path="url(#p5ef93ed980)" style="fill: none; stroke: #ffffff; stroke-width: 0.8; stroke-linecap: round"/>
     </g>
     <g id="line2d_10"/>
     <g id="text_5">
      <!-- 1.00 -->
      <g style="fill: #262626" transform="translate(197.807031 261.637812) scale(0.1 -0.1)">
       <defs>
        <path id="ArialMT-31" d="M 2384 0 
L 1822 0 
L 1822 3584 
Q 1619 3391 1289 3197 
Q 959 3003 697 2906 
L 697 3450 
Q 1169 3672 1522 3987 
Q 1875 4303 2022 4600 
L 2384 4600 
L 2384 0 
z
" transform="scale(0.015625)"/>
       </defs>
       <use xlink:href="#ArialMT-31"/>
       <use xlink:href="#ArialMT-2e" x="55.615234"/>
       <use xlink:href="#ArialMT-30" x="83.398438"/>
       <use xlink:href="#ArialMT-30" x="139.013672"/>
      </g>
     </g>
    </g>
    <g id="text_6">
     <!-- False Positive Rate -->
     <g style="fill: #262626" transform="translate(85.431101 274.783125) scale(0.1 -0.1)">
      <defs>
       <path id="ArialMT-46" d="M 525 0 
L 525 4581 
L 3616 4581 
L 3616 4041 
L 1131 4041 
L 1131 2622 
L 3281 2622 
L 3281 2081 
L 1131 2081 
L 1131 0 
L 525 0 
z
" transform="scale(0.015625)"/>
       <path id="ArialMT-61" d="M 2588 409 
Q 2275 144 1986 34 
Q 1697 -75 1366 -75 
Q 819 -75 525 192 
Q 231 459 231 875 
Q 231 1119 342 1320 
Q 453 1522 633 1644 
Q 813 1766 1038 1828 
Q 1203 1872 1538 1913 
Q 2219 1994 2541 2106 
Q 2544 2222 2544 2253 
Q 2544 2597 2384 2738 
Q 2169 2928 1744 2928 
Q 1347 2928 1158 2789 
Q 969 2650 878 2297 
L 328 2372 
Q 403 2725 575 2942 
Q 747 3159 1072 3276 
Q 1397 3394 1825 3394 
Q 2250 3394 2515 3294 
Q 2781 3194 2906 3042 
Q 3031 2891 3081 2659 
Q 3109 2516 3109 2141 
L 3109 1391 
Q 3109 606 3145 398 
Q 3181 191 3288 0 
L 2700 0 
Q 2613 175 2588 409 
z
M 2541 1666 
Q 2234 1541 1622 1453 
Q 1275 1403 1131 1340 
Q 988 1278 909 1158 
Q 831 1038 831 891 
Q 831 666 1001 516 
Q 1172 366 1500 366 
Q 1825 366 2078 508 
Q 2331 650 2450 897 
Q 2541 1088 2541 1459 
L 2541 1666 
z
" transform="scale(0.015625)"/>
       <path id="ArialMT-6c" d="M 409 0 
L 409 4581 
L 972 4581 
L 972 0 
L 409 0 
z
" transform="scale(0.015625)"/>
       <path id="ArialMT-73" d="M 197 991 
L 753 1078 
Q 800 744 1014 566 
Q 1228 388 1613 388 
Q 2000 388 2187 545 
Q 2375 703 2375 916 
Q 2375 1106 2209 1216 
Q 2094 1291 1634 1406 
Q 1016 1563 777 1677 
Q 538 1791 414 1992 
Q 291 2194 291 2438 
Q 291 2659 392 2848 
Q 494 3038 669 3163 
Q 800 3259 1026 3326 
Q 1253 3394 1513 3394 
Q 1903 3394 2198 3281 
Q 2494 3169 2634 2976 
Q 2775 2784 2828 2463 
L 2278 2388 
Q 2241 2644 2061 2787 
Q 1881 2931 1553 2931 
Q 1166 2931 1000 2803 
Q 834 2675 834 2503 
Q 834 2394 903 2306 
Q 972 2216 1119 2156 
Q 1203 2125 1616 2013 
Q 2213 1853 2448 1751 
Q 2684 1650 2818 1456 
Q 2953 1263 2953 975 
Q 2953 694 2789 445 
Q 2625 197 2315 61 
Q 2006 -75 1616 -75 
Q 969 -75 630 194 
Q 291 463 197 991 
z
" transform="scale(0.015625)"/>
       <path id="ArialMT-65" d="M 2694 1069 
L 3275 997 
Q 3138 488 2766 206 
Q 2394 -75 1816 -75 
Q 1088 -75 661 373 
Q 234 822 234 1631 
Q 234 2469 665 2931 
Q 1097 3394 1784 3394 
Q 2450 3394 2872 2941 
Q 3294 2488 3294 1666 
Q 3294 1616 3291 1516 
L 816 1516 
Q 847 969 1125 678 
Q 1403 388 1819 388 
Q 2128 388 2347 550 
Q 2566 713 2694 1069 
z
M 847 1978 
L 2700 1978 
Q 2663 2397 2488 2606 
Q 2219 2931 1791 2931 
Q 1403 2931 1139 2672 
Q 875 2413 847 1978 
z
" transform="scale(0.015625)"/>
       <path id="ArialMT-20" transform="scale(0.015625)"/>
       <path id="ArialMT-50" d="M 494 0 
L 494 4581 
L 2222 4581 
Q 2678 4581 2919 4538 
Q 3256 4481 3484 4323 
Q 3713 4166 3852 3881 
Q 3991 3597 3991 3256 
Q 3991 2672 3619 2267 
Q 3247 1863 2275 1863 
L 1100 1863 
L 1100 0 
L 494 0 
z
M 1100 2403 
L 2284 2403 
Q 2872 2403 3119 2622 
Q 3366 2841 3366 3238 
Q 3366 3525 3220 3729 
Q 3075 3934 2838 4000 
Q 2684 4041 2272 4041 
L 1100 4041 
L 1100 2403 
z
" transform="scale(0.015625)"/>
       <path id="ArialMT-6f" d="M 213 1659 
Q 213 2581 725 3025 
Q 1153 3394 1769 3394 
Q 2453 3394 2887 2945 
Q 3322 2497 3322 1706 
Q 3322 1066 3130 698 
Q 2938 331 2570 128 
Q 2203 -75 1769 -75 
Q 1072 -75 642 372 
Q 213 819 213 1659 
z
M 791 1659 
Q 791 1022 1069 705 
Q 1347 388 1769 388 
Q 2188 388 2466 706 
Q 2744 1025 2744 1678 
Q 2744 2294 2464 2611 
Q 2184 2928 1769 2928 
Q 1347 2928 1069 2612 
Q 791 2297 791 1659 
z
" transform="scale(0.015625)"/>
       <path id="ArialMT-69" d="M 425 3934 
L 425 4581 
L 988 4581 
L 988 3934 
L 425 3934 
z
M 425 0 
L 425 3319 
L 988 3319 
L 988 0 
L 425 0 
z
" transform="scale(0.015625)"/>
       <path id="ArialMT-74" d="M 1650 503 
L 1731 6 
Q 1494 -44 1306 -44 
Q 1000 -44 831 53 
Q 663 150 594 308 
Q 525 466 525 972 
L 525 2881 
L 113 2881 
L 113 3319 
L 525 3319 
L 525 4141 
L 1084 4478 
L 1084 3319 
L 1650 3319 
L 1650 2881 
L 1084 2881 
L 1084 941 
Q 1084 700 1114 631 
Q 1144 563 1211 522 
Q 1278 481 1403 481 
Q 1497 481 1650 503 
z
" transform="scale(0.015625)"/>
       <path id="ArialMT-76" d="M 1344 0 
L 81 3319 
L 675 3319 
L 1388 1331 
Q 1503 1009 1600 663 
Q 1675 925 1809 1294 
L 2547 3319 
L 3125 3319 
L 1869 0 
L 1344 0 
z
" transform="scale(0.015625)"/>
       <path id="ArialMT-52" d="M 503 0 
L 503 4581 
L 2534 4581 
Q 3147 4581 3465 4457 
Q 3784 4334 3975 4021 
Q 4166 3709 4166 3331 
Q 4166 2844 3850 2509 
Q 3534 2175 2875 2084 
Q 3116 1969 3241 1856 
Q 3506 1613 3744 1247 
L 4541 0 
L 3778 0 
L 3172 953 
Q 2906 1366 2734 1584 
Q 2563 1803 2427 1890 
Q 2291 1978 2150 2013 
Q 2047 2034 1813 2034 
L 1109 2034 
L 1109 0 
L 503 0 
z
M 1109 2559 
L 2413 2559 
Q 2828 2559 3062 2645 
Q 3297 2731 3419 2920 
Q 3541 3109 3541 3331 
Q 3541 3656 3305 3865 
Q 3069 4075 2559 4075 
L 1109 4075 
L 1109 2559 
z
" transform="scale(0.015625)"/>
      </defs>
      <use xlink:href="#ArialMT-46"/>
      <use xlink:href="#ArialMT-61" x="61.083984"/>
      <use xlink:href="#ArialMT-6c" x="116.699219"/>
      <use xlink:href="#ArialMT-73" x="138.916016"/>
      <use xlink:href="#ArialMT-65" x="188.916016"/>
      <use xlink:href="#ArialMT-20" x="244.53125"/>
      <use xlink:href="#ArialMT-50" x="272.314453"/>
      <use xlink:href="#ArialMT-6f" x="339.013672"/>
      <use xlink:href="#ArialMT-73" x="394.628906"/>
      <use xlink:href="#ArialMT-69" x="444.628906"/>
      <use xlink:href="#ArialMT-74" x="466.845703"/>
      <use xlink:href="#ArialMT-69" x="494.628906"/>
      <use xlink:href="#ArialMT-76" x="516.845703"/>
      <use xlink:href="#ArialMT-65" x="566.845703"/>
      <use xlink:href="#ArialMT-20" x="622.460938"/>
      <use xlink:href="#ArialMT-52" x="650.244141"/>
      <use xlink:href="#ArialMT-61" x="722.460938"/>
      <use xlink:href="#ArialMT-74" x="778.076172"/>
      <use xlink:href="#ArialMT-65" x="805.859375"/>
     </g>
    </g>
   </g>
   <g id="matplotlib.axis_2">
    <g id="ytick_1">
     <g id="line2d_11">
      <path d="M 41.565 240.062727 
L 215.440952 240.062727 
" clip-path="url(#p5ef93ed980)" style="fill: none; stroke: #ffffff; stroke-width: 0.8; stroke-linecap: round"/>
     </g>
     <g id="line2d_12"/>
     <g id="text_7">
      <!-- 0.0 -->
      <g style="fill: #262626" transform="translate(24.165 243.641634) scale(0.1 -0.1)">
       <use xlink:href="#ArialMT-30"/>
       <use xlink:href="#ArialMT-2e" x="55.615234"/>
       <use xlink:href="#ArialMT-30" x="83.398438"/>
      </g>
     </g>
    </g>
    <g id="ytick_2">
     <g id="line2d_13">
      <path d="M 41.565 196.393636 
L 215.440952 196.393636 
" clip-path="url(#p5ef93ed980)" style="fill: none; stroke: #ffffff; stroke-width: 0.8; stroke-linecap: round"/>
     </g>
     <g id="line2d_14"/>
     <g id="text_8">
      <!-- 0.2 -->
      <g style="fill: #262626" transform="translate(24.165 199.972543) scale(0.1 -0.1)">
       <use xlink:href="#ArialMT-30"/>
       <use xlink:href="#ArialMT-2e" x="55.615234"/>
       <use xlink:href="#ArialMT-32" x="83.398438"/>
      </g>
     </g>
    </g>
    <g id="ytick_3">
     <g id="line2d_15">
      <path d="M 41.565 152.724545 
L 215.440952 152.724545 
" clip-path="url(#p5ef93ed980)" style="fill: none; stroke: #ffffff; stroke-width: 0.8; stroke-linecap: round"/>
     </g>
     <g id="line2d_16"/>
     <g id="text_9">
      <!-- 0.4 -->
      <g style="fill: #262626" transform="translate(24.165 156.303452) scale(0.1 -0.1)">
       <defs>
        <path id="ArialMT-34" d="M 2069 0 
L 2069 1097 
L 81 1097 
L 81 1613 
L 2172 4581 
L 2631 4581 
L 2631 1613 
L 3250 1613 
L 3250 1097 
L 2631 1097 
L 2631 0 
L 2069 0 
z
M 2069 1613 
L 2069 3678 
L 634 1613 
L 2069 1613 
z
" transform="scale(0.015625)"/>
       </defs>
       <use xlink:href="#ArialMT-30"/>
       <use xlink:href="#ArialMT-2e" x="55.615234"/>
       <use xlink:href="#ArialMT-34" x="83.398438"/>
      </g>
     </g>
    </g>
    <g id="ytick_4">
     <g id="line2d_17">
      <path d="M 41.565 109.055455 
L 215.440952 109.055455 
" clip-path="url(#p5ef93ed980)" style="fill: none; stroke: #ffffff; stroke-width: 0.8; stroke-linecap: round"/>
     </g>
     <g id="line2d_18"/>
     <g id="text_10">
      <!-- 0.6 -->
      <g style="fill: #262626" transform="translate(24.165 112.634361) scale(0.1 -0.1)">
       <defs>
        <path id="ArialMT-36" d="M 3184 3459 
L 2625 3416 
Q 2550 3747 2413 3897 
Q 2184 4138 1850 4138 
Q 1581 4138 1378 3988 
Q 1113 3794 959 3422 
Q 806 3050 800 2363 
Q 1003 2672 1297 2822 
Q 1591 2972 1913 2972 
Q 2475 2972 2870 2558 
Q 3266 2144 3266 1488 
Q 3266 1056 3080 686 
Q 2894 316 2569 119 
Q 2244 -78 1831 -78 
Q 1128 -78 684 439 
Q 241 956 241 2144 
Q 241 3472 731 4075 
Q 1159 4600 1884 4600 
Q 2425 4600 2770 4297 
Q 3116 3994 3184 3459 
z
M 888 1484 
Q 888 1194 1011 928 
Q 1134 663 1356 523 
Q 1578 384 1822 384 
Q 2178 384 2434 671 
Q 2691 959 2691 1453 
Q 2691 1928 2437 2201 
Q 2184 2475 1800 2475 
Q 1419 2475 1153 2201 
Q 888 1928 888 1484 
z
" transform="scale(0.015625)"/>
       </defs>
       <use xlink:href="#ArialMT-30"/>
       <use xlink:href="#ArialMT-2e" x="55.615234"/>
       <use xlink:href="#ArialMT-36" x="83.398438"/>
      </g>
     </g>
    </g>
    <g id="ytick_5">
     <g id="line2d_19">
      <path d="M 41.565 65.386364 
L 215.440952 65.386364 
" clip-path="url(#p5ef93ed980)" style="fill: none; stroke: #ffffff; stroke-width: 0.8; stroke-linecap: round"/>
     </g>
     <g id="line2d_20"/>
     <g id="text_11">
      <!-- 0.8 -->
      <g style="fill: #262626" transform="translate(24.165 68.96527) scale(0.1 -0.1)">
       <defs>
        <path id="ArialMT-38" d="M 1131 2484 
Q 781 2613 612 2850 
Q 444 3088 444 3419 
Q 444 3919 803 4259 
Q 1163 4600 1759 4600 
Q 2359 4600 2725 4251 
Q 3091 3903 3091 3403 
Q 3091 3084 2923 2848 
Q 2756 2613 2416 2484 
Q 2838 2347 3058 2040 
Q 3278 1734 3278 1309 
Q 3278 722 2862 322 
Q 2447 -78 1769 -78 
Q 1091 -78 675 323 
Q 259 725 259 1325 
Q 259 1772 486 2073 
Q 713 2375 1131 2484 
z
M 1019 3438 
Q 1019 3113 1228 2906 
Q 1438 2700 1772 2700 
Q 2097 2700 2305 2904 
Q 2513 3109 2513 3406 
Q 2513 3716 2298 3927 
Q 2084 4138 1766 4138 
Q 1444 4138 1231 3931 
Q 1019 3725 1019 3438 
z
M 838 1322 
Q 838 1081 952 856 
Q 1066 631 1291 507 
Q 1516 384 1775 384 
Q 2178 384 2440 643 
Q 2703 903 2703 1303 
Q 2703 1709 2433 1975 
Q 2163 2241 1756 2241 
Q 1359 2241 1098 1978 
Q 838 1716 838 1322 
z
" transform="scale(0.015625)"/>
       </defs>
       <use xlink:href="#ArialMT-30"/>
       <use xlink:href="#ArialMT-2e" x="55.615234"/>
       <use xlink:href="#ArialMT-38" x="83.398438"/>
      </g>
     </g>
    </g>
    <g id="ytick_6">
     <g id="line2d_21">
      <path d="M 41.565 21.717273 
L 215.440952 21.717273 
" clip-path="url(#p5ef93ed980)" style="fill: none; stroke: #ffffff; stroke-width: 0.8; stroke-linecap: round"/>
     </g>
     <g id="line2d_22"/>
     <g id="text_12">
      <!-- 1.0 -->
      <g style="fill: #262626" transform="translate(24.165 25.296179) scale(0.1 -0.1)">
       <use xlink:href="#ArialMT-31"/>
       <use xlink:href="#ArialMT-2e" x="55.615234"/>
       <use xlink:href="#ArialMT-30" x="83.398438"/>
      </g>
     </g>
    </g>
    <g id="text_13">
     <!-- True Positive Rate -->
     <g style="fill: #262626" transform="translate(18.1775 171.828281) rotate(-90) scale(0.1 -0.1)">
      <defs>
       <path id="ArialMT-54" d="M 1659 0 
L 1659 4041 
L 150 4041 
L 150 4581 
L 3781 4581 
L 3781 4041 
L 2266 4041 
L 2266 0 
L 1659 0 
z
" transform="scale(0.015625)"/>
       <path id="ArialMT-72" d="M 416 0 
L 416 3319 
L 922 3319 
L 922 2816 
Q 1116 3169 1280 3281 
Q 1444 3394 1641 3394 
Q 1925 3394 2219 3213 
L 2025 2691 
Q 1819 2813 1613 2813 
Q 1428 2813 1281 2702 
Q 1134 2591 1072 2394 
Q 978 2094 978 1738 
L 978 0 
L 416 0 
z
" transform="scale(0.015625)"/>
       <path id="ArialMT-75" d="M 2597 0 
L 2597 488 
Q 2209 -75 1544 -75 
Q 1250 -75 995 37 
Q 741 150 617 320 
Q 494 491 444 738 
Q 409 903 409 1263 
L 409 3319 
L 972 3319 
L 972 1478 
Q 972 1038 1006 884 
Q 1059 663 1231 536 
Q 1403 409 1656 409 
Q 1909 409 2131 539 
Q 2353 669 2445 892 
Q 2538 1116 2538 1541 
L 2538 3319 
L 3100 3319 
L 3100 0 
L 2597 0 
z
" transform="scale(0.015625)"/>
      </defs>
      <use xlink:href="#ArialMT-54"/>
      <use xlink:href="#ArialMT-72" x="57.333984"/>
      <use xlink:href="#ArialMT-75" x="90.634766"/>
      <use xlink:href="#ArialMT-65" x="146.25"/>
      <use xlink:href="#ArialMT-20" x="201.865234"/>
      <use xlink:href="#ArialMT-50" x="229.648438"/>
      <use xlink:href="#ArialMT-6f" x="296.347656"/>
      <use xlink:href="#ArialMT-73" x="351.962891"/>
      <use xlink:href="#ArialMT-69" x="401.962891"/>
      <use xlink:href="#ArialMT-74" x="424.179688"/>
      <use xlink:href="#ArialMT-69" x="451.962891"/>
      <use xlink:href="#ArialMT-76" x="474.179688"/>
      <use xlink:href="#ArialMT-65" x="524.179688"/>
      <use xlink:href="#ArialMT-20" x="579.794922"/>
      <use xlink:href="#ArialMT-52" x="607.578125"/>
      <use xlink:href="#ArialMT-61" x="679.794922"/>
      <use xlink:href="#ArialMT-74" x="735.410156"/>
      <use xlink:href="#ArialMT-65" x="763.193359"/>
     </g>
    </g>
   </g>
   <g id="line2d_23">
    <path d="M 49.468452 240.062727 
L 49.468452 233.824286 
L 49.468452 202.632078 
L 57.787876 202.632078 
L 57.787876 165.201429 
L 66.1073 165.201429 
L 66.1073 127.770779 
L 82.746147 127.770779 
L 82.746147 96.578571 
L 91.06557 96.578571 
L 91.06557 90.34013 
L 99.384994 90.34013 
L 99.384994 52.909481 
L 107.704417 52.909481 
L 107.704417 46.671039 
L 124.343264 46.671039 
L 124.343264 40.432597 
L 132.662688 40.432597 
L 132.662688 34.194156 
L 182.579229 34.194156 
L 182.579229 27.955714 
L 207.5375 27.955714 
L 207.5375 21.717273 
" clip-path="url(#p5ef93ed980)" style="fill: none; stroke: #03d0c7; stroke-width: 1.5; stroke-linecap: round"/>
   </g>
   <g id="line2d_24">
    <path d="M 49.468452 240.062727 
L 207.5375 21.717273 
" clip-path="url(#p5ef93ed980)" style="fill: none; stroke-dasharray: 5.55,2.4; stroke-dashoffset: 0; stroke: #bf00bf; stroke-width: 1.5"/>
   </g>
   <g id="line2d_25">
    <path d="M 49.468452 240.062727 
L 49.468452 233.824286 
L 49.468452 165.201429 
L 57.787876 165.201429 
L 57.787876 158.962987 
L 74.426723 158.962987 
L 74.426723 134.009221 
L 82.746147 134.009221 
L 82.746147 102.817013 
L 91.06557 102.817013 
L 91.06557 96.578571 
L 99.384994 96.578571 
L 99.384994 90.34013 
L 132.662688 90.34013 
L 132.662688 84.101688 
L 157.620959 84.101688 
L 157.620959 59.147922 
L 182.579229 59.147922 
L 182.579229 34.194156 
L 190.898653 34.194156 
L 190.898653 21.717273 
L 207.5375 21.717273 
" clip-path="url(#p5ef93ed980)" style="fill: none; stroke: #e00b5a; stroke-width: 1.5; stroke-linecap: round"/>
   </g>
   <g id="line2d_26">
    <path d="M 49.468452 240.062727 
L 207.5375 21.717273 
" clip-path="url(#p5ef93ed980)" style="fill: none; stroke-dasharray: 5.55,2.4; stroke-dashoffset: 0; stroke: #bf00bf; stroke-width: 1.5"/>
   </g>
   <g id="line2d_27">
    <path d="M 49.468452 240.062727 
L 49.468452 233.824286 
L 49.468452 171.43987 
L 57.787876 171.43987 
L 57.787876 96.578571 
L 66.1073 96.578571 
L 66.1073 52.909481 
L 74.426723 52.909481 
L 74.426723 46.671039 
L 124.343264 46.671039 
L 124.343264 40.432597 
L 140.982112 40.432597 
L 140.982112 34.194156 
L 174.259806 34.194156 
L 174.259806 27.955714 
L 190.898653 27.955714 
L 190.898653 21.717273 
L 207.5375 21.717273 
" clip-path="url(#p5ef93ed980)" style="fill: none; stroke: #b614bb; stroke-width: 1.5; stroke-linecap: round"/>
   </g>
   <g id="line2d_28">
    <path d="M 49.468452 240.062727 
L 207.5375 21.717273 
" clip-path="url(#p5ef93ed980)" style="fill: none; stroke-dasharray: 5.55,2.4; stroke-dashoffset: 0; stroke: #bf00bf; stroke-width: 1.5"/>
   </g>
   <g id="line2d_29">
    <path d="M 49.468452 240.062727 
L 49.468452 233.824286 
L 49.468452 208.870519 
L 57.787876 208.870519 
L 57.787876 115.293896 
L 66.1073 115.293896 
L 66.1073 109.055455 
L 82.746147 109.055455 
L 82.746147 90.34013 
L 116.023841 90.34013 
L 116.023841 59.147922 
L 124.343264 59.147922 
L 124.343264 52.909481 
L 157.620959 52.909481 
L 157.620959 40.432597 
L 165.940382 40.432597 
L 165.940382 34.194156 
L 174.259806 34.194156 
L 174.259806 27.955714 
L 182.579229 27.955714 
L 182.579229 21.717273 
L 207.5375 21.717273 
" clip-path="url(#p5ef93ed980)" style="fill: none; stroke: #6d5aef; stroke-width: 1.5; stroke-linecap: round"/>
   </g>
   <g id="line2d_30">
    <path d="M 49.468452 240.062727 
L 207.5375 21.717273 
" clip-path="url(#p5ef93ed980)" style="fill: none; stroke-dasharray: 5.55,2.4; stroke-dashoffset: 0; stroke: #bf00bf; stroke-width: 1.5"/>
   </g>
   <g id="patch_3">
    <path d="M 41.565 250.98 
L 41.565 10.8 
" style="fill: none"/>
   </g>
   <g id="patch_4">
    <path d="M 215.440952 250.98 
L 215.440952 10.8 
" style="fill: none"/>
   </g>
   <g id="patch_5">
    <path d="M 41.565 250.98 
L 215.440952 250.98 
" style="fill: none"/>
   </g>
   <g id="patch_6">
    <path d="M 41.565 10.8 
L 215.440952 10.8 
" style="fill: none"/>
   </g>
   <g id="legend_1">
    <g id="line2d_31">
     <path d="M 108.978609 211.0275 
L 115.978609 211.0275 
L 122.978609 211.0275 
" style="fill: none; stroke: #03d0c7; stroke-width: 1.5; stroke-linecap: round"/>
    </g>
    <g id="text_14">
     <!-- SVM (AUROC=0.7895) -->
     <g style="fill: #262626" transform="translate(128.578609 213.4775) scale(0.07 -0.07)">
      <defs>
       <path id="TimesNewRomanPSMT-53" d="M 2934 4334 
L 2934 2869 
L 2819 2869 
Q 2763 3291 2617 3541 
Q 2472 3791 2203 3937 
Q 1934 4084 1647 4084 
Q 1322 4084 1109 3886 
Q 897 3688 897 3434 
Q 897 3241 1031 3081 
Q 1225 2847 1953 2456 
Q 2547 2138 2764 1967 
Q 2981 1797 3098 1565 
Q 3216 1334 3216 1081 
Q 3216 600 2842 251 
Q 2469 -97 1881 -97 
Q 1697 -97 1534 -69 
Q 1438 -53 1133 45 
Q 828 144 747 144 
Q 669 144 623 97 
Q 578 50 556 -97 
L 441 -97 
L 441 1356 
L 556 1356 
Q 638 900 775 673 
Q 913 447 1195 297 
Q 1478 147 1816 147 
Q 2206 147 2432 353 
Q 2659 559 2659 841 
Q 2659 997 2573 1156 
Q 2488 1316 2306 1453 
Q 2184 1547 1640 1851 
Q 1097 2156 867 2337 
Q 638 2519 519 2737 
Q 400 2956 400 3219 
Q 400 3675 750 4004 
Q 1100 4334 1641 4334 
Q 1978 4334 2356 4169 
Q 2531 4091 2603 4091 
Q 2684 4091 2736 4139 
Q 2788 4188 2819 4334 
L 2934 4334 
z
" transform="scale(0.015625)"/>
       <path id="TimesNewRomanPSMT-56" d="M 4544 4238 
L 4544 4122 
Q 4319 4081 4203 3978 
Q 4038 3825 3909 3509 
L 2431 -97 
L 2316 -97 
L 728 3556 
Q 606 3838 556 3900 
Q 478 3997 364 4051 
Q 250 4106 56 4122 
L 56 4238 
L 1788 4238 
L 1788 4122 
Q 1494 4094 1406 4022 
Q 1319 3950 1319 3838 
Q 1319 3681 1463 3350 
L 2541 866 
L 3541 3319 
Q 3688 3681 3688 3822 
Q 3688 3913 3597 3995 
Q 3506 4078 3291 4113 
Q 3275 4116 3238 4122 
L 3238 4238 
L 4544 4238 
z
" transform="scale(0.015625)"/>
       <path id="TimesNewRomanPSMT-4d" d="M 2619 0 
L 981 3566 
L 981 734 
Q 981 344 1066 247 
Q 1181 116 1431 116 
L 1581 116 
L 1581 0 
L 106 0 
L 106 116 
L 256 116 
Q 525 116 638 278 
Q 706 378 706 734 
L 706 3503 
Q 706 3784 644 3909 
Q 600 4000 483 4061 
Q 366 4122 106 4122 
L 106 4238 
L 1306 4238 
L 2844 922 
L 4356 4238 
L 5556 4238 
L 5556 4122 
L 5409 4122 
Q 5138 4122 5025 3959 
Q 4956 3859 4956 3503 
L 4956 734 
Q 4956 344 5044 247 
Q 5159 116 5409 116 
L 5556 116 
L 5556 0 
L 3756 0 
L 3756 116 
L 3906 116 
Q 4178 116 4288 278 
Q 4356 378 4356 734 
L 4356 3566 
L 2722 0 
L 2619 0 
z
" transform="scale(0.015625)"/>
       <path id="TimesNewRomanPSMT-20" transform="scale(0.015625)"/>
       <path id="TimesNewRomanPSMT-28" d="M 1988 -1253 
L 1988 -1369 
Q 1516 -1131 1200 -813 
Q 750 -359 506 256 
Q 263 872 263 1534 
Q 263 2503 741 3301 
Q 1219 4100 1988 4444 
L 1988 4313 
Q 1603 4100 1356 3731 
Q 1109 3363 987 2797 
Q 866 2231 866 1616 
Q 866 947 969 400 
Q 1050 -31 1165 -292 
Q 1281 -553 1476 -793 
Q 1672 -1034 1988 -1253 
z
" transform="scale(0.015625)"/>
       <path id="TimesNewRomanPSMT-41" d="M 2928 1419 
L 1288 1419 
L 1000 750 
Q 894 503 894 381 
Q 894 284 986 211 
Q 1078 138 1384 116 
L 1384 0 
L 50 0 
L 50 116 
Q 316 163 394 238 
Q 553 388 747 847 
L 2238 4334 
L 2347 4334 
L 3822 809 
Q 4000 384 4145 257 
Q 4291 131 4550 116 
L 4550 0 
L 2878 0 
L 2878 116 
Q 3131 128 3220 200 
Q 3309 272 3309 375 
Q 3309 513 3184 809 
L 2928 1419 
z
M 2841 1650 
L 2122 3363 
L 1384 1650 
L 2841 1650 
z
" transform="scale(0.015625)"/>
       <path id="TimesNewRomanPSMT-55" d="M 3053 4122 
L 3053 4238 
L 4553 4238 
L 4553 4122 
L 4394 4122 
Q 4144 4122 4009 3913 
Q 3944 3816 3944 3463 
L 3944 1744 
Q 3944 1106 3817 754 
Q 3691 403 3320 151 
Q 2950 -100 2313 -100 
Q 1619 -100 1259 140 
Q 900 381 750 788 
Q 650 1066 650 1831 
L 650 3488 
Q 650 3878 542 4000 
Q 434 4122 194 4122 
L 34 4122 
L 34 4238 
L 1866 4238 
L 1866 4122 
L 1703 4122 
Q 1441 4122 1328 3956 
Q 1250 3844 1250 3488 
L 1250 1641 
Q 1250 1394 1295 1075 
Q 1341 756 1459 578 
Q 1578 400 1801 284 
Q 2025 169 2350 169 
Q 2766 169 3094 350 
Q 3422 531 3542 814 
Q 3663 1097 3663 1772 
L 3663 3488 
Q 3663 3884 3575 3984 
Q 3453 4122 3213 4122 
L 3053 4122 
z
" transform="scale(0.015625)"/>
       <path id="TimesNewRomanPSMT-52" d="M 4325 0 
L 3194 0 
L 1759 1981 
Q 1600 1975 1500 1975 
Q 1459 1975 1412 1976 
Q 1366 1978 1316 1981 
L 1316 750 
Q 1316 350 1403 253 
Q 1522 116 1759 116 
L 1925 116 
L 1925 0 
L 109 0 
L 109 116 
L 269 116 
Q 538 116 653 291 
Q 719 388 719 750 
L 719 3488 
Q 719 3888 631 3984 
Q 509 4122 269 4122 
L 109 4122 
L 109 4238 
L 1653 4238 
Q 2328 4238 2648 4139 
Q 2969 4041 3192 3777 
Q 3416 3513 3416 3147 
Q 3416 2756 3161 2468 
Q 2906 2181 2372 2063 
L 3247 847 
Q 3547 428 3762 290 
Q 3978 153 4325 116 
L 4325 0 
z
M 1316 2178 
Q 1375 2178 1419 2176 
Q 1463 2175 1491 2175 
Q 2097 2175 2405 2437 
Q 2713 2700 2713 3106 
Q 2713 3503 2464 3751 
Q 2216 4000 1806 4000 
Q 1625 4000 1316 3941 
L 1316 2178 
z
" transform="scale(0.015625)"/>
       <path id="TimesNewRomanPSMT-4f" d="M 2341 4334 
Q 3166 4334 3770 3707 
Q 4375 3081 4375 2144 
Q 4375 1178 3765 540 
Q 3156 -97 2291 -97 
Q 1416 -97 820 525 
Q 225 1147 225 2134 
Q 225 3144 913 3781 
Q 1509 4334 2341 4334 
z
M 2281 4106 
Q 1713 4106 1369 3684 
Q 941 3159 941 2147 
Q 941 1109 1384 550 
Q 1725 125 2284 125 
Q 2881 125 3270 590 
Q 3659 1056 3659 2059 
Q 3659 3147 3231 3681 
Q 2888 4106 2281 4106 
z
" transform="scale(0.015625)"/>
       <path id="TimesNewRomanPSMT-43" d="M 3853 4334 
L 3950 2894 
L 3853 2894 
Q 3659 3541 3300 3825 
Q 2941 4109 2438 4109 
Q 2016 4109 1675 3895 
Q 1334 3681 1139 3212 
Q 944 2744 944 2047 
Q 944 1472 1128 1050 
Q 1313 628 1683 403 
Q 2053 178 2528 178 
Q 2941 178 3256 354 
Q 3572 531 3950 1056 
L 4047 994 
Q 3728 428 3303 165 
Q 2878 -97 2294 -97 
Q 1241 -97 663 684 
Q 231 1266 231 2053 
Q 231 2688 515 3219 
Q 800 3750 1298 4042 
Q 1797 4334 2388 4334 
Q 2847 4334 3294 4109 
Q 3425 4041 3481 4041 
Q 3566 4041 3628 4100 
Q 3709 4184 3744 4334 
L 3853 4334 
z
" transform="scale(0.015625)"/>
       <path id="TimesNewRomanPSMT-3d" d="M 116 2759 
L 3488 2759 
L 3488 2503 
L 116 2503 
L 116 2759 
z
M 116 1741 
L 3488 1741 
L 3488 1484 
L 116 1484 
L 116 1741 
z
" transform="scale(0.015625)"/>
       <path id="TimesNewRomanPSMT-30" d="M 231 2094 
Q 231 2819 450 3342 
Q 669 3866 1031 4122 
Q 1313 4325 1613 4325 
Q 2100 4325 2488 3828 
Q 2972 3213 2972 2159 
Q 2972 1422 2759 906 
Q 2547 391 2217 158 
Q 1888 -75 1581 -75 
Q 975 -75 572 641 
Q 231 1244 231 2094 
z
M 844 2016 
Q 844 1141 1059 588 
Q 1238 122 1591 122 
Q 1759 122 1940 273 
Q 2122 425 2216 781 
Q 2359 1319 2359 2297 
Q 2359 3022 2209 3506 
Q 2097 3866 1919 4016 
Q 1791 4119 1609 4119 
Q 1397 4119 1231 3928 
Q 1006 3669 925 3112 
Q 844 2556 844 2016 
z
" transform="scale(0.015625)"/>
       <path id="TimesNewRomanPSMT-2e" d="M 800 606 
Q 947 606 1047 504 
Q 1147 403 1147 259 
Q 1147 116 1045 14 
Q 944 -88 800 -88 
Q 656 -88 554 14 
Q 453 116 453 259 
Q 453 406 554 506 
Q 656 606 800 606 
z
" transform="scale(0.015625)"/>
       <path id="TimesNewRomanPSMT-37" d="M 644 4238 
L 2916 4238 
L 2916 4119 
L 1503 -88 
L 1153 -88 
L 2419 3728 
L 1253 3728 
Q 900 3728 750 3644 
Q 488 3500 328 3200 
L 238 3234 
L 644 4238 
z
" transform="scale(0.015625)"/>
       <path id="TimesNewRomanPSMT-38" d="M 1228 2134 
Q 725 2547 579 2797 
Q 434 3047 434 3316 
Q 434 3728 753 4026 
Q 1072 4325 1600 4325 
Q 2113 4325 2425 4047 
Q 2738 3769 2738 3413 
Q 2738 3175 2569 2928 
Q 2400 2681 1866 2347 
Q 2416 1922 2594 1678 
Q 2831 1359 2831 1006 
Q 2831 559 2490 242 
Q 2150 -75 1597 -75 
Q 994 -75 656 303 
Q 388 606 388 966 
Q 388 1247 577 1523 
Q 766 1800 1228 2134 
z
M 1719 2469 
Q 2094 2806 2194 3001 
Q 2294 3197 2294 3444 
Q 2294 3772 2109 3958 
Q 1925 4144 1606 4144 
Q 1288 4144 1088 3959 
Q 888 3775 888 3528 
Q 888 3366 970 3203 
Q 1053 3041 1206 2894 
L 1719 2469 
z
M 1375 2016 
Q 1116 1797 991 1539 
Q 866 1281 866 981 
Q 866 578 1086 336 
Q 1306 94 1647 94 
Q 1984 94 2187 284 
Q 2391 475 2391 747 
Q 2391 972 2272 1150 
Q 2050 1481 1375 2016 
z
" transform="scale(0.015625)"/>
       <path id="TimesNewRomanPSMT-39" d="M 338 -88 
L 338 28 
Q 744 34 1094 217 
Q 1444 400 1770 856 
Q 2097 1313 2225 1859 
Q 1734 1544 1338 1544 
Q 891 1544 572 1889 
Q 253 2234 253 2806 
Q 253 3363 572 3797 
Q 956 4325 1575 4325 
Q 2097 4325 2469 3894 
Q 2925 3359 2925 2575 
Q 2925 1869 2578 1258 
Q 2231 647 1613 244 
Q 1109 -88 516 -88 
L 338 -88 
z
M 2275 2091 
Q 2331 2497 2331 2741 
Q 2331 3044 2228 3395 
Q 2125 3747 1936 3934 
Q 1747 4122 1506 4122 
Q 1228 4122 1018 3872 
Q 809 3622 809 3128 
Q 809 2469 1088 2097 
Q 1291 1828 1588 1828 
Q 1731 1828 1928 1897 
Q 2125 1966 2275 2091 
z
" transform="scale(0.015625)"/>
       <path id="TimesNewRomanPSMT-35" d="M 2778 4238 
L 2534 3706 
L 1259 3706 
L 981 3138 
Q 1809 3016 2294 2522 
Q 2709 2097 2709 1522 
Q 2709 1188 2573 903 
Q 2438 619 2231 419 
Q 2025 219 1772 97 
Q 1413 -75 1034 -75 
Q 653 -75 479 54 
Q 306 184 306 341 
Q 306 428 378 495 
Q 450 563 559 563 
Q 641 563 702 538 
Q 763 513 909 409 
Q 1144 247 1384 247 
Q 1750 247 2026 523 
Q 2303 800 2303 1197 
Q 2303 1581 2056 1914 
Q 1809 2247 1375 2428 
Q 1034 2569 447 2591 
L 1259 4238 
L 2778 4238 
z
" transform="scale(0.015625)"/>
       <path id="TimesNewRomanPSMT-29" d="M 144 4313 
L 144 4444 
Q 619 4209 934 3891 
Q 1381 3434 1625 2820 
Q 1869 2206 1869 1541 
Q 1869 572 1392 -226 
Q 916 -1025 144 -1369 
L 144 -1253 
Q 528 -1038 776 -670 
Q 1025 -303 1145 264 
Q 1266 831 1266 1447 
Q 1266 2113 1163 2663 
Q 1084 3094 967 3353 
Q 850 3613 656 3853 
Q 463 4094 144 4313 
z
" transform="scale(0.015625)"/>
      </defs>
      <use xlink:href="#TimesNewRomanPSMT-53"/>
      <use xlink:href="#TimesNewRomanPSMT-56" x="55.615234"/>
      <use xlink:href="#TimesNewRomanPSMT-4d" x="127.832031"/>
      <use xlink:href="#TimesNewRomanPSMT-20" x="216.748047"/>
      <use xlink:href="#TimesNewRomanPSMT-28" x="241.748047"/>
      <use xlink:href="#TimesNewRomanPSMT-41" x="275.048828"/>
      <use xlink:href="#TimesNewRomanPSMT-55" x="347.265625"/>
      <use xlink:href="#TimesNewRomanPSMT-52" x="419.482422"/>
      <use xlink:href="#TimesNewRomanPSMT-4f" x="486.181641"/>
      <use xlink:href="#TimesNewRomanPSMT-43" x="558.398438"/>
      <use xlink:href="#TimesNewRomanPSMT-3d" x="625.097656"/>
      <use xlink:href="#TimesNewRomanPSMT-30" x="681.494141"/>
      <use xlink:href="#TimesNewRomanPSMT-2e" x="731.494141"/>
      <use xlink:href="#TimesNewRomanPSMT-37" x="756.494141"/>
      <use xlink:href="#TimesNewRomanPSMT-38" x="806.494141"/>
      <use xlink:href="#TimesNewRomanPSMT-39" x="856.494141"/>
      <use xlink:href="#TimesNewRomanPSMT-35" x="906.494141"/>
      <use xlink:href="#TimesNewRomanPSMT-29" x="956.494141"/>
     </g>
    </g>
    <g id="line2d_32">
     <path d="M 108.978609 220.924844 
L 115.978609 220.924844 
L 122.978609 220.924844 
" style="fill: none; stroke: #e00b5a; stroke-width: 1.5; stroke-linecap: round"/>
    </g>
    <g id="text_15">
     <!-- RF (AUROC=0.6932) -->
     <g style="fill: #262626" transform="translate(128.578609 223.374844) scale(0.07 -0.07)">
      <defs>
       <path id="TimesNewRomanPSMT-46" d="M 1309 4006 
L 1309 2341 
L 2081 2341 
Q 2347 2341 2470 2458 
Q 2594 2575 2634 2922 
L 2750 2922 
L 2750 1488 
L 2634 1488 
Q 2631 1734 2570 1850 
Q 2509 1966 2401 2023 
Q 2294 2081 2081 2081 
L 1309 2081 
L 1309 750 
Q 1309 428 1350 325 
Q 1381 247 1481 191 
Q 1619 116 1769 116 
L 1922 116 
L 1922 0 
L 103 0 
L 103 116 
L 253 116 
Q 516 116 634 269 
Q 709 369 709 750 
L 709 3488 
Q 709 3809 669 3913 
Q 638 3991 541 4047 
Q 406 4122 253 4122 
L 103 4122 
L 103 4238 
L 3256 4238 
L 3297 3306 
L 3188 3306 
Q 3106 3603 2998 3742 
Q 2891 3881 2733 3943 
Q 2575 4006 2244 4006 
L 1309 4006 
z
" transform="scale(0.015625)"/>
       <path id="TimesNewRomanPSMT-36" d="M 2869 4325 
L 2869 4209 
Q 2456 4169 2195 4045 
Q 1934 3922 1679 3669 
Q 1425 3416 1258 3105 
Q 1091 2794 978 2366 
Q 1428 2675 1881 2675 
Q 2316 2675 2634 2325 
Q 2953 1975 2953 1425 
Q 2953 894 2631 456 
Q 2244 -75 1606 -75 
Q 1172 -75 869 213 
Q 275 772 275 1663 
Q 275 2231 503 2743 
Q 731 3256 1154 3653 
Q 1578 4050 1965 4187 
Q 2353 4325 2688 4325 
L 2869 4325 
z
M 925 2138 
Q 869 1716 869 1456 
Q 869 1156 980 804 
Q 1091 453 1309 247 
Q 1469 100 1697 100 
Q 1969 100 2183 356 
Q 2397 613 2397 1088 
Q 2397 1622 2184 2012 
Q 1972 2403 1581 2403 
Q 1463 2403 1327 2353 
Q 1191 2303 925 2138 
z
" transform="scale(0.015625)"/>
       <path id="TimesNewRomanPSMT-33" d="M 325 3431 
Q 506 3859 782 4092 
Q 1059 4325 1472 4325 
Q 1981 4325 2253 3994 
Q 2459 3747 2459 3466 
Q 2459 3003 1878 2509 
Q 2269 2356 2469 2072 
Q 2669 1788 2669 1403 
Q 2669 853 2319 450 
Q 1863 -75 997 -75 
Q 569 -75 414 31 
Q 259 138 259 259 
Q 259 350 332 419 
Q 406 488 509 488 
Q 588 488 669 463 
Q 722 447 909 348 
Q 1097 250 1169 231 
Q 1284 197 1416 197 
Q 1734 197 1970 444 
Q 2206 691 2206 1028 
Q 2206 1275 2097 1509 
Q 2016 1684 1919 1775 
Q 1784 1900 1550 2001 
Q 1316 2103 1072 2103 
L 972 2103 
L 972 2197 
Q 1219 2228 1467 2375 
Q 1716 2522 1828 2728 
Q 1941 2934 1941 3181 
Q 1941 3503 1739 3701 
Q 1538 3900 1238 3900 
Q 753 3900 428 3381 
L 325 3431 
z
" transform="scale(0.015625)"/>
       <path id="TimesNewRomanPSMT-32" d="M 2934 816 
L 2638 0 
L 138 0 
L 138 116 
Q 1241 1122 1691 1759 
Q 2141 2397 2141 2925 
Q 2141 3328 1894 3587 
Q 1647 3847 1303 3847 
Q 991 3847 742 3664 
Q 494 3481 375 3128 
L 259 3128 
Q 338 3706 661 4015 
Q 984 4325 1469 4325 
Q 1984 4325 2329 3994 
Q 2675 3663 2675 3213 
Q 2675 2891 2525 2569 
Q 2294 2063 1775 1497 
Q 997 647 803 472 
L 1909 472 
Q 2247 472 2383 497 
Q 2519 522 2628 598 
Q 2738 675 2819 816 
L 2934 816 
z
" transform="scale(0.015625)"/>
      </defs>
      <use xlink:href="#TimesNewRomanPSMT-52"/>
      <use xlink:href="#TimesNewRomanPSMT-46" x="66.699219"/>
      <use xlink:href="#TimesNewRomanPSMT-20" x="122.314453"/>
      <use xlink:href="#TimesNewRomanPSMT-28" x="147.314453"/>
      <use xlink:href="#TimesNewRomanPSMT-41" x="180.615234"/>
      <use xlink:href="#TimesNewRomanPSMT-55" x="252.832031"/>
      <use xlink:href="#TimesNewRomanPSMT-52" x="325.048828"/>
      <use xlink:href="#TimesNewRomanPSMT-4f" x="391.748047"/>
      <use xlink:href="#TimesNewRomanPSMT-43" x="463.964844"/>
      <use xlink:href="#TimesNewRomanPSMT-3d" x="530.664062"/>
      <use xlink:href="#TimesNewRomanPSMT-30" x="587.060547"/>
      <use xlink:href="#TimesNewRomanPSMT-2e" x="637.060547"/>
      <use xlink:href="#TimesNewRomanPSMT-36" x="662.060547"/>
      <use xlink:href="#TimesNewRomanPSMT-39" x="712.060547"/>
      <use xlink:href="#TimesNewRomanPSMT-33" x="762.060547"/>
      <use xlink:href="#TimesNewRomanPSMT-32" x="812.060547"/>
      <use xlink:href="#TimesNewRomanPSMT-29" x="862.060547"/>
     </g>
    </g>
    <g id="line2d_33">
     <path d="M 108.978609 230.822188 
L 115.978609 230.822188 
L 122.978609 230.822188 
" style="fill: none; stroke: #b614bb; stroke-width: 1.5; stroke-linecap: round"/>
    </g>
    <g id="text_16">
     <!-- Logistic (AUROC=0.8782) -->
     <g style="fill: #262626" transform="translate(128.578609 233.272188) scale(0.07 -0.07)">
      <defs>
       <path id="TimesNewRomanPSMT-4c" d="M 3669 1172 
L 3772 1150 
L 3409 0 
L 128 0 
L 128 116 
L 288 116 
Q 556 116 672 291 
Q 738 391 738 753 
L 738 3488 
Q 738 3884 650 3984 
Q 528 4122 288 4122 
L 128 4122 
L 128 4238 
L 2047 4238 
L 2047 4122 
Q 1709 4125 1573 4059 
Q 1438 3994 1388 3894 
Q 1338 3794 1338 3416 
L 1338 753 
Q 1338 494 1388 397 
Q 1425 331 1503 300 
Q 1581 269 1991 269 
L 2300 269 
Q 2788 269 2984 341 
Q 3181 413 3343 595 
Q 3506 778 3669 1172 
z
" transform="scale(0.015625)"/>
       <path id="TimesNewRomanPSMT-6f" d="M 1600 2947 
Q 2250 2947 2644 2453 
Q 2978 2031 2978 1484 
Q 2978 1100 2793 706 
Q 2609 313 2286 112 
Q 1963 -88 1566 -88 
Q 919 -88 538 428 
Q 216 863 216 1403 
Q 216 1797 411 2186 
Q 606 2575 925 2761 
Q 1244 2947 1600 2947 
z
M 1503 2744 
Q 1338 2744 1170 2645 
Q 1003 2547 900 2300 
Q 797 2053 797 1666 
Q 797 1041 1045 587 
Q 1294 134 1700 134 
Q 2003 134 2200 384 
Q 2397 634 2397 1244 
Q 2397 2006 2069 2444 
Q 1847 2744 1503 2744 
z
" transform="scale(0.015625)"/>
       <path id="TimesNewRomanPSMT-67" d="M 966 1044 
Q 703 1172 562 1401 
Q 422 1631 422 1909 
Q 422 2334 742 2640 
Q 1063 2947 1563 2947 
Q 1972 2947 2272 2747 
L 2878 2747 
Q 3013 2747 3034 2739 
Q 3056 2731 3066 2713 
Q 3084 2684 3084 2613 
Q 3084 2531 3069 2500 
Q 3059 2484 3036 2475 
Q 3013 2466 2878 2466 
L 2506 2466 
Q 2681 2241 2681 1891 
Q 2681 1491 2375 1206 
Q 2069 922 1553 922 
Q 1341 922 1119 984 
Q 981 866 932 777 
Q 884 688 884 625 
Q 884 572 936 522 
Q 988 472 1138 450 
Q 1225 438 1575 428 
Q 2219 413 2409 384 
Q 2700 344 2873 169 
Q 3047 -6 3047 -263 
Q 3047 -616 2716 -925 
Q 2228 -1381 1444 -1381 
Q 841 -1381 425 -1109 
Q 191 -953 191 -784 
Q 191 -709 225 -634 
Q 278 -519 444 -313 
Q 466 -284 763 25 
Q 600 122 533 198 
Q 466 275 466 372 
Q 466 481 555 628 
Q 644 775 966 1044 
z
M 1509 2797 
Q 1278 2797 1122 2612 
Q 966 2428 966 2047 
Q 966 1553 1178 1281 
Q 1341 1075 1591 1075 
Q 1828 1075 1981 1253 
Q 2134 1431 2134 1813 
Q 2134 2309 1919 2591 
Q 1759 2797 1509 2797 
z
M 934 0 
Q 788 -159 713 -296 
Q 638 -434 638 -550 
Q 638 -700 819 -813 
Q 1131 -1006 1722 -1006 
Q 2284 -1006 2551 -807 
Q 2819 -609 2819 -384 
Q 2819 -222 2659 -153 
Q 2497 -84 2016 -72 
Q 1313 -53 934 0 
z
" transform="scale(0.015625)"/>
       <path id="TimesNewRomanPSMT-69" d="M 928 4444 
Q 1059 4444 1151 4351 
Q 1244 4259 1244 4128 
Q 1244 3997 1151 3903 
Q 1059 3809 928 3809 
Q 797 3809 703 3903 
Q 609 3997 609 4128 
Q 609 4259 701 4351 
Q 794 4444 928 4444 
z
M 1188 2947 
L 1188 647 
Q 1188 378 1227 289 
Q 1266 200 1342 156 
Q 1419 113 1622 113 
L 1622 0 
L 231 0 
L 231 113 
Q 441 113 512 153 
Q 584 194 626 287 
Q 669 381 669 647 
L 669 1750 
Q 669 2216 641 2353 
Q 619 2453 572 2492 
Q 525 2531 444 2531 
Q 356 2531 231 2484 
L 188 2597 
L 1050 2947 
L 1188 2947 
z
" transform="scale(0.015625)"/>
       <path id="TimesNewRomanPSMT-73" d="M 2050 2947 
L 2050 1972 
L 1947 1972 
Q 1828 2431 1642 2597 
Q 1456 2763 1169 2763 
Q 950 2763 815 2647 
Q 681 2531 681 2391 
Q 681 2216 781 2091 
Q 878 1963 1175 1819 
L 1631 1597 
Q 2266 1288 2266 781 
Q 2266 391 1970 151 
Q 1675 -88 1309 -88 
Q 1047 -88 709 6 
Q 606 38 541 38 
Q 469 38 428 -44 
L 325 -44 
L 325 978 
L 428 978 
Q 516 541 762 319 
Q 1009 97 1316 97 
Q 1531 97 1667 223 
Q 1803 350 1803 528 
Q 1803 744 1651 891 
Q 1500 1038 1047 1263 
Q 594 1488 453 1669 
Q 313 1847 313 2119 
Q 313 2472 555 2709 
Q 797 2947 1181 2947 
Q 1350 2947 1591 2875 
Q 1750 2828 1803 2828 
Q 1853 2828 1881 2850 
Q 1909 2872 1947 2947 
L 2050 2947 
z
" transform="scale(0.015625)"/>
       <path id="TimesNewRomanPSMT-74" d="M 1031 3803 
L 1031 2863 
L 1700 2863 
L 1700 2644 
L 1031 2644 
L 1031 788 
Q 1031 509 1111 412 
Q 1191 316 1316 316 
Q 1419 316 1516 380 
Q 1613 444 1666 569 
L 1788 569 
Q 1678 263 1478 108 
Q 1278 -47 1066 -47 
Q 922 -47 784 33 
Q 647 113 581 261 
Q 516 409 516 719 
L 516 2644 
L 63 2644 
L 63 2747 
Q 234 2816 414 2980 
Q 594 3144 734 3369 
Q 806 3488 934 3803 
L 1031 3803 
z
" transform="scale(0.015625)"/>
       <path id="TimesNewRomanPSMT-63" d="M 2631 1088 
Q 2516 522 2178 217 
Q 1841 -88 1431 -88 
Q 944 -88 581 321 
Q 219 731 219 1428 
Q 219 2103 620 2525 
Q 1022 2947 1584 2947 
Q 2006 2947 2278 2723 
Q 2550 2500 2550 2259 
Q 2550 2141 2473 2067 
Q 2397 1994 2259 1994 
Q 2075 1994 1981 2113 
Q 1928 2178 1911 2362 
Q 1894 2547 1784 2644 
Q 1675 2738 1481 2738 
Q 1169 2738 978 2506 
Q 725 2200 725 1697 
Q 725 1184 976 792 
Q 1228 400 1656 400 
Q 1963 400 2206 609 
Q 2378 753 2541 1131 
L 2631 1088 
z
" transform="scale(0.015625)"/>
      </defs>
      <use xlink:href="#TimesNewRomanPSMT-4c"/>
      <use xlink:href="#TimesNewRomanPSMT-6f" x="61.083984"/>
      <use xlink:href="#TimesNewRomanPSMT-67" x="111.083984"/>
      <use xlink:href="#TimesNewRomanPSMT-69" x="161.083984"/>
      <use xlink:href="#TimesNewRomanPSMT-73" x="188.867188"/>
      <use xlink:href="#TimesNewRomanPSMT-74" x="227.783203"/>
      <use xlink:href="#TimesNewRomanPSMT-69" x="255.566406"/>
      <use xlink:href="#TimesNewRomanPSMT-63" x="283.349609"/>
      <use xlink:href="#TimesNewRomanPSMT-20" x="327.734375"/>
      <use xlink:href="#TimesNewRomanPSMT-28" x="352.734375"/>
      <use xlink:href="#TimesNewRomanPSMT-41" x="386.035156"/>
      <use xlink:href="#TimesNewRomanPSMT-55" x="458.251953"/>
      <use xlink:href="#TimesNewRomanPSMT-52" x="530.46875"/>
      <use xlink:href="#TimesNewRomanPSMT-4f" x="597.167969"/>
      <use xlink:href="#TimesNewRomanPSMT-43" x="669.384766"/>
      <use xlink:href="#TimesNewRomanPSMT-3d" x="736.083984"/>
      <use xlink:href="#TimesNewRomanPSMT-30" x="792.480469"/>
      <use xlink:href="#TimesNewRomanPSMT-2e" x="842.480469"/>
      <use xlink:href="#TimesNewRomanPSMT-38" x="867.480469"/>
      <use xlink:href="#TimesNewRomanPSMT-37" x="917.480469"/>
      <use xlink:href="#TimesNewRomanPSMT-38" x="967.480469"/>
      <use xlink:href="#TimesNewRomanPSMT-32" x="1017.480469"/>
      <use xlink:href="#TimesNewRomanPSMT-29" x="1067.480469"/>
     </g>
    </g>
    <g id="line2d_34">
     <path d="M 108.978609 240.732656 
L 115.978609 240.732656 
L 122.978609 240.732656 
" style="fill: none; stroke: #6d5aef; stroke-width: 1.5; stroke-linecap: round"/>
    </g>
    <g id="text_17">
     <!-- XGBoost (AUROC=0.7759) -->
     <g style="fill: #262626" transform="translate(128.578609 243.182656) scale(0.07 -0.07)">
      <defs>
       <path id="TimesNewRomanPSMT-58" d="M 2613 2347 
L 3522 991 
Q 3900 428 4083 279 
Q 4266 131 4547 116 
L 4547 0 
L 2728 0 
L 2728 116 
Q 2909 119 2997 153 
Q 3063 181 3105 239 
Q 3147 297 3147 356 
Q 3147 428 3119 500 
Q 3097 553 2947 775 
L 2228 1863 
L 1341 725 
Q 1200 544 1172 483 
Q 1144 422 1144 356 
Q 1144 256 1228 190 
Q 1313 125 1550 116 
L 1550 0 
L 47 0 
L 47 116 
Q 206 131 322 181 
Q 516 263 691 400 
Q 866 538 1091 822 
L 2091 2084 
L 1256 3306 
Q 916 3803 678 3958 
Q 441 4113 131 4122 
L 131 4238 
L 2091 4238 
L 2091 4122 
Q 1841 4113 1748 4041 
Q 1656 3969 1656 3881 
Q 1656 3766 1806 3544 
L 2456 2572 
L 3209 3525 
Q 3341 3694 3370 3756 
Q 3400 3819 3400 3884 
Q 3400 3950 3363 4000 
Q 3316 4066 3244 4092 
Q 3172 4119 2947 4122 
L 2947 4238 
L 4450 4238 
L 4450 4122 
Q 4272 4113 4159 4066 
Q 3991 3994 3850 3872 
Q 3709 3750 3453 3422 
L 2613 2347 
z
" transform="scale(0.015625)"/>
       <path id="TimesNewRomanPSMT-47" d="M 3928 4334 
L 4038 2997 
L 3928 2997 
Q 3763 3497 3500 3750 
Q 3122 4116 2528 4116 
Q 1719 4116 1297 3475 
Q 944 2934 944 2188 
Q 944 1581 1178 1081 
Q 1413 581 1792 348 
Q 2172 116 2572 116 
Q 2806 116 3025 175 
Q 3244 234 3447 350 
L 3447 1575 
Q 3447 1894 3398 1992 
Q 3350 2091 3248 2142 
Q 3147 2194 2891 2194 
L 2891 2313 
L 4531 2313 
L 4531 2194 
L 4453 2194 
Q 4209 2194 4119 2031 
Q 4056 1916 4056 1575 
L 4056 278 
Q 3697 84 3347 -6 
Q 2997 -97 2569 -97 
Q 1341 -97 703 691 
Q 225 1281 225 2053 
Q 225 2613 494 3125 
Q 813 3734 1369 4063 
Q 1834 4334 2469 4334 
Q 2700 4334 2889 4296 
Q 3078 4259 3425 4131 
Q 3600 4066 3659 4066 
Q 3719 4066 3761 4120 
Q 3803 4175 3813 4334 
L 3928 4334 
z
" transform="scale(0.015625)"/>
       <path id="TimesNewRomanPSMT-42" d="M 2956 2163 
Q 3397 2069 3616 1863 
Q 3919 1575 3919 1159 
Q 3919 844 3719 555 
Q 3519 266 3170 133 
Q 2822 0 2106 0 
L 106 0 
L 106 116 
L 266 116 
Q 531 116 647 284 
Q 719 394 719 750 
L 719 3488 
Q 719 3881 628 3984 
Q 506 4122 266 4122 
L 106 4122 
L 106 4238 
L 1938 4238 
Q 2450 4238 2759 4163 
Q 3228 4050 3475 3764 
Q 3722 3478 3722 3106 
Q 3722 2788 3528 2536 
Q 3334 2284 2956 2163 
z
M 1319 2331 
Q 1434 2309 1582 2298 
Q 1731 2288 1909 2288 
Q 2366 2288 2595 2386 
Q 2825 2484 2947 2687 
Q 3069 2891 3069 3131 
Q 3069 3503 2766 3765 
Q 2463 4028 1881 4028 
Q 1569 4028 1319 3959 
L 1319 2331 
z
M 1319 306 
Q 1681 222 2034 222 
Q 2600 222 2897 476 
Q 3194 731 3194 1106 
Q 3194 1353 3059 1581 
Q 2925 1809 2622 1940 
Q 2319 2072 1872 2072 
Q 1678 2072 1540 2065 
Q 1403 2059 1319 2044 
L 1319 306 
z
" transform="scale(0.015625)"/>
      </defs>
      <use xlink:href="#TimesNewRomanPSMT-58"/>
      <use xlink:href="#TimesNewRomanPSMT-47" x="72.216797"/>
      <use xlink:href="#TimesNewRomanPSMT-42" x="144.433594"/>
      <use xlink:href="#TimesNewRomanPSMT-6f" x="211.132812"/>
      <use xlink:href="#TimesNewRomanPSMT-6f" x="261.132812"/>
      <use xlink:href="#TimesNewRomanPSMT-73" x="311.132812"/>
      <use xlink:href="#TimesNewRomanPSMT-74" x="350.048828"/>
      <use xlink:href="#TimesNewRomanPSMT-20" x="377.832031"/>
      <use xlink:href="#TimesNewRomanPSMT-28" x="402.832031"/>
      <use xlink:href="#TimesNewRomanPSMT-41" x="436.132812"/>
      <use xlink:href="#TimesNewRomanPSMT-55" x="508.349609"/>
      <use xlink:href="#TimesNewRomanPSMT-52" x="580.566406"/>
      <use xlink:href="#TimesNewRomanPSMT-4f" x="647.265625"/>
      <use xlink:href="#TimesNewRomanPSMT-43" x="719.482422"/>
      <use xlink:href="#TimesNewRomanPSMT-3d" x="786.181641"/>
      <use xlink:href="#TimesNewRomanPSMT-30" x="842.578125"/>
      <use xlink:href="#TimesNewRomanPSMT-2e" x="892.578125"/>
      <use xlink:href="#TimesNewRomanPSMT-37" x="917.578125"/>
      <use xlink:href="#TimesNewRomanPSMT-37" x="967.578125"/>
      <use xlink:href="#TimesNewRomanPSMT-35" x="1017.578125"/>
      <use xlink:href="#TimesNewRomanPSMT-39" x="1067.578125"/>
      <use xlink:href="#TimesNewRomanPSMT-29" x="1117.578125"/>
     </g>
    </g>
   </g>
  </g>
  <g id="axes_2">
   <g id="patch_7">
    <path d="M 245.485 250.98 
L 419.360952 250.98 
L 419.360952 10.8 
L 245.485 10.8 
z
" style="fill: #eaeaf2"/>
   </g>
   <g id="matplotlib.axis_3">
    <g id="xtick_6">
     <g id="line2d_35">
      <path d="M 253.388452 250.98 
L 253.388452 10.8 
" clip-path="url(#paad28cba60)" style="fill: none; stroke: #ffffff; stroke-width: 0.8; stroke-linecap: round"/>
     </g>
     <g id="line2d_36"/>
     <g id="text_18">
      <!-- 0.00 -->
      <g style="fill: #262626" transform="translate(243.657984 261.637812) scale(0.1 -0.1)">
       <use xlink:href="#ArialMT-30"/>
       <use xlink:href="#ArialMT-2e" x="55.615234"/>
       <use xlink:href="#ArialMT-30" x="83.398438"/>
       <use xlink:href="#ArialMT-30" x="139.013672"/>
      </g>
     </g>
    </g>
    <g id="xtick_7">
     <g id="line2d_37">
      <path d="M 292.905714 250.98 
L 292.905714 10.8 
" clip-path="url(#paad28cba60)" style="fill: none; stroke: #ffffff; stroke-width: 0.8; stroke-linecap: round"/>
     </g>
     <g id="line2d_38"/>
     <g id="text_19">
      <!-- 0.25 -->
      <g style="fill: #262626" transform="translate(283.175246 261.637812) scale(0.1 -0.1)">
       <use xlink:href="#ArialMT-30"/>
       <use xlink:href="#ArialMT-2e" x="55.615234"/>
       <use xlink:href="#ArialMT-32" x="83.398438"/>
       <use xlink:href="#ArialMT-35" x="139.013672"/>
      </g>
     </g>
    </g>
    <g id="xtick_8">
     <g id="line2d_39">
      <path d="M 332.422976 250.98 
L 332.422976 10.8 
" clip-path="url(#paad28cba60)" style="fill: none; stroke: #ffffff; stroke-width: 0.8; stroke-linecap: round"/>
     </g>
     <g id="line2d_40"/>
     <g id="text_20">
      <!-- 0.50 -->
      <g style="fill: #262626" transform="translate(322.692507 261.637812) scale(0.1 -0.1)">
       <use xlink:href="#ArialMT-30"/>
       <use xlink:href="#ArialMT-2e" x="55.615234"/>
       <use xlink:href="#ArialMT-35" x="83.398438"/>
       <use xlink:href="#ArialMT-30" x="139.013672"/>
      </g>
     </g>
    </g>
    <g id="xtick_9">
     <g id="line2d_41">
      <path d="M 371.940238 250.98 
L 371.940238 10.8 
" clip-path="url(#paad28cba60)" style="fill: none; stroke: #ffffff; stroke-width: 0.8; stroke-linecap: round"/>
     </g>
     <g id="line2d_42"/>
     <g id="text_21">
      <!-- 0.75 -->
      <g style="fill: #262626" transform="translate(362.209769 261.637812) scale(0.1 -0.1)">
       <use xlink:href="#ArialMT-30"/>
       <use xlink:href="#ArialMT-2e" x="55.615234"/>
       <use xlink:href="#ArialMT-37" x="83.398438"/>
       <use xlink:href="#ArialMT-35" x="139.013672"/>
      </g>
     </g>
    </g>
    <g id="xtick_10">
     <g id="line2d_43">
      <path d="M 411.4575 250.98 
L 411.4575 10.8 
" clip-path="url(#paad28cba60)" style="fill: none; stroke: #ffffff; stroke-width: 0.8; stroke-linecap: round"/>
     </g>
     <g id="line2d_44"/>
     <g id="text_22">
      <!-- 1.00 -->
      <g style="fill: #262626" transform="translate(401.727031 261.637812) scale(0.1 -0.1)">
       <use xlink:href="#ArialMT-31"/>
       <use xlink:href="#ArialMT-2e" x="55.615234"/>
       <use xlink:href="#ArialMT-30" x="83.398438"/>
       <use xlink:href="#ArialMT-30" x="139.013672"/>
      </g>
     </g>
    </g>
    <g id="text_23">
     <!-- False Positive Rate -->
     <g style="fill: #262626" transform="translate(289.351101 274.783125) scale(0.1 -0.1)">
      <use xlink:href="#ArialMT-46"/>
      <use xlink:href="#ArialMT-61" x="61.083984"/>
      <use xlink:href="#ArialMT-6c" x="116.699219"/>
      <use xlink:href="#ArialMT-73" x="138.916016"/>
      <use xlink:href="#ArialMT-65" x="188.916016"/>
      <use xlink:href="#ArialMT-20" x="244.53125"/>
      <use xlink:href="#ArialMT-50" x="272.314453"/>
      <use xlink:href="#ArialMT-6f" x="339.013672"/>
      <use xlink:href="#ArialMT-73" x="394.628906"/>
      <use xlink:href="#ArialMT-69" x="444.628906"/>
      <use xlink:href="#ArialMT-74" x="466.845703"/>
      <use xlink:href="#ArialMT-69" x="494.628906"/>
      <use xlink:href="#ArialMT-76" x="516.845703"/>
      <use xlink:href="#ArialMT-65" x="566.845703"/>
      <use xlink:href="#ArialMT-20" x="622.460938"/>
      <use xlink:href="#ArialMT-52" x="650.244141"/>
      <use xlink:href="#ArialMT-61" x="722.460938"/>
      <use xlink:href="#ArialMT-74" x="778.076172"/>
      <use xlink:href="#ArialMT-65" x="805.859375"/>
     </g>
    </g>
   </g>
   <g id="matplotlib.axis_4">
    <g id="ytick_7">
     <g id="line2d_45">
      <path d="M 245.485 218.956 
L 419.360952 218.956 
" clip-path="url(#paad28cba60)" style="fill: none; stroke: #ffffff; stroke-width: 0.8; stroke-linecap: round"/>
     </g>
     <g id="line2d_46"/>
     <g id="text_24">
      <!-- 0.5 -->
      <g style="fill: #262626" transform="translate(228.085 222.534906) scale(0.1 -0.1)">
       <use xlink:href="#ArialMT-30"/>
       <use xlink:href="#ArialMT-2e" x="55.615234"/>
       <use xlink:href="#ArialMT-35" x="83.398438"/>
      </g>
     </g>
    </g>
    <g id="ytick_8">
     <g id="line2d_47">
      <path d="M 245.485 178.926 
L 419.360952 178.926 
" clip-path="url(#paad28cba60)" style="fill: none; stroke: #ffffff; stroke-width: 0.8; stroke-linecap: round"/>
     </g>
     <g id="line2d_48"/>
     <g id="text_25">
      <!-- 0.6 -->
      <g style="fill: #262626" transform="translate(228.085 182.504906) scale(0.1 -0.1)">
       <use xlink:href="#ArialMT-30"/>
       <use xlink:href="#ArialMT-2e" x="55.615234"/>
       <use xlink:href="#ArialMT-36" x="83.398438"/>
      </g>
     </g>
    </g>
    <g id="ytick_9">
     <g id="line2d_49">
      <path d="M 245.485 138.896 
L 419.360952 138.896 
" clip-path="url(#paad28cba60)" style="fill: none; stroke: #ffffff; stroke-width: 0.8; stroke-linecap: round"/>
     </g>
     <g id="line2d_50"/>
     <g id="text_26">
      <!-- 0.7 -->
      <g style="fill: #262626" transform="translate(228.085 142.474906) scale(0.1 -0.1)">
       <use xlink:href="#ArialMT-30"/>
       <use xlink:href="#ArialMT-2e" x="55.615234"/>
       <use xlink:href="#ArialMT-37" x="83.398438"/>
      </g>
     </g>
    </g>
    <g id="ytick_10">
     <g id="line2d_51">
      <path d="M 245.485 98.866 
L 419.360952 98.866 
" clip-path="url(#paad28cba60)" style="fill: none; stroke: #ffffff; stroke-width: 0.8; stroke-linecap: round"/>
     </g>
     <g id="line2d_52"/>
     <g id="text_27">
      <!-- 0.8 -->
      <g style="fill: #262626" transform="translate(228.085 102.444906) scale(0.1 -0.1)">
       <use xlink:href="#ArialMT-30"/>
       <use xlink:href="#ArialMT-2e" x="55.615234"/>
       <use xlink:href="#ArialMT-38" x="83.398438"/>
      </g>
     </g>
    </g>
    <g id="ytick_11">
     <g id="line2d_53">
      <path d="M 245.485 58.836 
L 419.360952 58.836 
" clip-path="url(#paad28cba60)" style="fill: none; stroke: #ffffff; stroke-width: 0.8; stroke-linecap: round"/>
     </g>
     <g id="line2d_54"/>
     <g id="text_28">
      <!-- 0.9 -->
      <g style="fill: #262626" transform="translate(228.085 62.414906) scale(0.1 -0.1)">
       <defs>
        <path id="ArialMT-39" d="M 350 1059 
L 891 1109 
Q 959 728 1153 556 
Q 1347 384 1650 384 
Q 1909 384 2104 503 
Q 2300 622 2425 820 
Q 2550 1019 2634 1356 
Q 2719 1694 2719 2044 
Q 2719 2081 2716 2156 
Q 2547 1888 2255 1720 
Q 1963 1553 1622 1553 
Q 1053 1553 659 1965 
Q 266 2378 266 3053 
Q 266 3750 677 4175 
Q 1088 4600 1706 4600 
Q 2153 4600 2523 4359 
Q 2894 4119 3086 3673 
Q 3278 3228 3278 2384 
Q 3278 1506 3087 986 
Q 2897 466 2520 194 
Q 2144 -78 1638 -78 
Q 1100 -78 759 220 
Q 419 519 350 1059 
z
M 2653 3081 
Q 2653 3566 2395 3850 
Q 2138 4134 1775 4134 
Q 1400 4134 1122 3828 
Q 844 3522 844 3034 
Q 844 2597 1108 2323 
Q 1372 2050 1759 2050 
Q 2150 2050 2401 2323 
Q 2653 2597 2653 3081 
z
" transform="scale(0.015625)"/>
       </defs>
       <use xlink:href="#ArialMT-30"/>
       <use xlink:href="#ArialMT-2e" x="55.615234"/>
       <use xlink:href="#ArialMT-39" x="83.398438"/>
      </g>
     </g>
    </g>
    <g id="ytick_12">
     <g id="line2d_55">
      <path d="M 245.485 18.806 
L 419.360952 18.806 
" clip-path="url(#paad28cba60)" style="fill: none; stroke: #ffffff; stroke-width: 0.8; stroke-linecap: round"/>
     </g>
     <g id="line2d_56"/>
     <g id="text_29">
      <!-- 1.0 -->
      <g style="fill: #262626" transform="translate(228.085 22.384906) scale(0.1 -0.1)">
       <use xlink:href="#ArialMT-31"/>
       <use xlink:href="#ArialMT-2e" x="55.615234"/>
       <use xlink:href="#ArialMT-30" x="83.398438"/>
      </g>
     </g>
    </g>
   </g>
   <g id="line2d_57">
    <path d="M 411.4575 159.652296 
L 411.4575 162.309774 
L 406.941242 162.309774 
L 406.941242 157.371385 
L 406.941242 157.371385 
L 406.941242 152.239333 
L 406.941242 152.239333 
L 406.941242 146.902 
L 406.941242 146.902 
L 406.941242 149.516204 
L 402.424983 149.516204 
L 402.424983 143.89975 
L 402.424983 143.89975 
L 402.424983 138.044298 
L 402.424983 138.044298 
L 402.424983 131.934261 
L 402.424983 131.934261 
L 402.424983 125.552667 
L 402.424983 125.552667 
L 402.424983 118.881 
L 402.424983 118.881 
L 402.424983 111.899023 
L 402.424983 111.899023 
L 402.424983 114.115524 
L 397.908725 114.115524 
L 397.908725 106.676732 
L 397.908725 106.676732 
L 397.908725 108.8735 
L 393.392466 108.8735 
L 393.392466 100.918821 
L 393.392466 100.918821 
L 393.392466 92.545474 
L 393.392466 92.545474 
L 393.392466 94.538432 
L 388.876207 94.538432 
L 388.876207 85.522667 
L 388.876207 85.522667 
L 388.876207 87.428857 
L 384.359949 87.428857 
L 384.359949 89.447176 
L 379.84369 89.447176 
L 379.84369 91.587818 
L 375.327432 91.587818 
L 375.327432 93.86225 
L 370.811173 93.86225 
L 370.811173 96.283419 
L 366.294915 96.283419 
L 366.294915 98.866 
L 361.778656 98.866 
L 361.778656 87.823241 
L 361.778656 87.823241 
L 361.778656 90.288143 
L 357.262398 90.288143 
L 357.262398 78.109704 
L 357.262398 78.109704 
L 357.262398 80.390615 
L 352.746139 80.390615 
L 352.746139 82.854 
L 348.229881 82.854 
L 348.229881 85.522667 
L 343.713622 85.522667 
L 343.713622 88.423391 
L 339.197364 88.423391 
L 339.197364 91.587818 
L 334.681105 91.587818 
L 334.681105 75.991714 
L 334.681105 75.991714 
L 334.681105 58.836 
L 334.681105 58.836 
L 334.681105 60.942842 
L 330.164847 60.942842 
L 330.164847 63.283778 
L 325.648588 63.283778 
L 325.648588 65.900118 
L 321.13233 65.900118 
L 321.13233 68.8435 
L 316.616071 68.8435 
L 316.616071 72.179333 
L 312.099813 72.179333 
L 312.099813 75.991714 
L 307.583554 75.991714 
L 307.583554 49.598308 
L 307.583554 49.598308 
L 307.583554 52.164333 
L 303.067296 52.164333 
L 303.067296 55.196909 
L 298.551037 55.196909 
L 298.551037 58.836 
L 294.034779 58.836 
L 294.034779 63.283778 
L 289.51852 63.283778 
L 289.51852 68.8435 
L 285.002262 68.8435 
L 285.002262 75.991714 
L 280.486003 75.991714 
L 280.486003 18.806 
L 280.486003 18.806 
L 280.486003 18.806 
L 275.969745 18.806 
L 275.969745 18.806 
L 271.453486 18.806 
L 271.453486 18.806 
L 266.937228 18.806 
L 266.937228 18.806 
L 262.420969 18.806 
L 262.420969 18.806 
L 257.904711 18.806 
L 257.904711 18.806 
L 253.388452 18.806 
" clip-path="url(#paad28cba60)" style="fill: none; stroke: #03d0c7; stroke-width: 1.5; stroke-linecap: round"/>
   </g>
   <g id="line2d_58">
    <path d="M 411.4575 159.652296 
L 411.4575 154.756943 
L 411.4575 154.756943 
L 411.4575 149.673308 
L 411.4575 149.673308 
L 411.4575 152.239333 
L 406.941242 152.239333 
L 406.941242 154.908 
L 402.424983 154.908 
L 402.424983 149.516204 
L 402.424983 149.516204 
L 402.424983 152.239333 
L 397.908725 152.239333 
L 397.908725 155.07834 
L 393.392466 155.07834 
L 393.392466 158.040783 
L 388.876207 158.040783 
L 388.876207 161.134889 
L 384.359949 161.134889 
L 384.359949 155.271909 
L 384.359949 155.271909 
L 384.359949 149.136233 
L 384.359949 149.136233 
L 384.359949 142.708381 
L 384.359949 142.708381 
L 384.359949 145.73039 
L 379.84369 145.73039 
L 379.84369 148.9035 
L 375.327432 148.9035 
L 375.327432 152.239333 
L 370.811173 152.239333 
L 370.811173 155.750737 
L 366.294915 155.750737 
L 366.294915 148.633027 
L 366.294915 148.633027 
L 366.294915 141.119889 
L 366.294915 141.119889 
L 366.294915 133.177429 
L 366.294915 133.177429 
L 366.294915 136.541294 
L 361.778656 136.541294 
L 361.778656 127.978727 
L 361.778656 127.978727 
L 361.778656 118.881 
L 361.778656 118.881 
L 361.778656 109.196323 
L 361.778656 109.196323 
L 361.778656 98.866 
L 361.778656 98.866 
L 361.778656 101.62669 
L 357.262398 101.62669 
L 357.262398 90.288143 
L 357.262398 90.288143 
L 357.262398 92.93563 
L 352.746139 92.93563 
L 352.746139 80.390615 
L 352.746139 80.390615 
L 352.746139 82.854 
L 348.229881 82.854 
L 348.229881 85.522667 
L 343.713622 85.522667 
L 343.713622 88.423391 
L 339.197364 88.423391 
L 339.197364 91.587818 
L 334.681105 91.587818 
L 334.681105 95.053619 
L 330.164847 95.053619 
L 330.164847 78.851 
L 330.164847 78.851 
L 330.164847 82.011263 
L 325.648588 82.011263 
L 325.648588 85.522667 
L 321.13233 85.522667 
L 321.13233 89.447176 
L 316.616071 89.447176 
L 316.616071 93.86225 
L 312.099813 93.86225 
L 312.099813 72.179333 
L 312.099813 72.179333 
L 312.099813 47.398857 
L 312.099813 47.398857 
L 312.099813 49.598308 
L 307.583554 49.598308 
L 307.583554 18.806 
L 307.583554 18.806 
L 307.583554 18.806 
L 303.067296 18.806 
L 303.067296 18.806 
L 298.551037 18.806 
L 298.551037 18.806 
L 294.034779 18.806 
L 294.034779 18.806 
L 289.51852 18.806 
L 289.51852 18.806 
L 285.002262 18.806 
L 285.002262 18.806 
L 280.486003 18.806 
L 280.486003 18.806 
L 275.969745 18.806 
L 275.969745 18.806 
L 271.453486 18.806 
L 271.453486 18.806 
L 266.937228 18.806 
L 266.937228 18.806 
L 262.420969 18.806 
L 262.420969 18.806 
L 257.904711 18.806 
L 257.904711 18.806 
L 253.388452 18.806 
" clip-path="url(#paad28cba60)" style="fill: none; stroke: #e00b5a; stroke-width: 1.5; stroke-linecap: round"/>
   </g>
   <g id="line2d_59">
    <path d="M 411.4575 159.652296 
L 411.4575 154.756943 
L 411.4575 154.756943 
L 411.4575 149.673308 
L 411.4575 149.673308 
L 411.4575 152.239333 
L 406.941242 152.239333 
L 406.941242 146.902 
L 406.941242 146.902 
L 406.941242 141.346816 
L 406.941242 141.346816 
L 406.941242 143.89975 
L 402.424983 143.89975 
L 402.424983 138.044298 
L 402.424983 138.044298 
L 402.424983 131.934261 
L 402.424983 131.934261 
L 402.424983 125.552667 
L 402.424983 125.552667 
L 402.424983 118.881 
L 402.424983 118.881 
L 402.424983 121.208326 
L 397.908725 121.208326 
L 397.908725 114.115524 
L 397.908725 114.115524 
L 397.908725 106.676732 
L 397.908725 106.676732 
L 397.908725 108.8735 
L 393.392466 108.8735 
L 393.392466 100.918821 
L 393.392466 100.918821 
L 393.392466 92.545474 
L 393.392466 92.545474 
L 393.392466 83.719514 
L 393.392466 83.719514 
L 393.392466 74.403222 
L 393.392466 74.403222 
L 393.392466 64.554571 
L 393.392466 64.554571 
L 393.392466 54.126588 
L 393.392466 54.126588 
L 393.392466 55.196909 
L 388.876207 55.196909 
L 388.876207 43.82475 
L 388.876207 43.82475 
L 388.876207 44.631806 
L 384.359949 44.631806 
L 384.359949 45.492667 
L 379.84369 45.492667 
L 379.84369 46.412897 
L 375.327432 46.412897 
L 375.327432 47.398857 
L 370.811173 47.398857 
L 370.811173 48.457852 
L 366.294915 48.457852 
L 366.294915 49.598308 
L 361.778656 49.598308 
L 361.778656 50.83 
L 357.262398 50.83 
L 357.262398 35.485167 
L 357.262398 35.485167 
L 357.262398 36.210348 
L 352.746139 36.210348 
L 352.746139 37.001455 
L 348.229881 37.001455 
L 348.229881 37.867905 
L 343.713622 37.867905 
L 343.713622 38.821 
L 339.197364 38.821 
L 339.197364 39.874421 
L 334.681105 39.874421 
L 334.681105 41.044889 
L 330.164847 41.044889 
L 330.164847 42.353059 
L 325.648588 42.353059 
L 325.648588 43.82475 
L 321.13233 43.82475 
L 321.13233 45.492667 
L 316.616071 45.492667 
L 316.616071 47.398857 
L 312.099813 47.398857 
L 312.099813 49.598308 
L 307.583554 49.598308 
L 307.583554 52.164333 
L 303.067296 52.164333 
L 303.067296 18.806 
L 303.067296 18.806 
L 303.067296 18.806 
L 298.551037 18.806 
L 298.551037 18.806 
L 294.034779 18.806 
L 294.034779 18.806 
L 289.51852 18.806 
L 289.51852 18.806 
L 285.002262 18.806 
L 285.002262 18.806 
L 280.486003 18.806 
L 280.486003 18.806 
L 275.969745 18.806 
L 275.969745 18.806 
L 271.453486 18.806 
L 271.453486 18.806 
L 266.937228 18.806 
L 266.937228 18.806 
L 262.420969 18.806 
L 262.420969 18.806 
L 257.904711 18.806 
L 257.904711 18.806 
L 253.388452 18.806 
" clip-path="url(#paad28cba60)" style="fill: none; stroke: #b614bb; stroke-width: 1.5; stroke-linecap: round"/>
   </g>
   <g id="line2d_60">
    <path d="M 411.4575 159.652296 
L 411.4575 154.756943 
L 411.4575 154.756943 
L 411.4575 149.673308 
L 411.4575 149.673308 
L 411.4575 144.390314 
L 411.4575 144.390314 
L 411.4575 146.902 
L 406.941242 146.902 
L 406.941242 141.346816 
L 406.941242 141.346816 
L 406.941242 143.89975 
L 402.424983 143.89975 
L 402.424983 138.044298 
L 402.424983 138.044298 
L 402.424983 140.636435 
L 397.908725 140.636435 
L 397.908725 134.448222 
L 397.908725 134.448222 
L 397.908725 137.076455 
L 393.392466 137.076455 
L 393.392466 139.82693 
L 388.876207 139.82693 
L 388.876207 133.177429 
L 388.876207 133.177429 
L 388.876207 126.203561 
L 388.876207 126.203561 
L 388.876207 118.881 
L 388.876207 118.881 
L 388.876207 111.182923 
L 388.876207 111.182923 
L 388.876207 113.613895 
L 384.359949 113.613895 
L 384.359949 105.357351 
L 384.359949 105.357351 
L 384.359949 107.761556 
L 379.84369 107.761556 
L 379.84369 110.303143 
L 375.327432 110.303143 
L 375.327432 112.994235 
L 370.811173 112.994235 
L 370.811173 115.848424 
L 366.294915 115.848424 
L 366.294915 118.881 
L 361.778656 118.881 
L 361.778656 109.196323 
L 361.778656 109.196323 
L 361.778656 98.866 
L 361.778656 98.866 
L 361.778656 87.823241 
L 361.778656 87.823241 
L 361.778656 75.991714 
L 361.778656 75.991714 
L 361.778656 78.109704 
L 357.262398 78.109704 
L 357.262398 80.390615 
L 352.746139 80.390615 
L 352.746139 82.854 
L 348.229881 82.854 
L 348.229881 68.8435 
L 348.229881 68.8435 
L 348.229881 53.614696 
L 348.229881 53.614696 
L 348.229881 55.196909 
L 343.713622 55.196909 
L 343.713622 37.867905 
L 343.713622 37.867905 
L 343.713622 38.821 
L 339.197364 38.821 
L 339.197364 39.874421 
L 334.681105 39.874421 
L 334.681105 41.044889 
L 330.164847 41.044889 
L 330.164847 42.353059 
L 325.648588 42.353059 
L 325.648588 43.82475 
L 321.13233 43.82475 
L 321.13233 45.492667 
L 316.616071 45.492667 
L 316.616071 47.398857 
L 312.099813 47.398857 
L 312.099813 49.598308 
L 307.583554 49.598308 
L 307.583554 52.164333 
L 303.067296 52.164333 
L 303.067296 55.196909 
L 298.551037 55.196909 
L 298.551037 58.836 
L 294.034779 58.836 
L 294.034779 63.283778 
L 289.51852 63.283778 
L 289.51852 68.8435 
L 285.002262 68.8435 
L 285.002262 75.991714 
L 280.486003 75.991714 
L 280.486003 85.522667 
L 275.969745 85.522667 
L 275.969745 18.806 
L 275.969745 18.806 
L 275.969745 18.806 
L 271.453486 18.806 
L 271.453486 18.806 
L 266.937228 18.806 
L 266.937228 18.806 
L 262.420969 18.806 
L 262.420969 18.806 
L 257.904711 18.806 
L 257.904711 18.806 
L 253.388452 18.806 
" clip-path="url(#paad28cba60)" style="fill: none; stroke: #6d5aef; stroke-width: 1.5; stroke-linecap: round"/>
   </g>
   <g id="patch_8">
    <path d="M 245.485 250.98 
L 245.485 10.8 
" style="fill: none"/>
   </g>
   <g id="patch_9">
    <path d="M 419.360952 250.98 
L 419.360952 10.8 
" style="fill: none"/>
   </g>
   <g id="patch_10">
    <path d="M 245.485 250.98 
L 419.360952 250.98 
" style="fill: none"/>
   </g>
   <g id="patch_11">
    <path d="M 245.485 10.8 
L 419.360952 10.8 
" style="fill: none"/>
   </g>
   <g id="legend_2">
    <g id="line2d_61">
     <path d="M 314.061265 211.0275 
L 314.061265 211.0275 
L 321.061265 211.0275 
L 321.061265 211.0275 
L 328.061265 211.0275 
" style="fill: none; stroke: #03d0c7; stroke-width: 1.5; stroke-linecap: round"/>
    </g>
    <g id="text_30">
     <!-- SVM (AUPRC=0.8674) -->
     <g style="fill: #262626" transform="translate(333.661265 213.4775) scale(0.07 -0.07)">
      <defs>
       <path id="TimesNewRomanPSMT-50" d="M 1313 1984 
L 1313 750 
Q 1313 350 1400 253 
Q 1519 116 1759 116 
L 1922 116 
L 1922 0 
L 106 0 
L 106 116 
L 266 116 
Q 534 116 650 291 
Q 713 388 713 750 
L 713 3488 
Q 713 3888 628 3984 
Q 506 4122 266 4122 
L 106 4122 
L 106 4238 
L 1659 4238 
Q 2228 4238 2556 4120 
Q 2884 4003 3109 3725 
Q 3334 3447 3334 3066 
Q 3334 2547 2992 2222 
Q 2650 1897 2025 1897 
Q 1872 1897 1694 1919 
Q 1516 1941 1313 1984 
z
M 1313 2163 
Q 1478 2131 1606 2115 
Q 1734 2100 1825 2100 
Q 2150 2100 2386 2351 
Q 2622 2603 2622 3003 
Q 2622 3278 2509 3514 
Q 2397 3750 2190 3867 
Q 1984 3984 1722 3984 
Q 1563 3984 1313 3925 
L 1313 2163 
z
" transform="scale(0.015625)"/>
       <path id="TimesNewRomanPSMT-34" d="M 2978 1563 
L 2978 1119 
L 2409 1119 
L 2409 0 
L 1894 0 
L 1894 1119 
L 100 1119 
L 100 1519 
L 2066 4325 
L 2409 4325 
L 2409 1563 
L 2978 1563 
z
M 1894 1563 
L 1894 3666 
L 406 1563 
L 1894 1563 
z
" transform="scale(0.015625)"/>
      </defs>
      <use xlink:href="#TimesNewRomanPSMT-53"/>
      <use xlink:href="#TimesNewRomanPSMT-56" x="55.615234"/>
      <use xlink:href="#TimesNewRomanPSMT-4d" x="127.832031"/>
      <use xlink:href="#TimesNewRomanPSMT-20" x="216.748047"/>
      <use xlink:href="#TimesNewRomanPSMT-28" x="241.748047"/>
      <use xlink:href="#TimesNewRomanPSMT-41" x="275.048828"/>
      <use xlink:href="#TimesNewRomanPSMT-55" x="347.265625"/>
      <use xlink:href="#TimesNewRomanPSMT-50" x="419.482422"/>
      <use xlink:href="#TimesNewRomanPSMT-52" x="475.097656"/>
      <use xlink:href="#TimesNewRomanPSMT-43" x="541.796875"/>
      <use xlink:href="#TimesNewRomanPSMT-3d" x="608.496094"/>
      <use xlink:href="#TimesNewRomanPSMT-30" x="664.892578"/>
      <use xlink:href="#TimesNewRomanPSMT-2e" x="714.892578"/>
      <use xlink:href="#TimesNewRomanPSMT-38" x="739.892578"/>
      <use xlink:href="#TimesNewRomanPSMT-36" x="789.892578"/>
      <use xlink:href="#TimesNewRomanPSMT-37" x="839.892578"/>
      <use xlink:href="#TimesNewRomanPSMT-34" x="889.892578"/>
      <use xlink:href="#TimesNewRomanPSMT-29" x="939.892578"/>
     </g>
    </g>
    <g id="line2d_62">
     <path d="M 314.061265 220.924844 
L 314.061265 220.924844 
L 321.061265 220.924844 
L 321.061265 220.924844 
L 328.061265 220.924844 
" style="fill: none; stroke: #e00b5a; stroke-width: 1.5; stroke-linecap: round"/>
    </g>
    <g id="text_31">
     <!-- RF (AUPRC=0.8424) -->
     <g style="fill: #262626" transform="translate(333.661265 223.374844) scale(0.07 -0.07)">
      <use xlink:href="#TimesNewRomanPSMT-52"/>
      <use xlink:href="#TimesNewRomanPSMT-46" x="66.699219"/>
      <use xlink:href="#TimesNewRomanPSMT-20" x="122.314453"/>
      <use xlink:href="#TimesNewRomanPSMT-28" x="147.314453"/>
      <use xlink:href="#TimesNewRomanPSMT-41" x="180.615234"/>
      <use xlink:href="#TimesNewRomanPSMT-55" x="252.832031"/>
      <use xlink:href="#TimesNewRomanPSMT-50" x="325.048828"/>
      <use xlink:href="#TimesNewRomanPSMT-52" x="380.664062"/>
      <use xlink:href="#TimesNewRomanPSMT-43" x="447.363281"/>
      <use xlink:href="#TimesNewRomanPSMT-3d" x="514.0625"/>
      <use xlink:href="#TimesNewRomanPSMT-30" x="570.458984"/>
      <use xlink:href="#TimesNewRomanPSMT-2e" x="620.458984"/>
      <use xlink:href="#TimesNewRomanPSMT-38" x="645.458984"/>
      <use xlink:href="#TimesNewRomanPSMT-34" x="695.458984"/>
      <use xlink:href="#TimesNewRomanPSMT-32" x="745.458984"/>
      <use xlink:href="#TimesNewRomanPSMT-34" x="795.458984"/>
      <use xlink:href="#TimesNewRomanPSMT-29" x="845.458984"/>
     </g>
    </g>
    <g id="line2d_63">
     <path d="M 314.061265 230.822188 
L 314.061265 230.822188 
L 321.061265 230.822188 
L 321.061265 230.822188 
L 328.061265 230.822188 
" style="fill: none; stroke: #b614bb; stroke-width: 1.5; stroke-linecap: round"/>
    </g>
    <g id="text_32">
     <!-- Logistic (AUPRC=0.9329) -->
     <g style="fill: #262626" transform="translate(333.661265 233.272188) scale(0.07 -0.07)">
      <use xlink:href="#TimesNewRomanPSMT-4c"/>
      <use xlink:href="#TimesNewRomanPSMT-6f" x="61.083984"/>
      <use xlink:href="#TimesNewRomanPSMT-67" x="111.083984"/>
      <use xlink:href="#TimesNewRomanPSMT-69" x="161.083984"/>
      <use xlink:href="#TimesNewRomanPSMT-73" x="188.867188"/>
      <use xlink:href="#TimesNewRomanPSMT-74" x="227.783203"/>
      <use xlink:href="#TimesNewRomanPSMT-69" x="255.566406"/>
      <use xlink:href="#TimesNewRomanPSMT-63" x="283.349609"/>
      <use xlink:href="#TimesNewRomanPSMT-20" x="327.734375"/>
      <use xlink:href="#TimesNewRomanPSMT-28" x="352.734375"/>
      <use xlink:href="#TimesNewRomanPSMT-41" x="386.035156"/>
      <use xlink:href="#TimesNewRomanPSMT-55" x="458.251953"/>
      <use xlink:href="#TimesNewRomanPSMT-50" x="530.46875"/>
      <use xlink:href="#TimesNewRomanPSMT-52" x="586.083984"/>
      <use xlink:href="#TimesNewRomanPSMT-43" x="652.783203"/>
      <use xlink:href="#TimesNewRomanPSMT-3d" x="719.482422"/>
      <use xlink:href="#TimesNewRomanPSMT-30" x="775.878906"/>
      <use xlink:href="#TimesNewRomanPSMT-2e" x="825.878906"/>
      <use xlink:href="#TimesNewRomanPSMT-39" x="850.878906"/>
      <use xlink:href="#TimesNewRomanPSMT-33" x="900.878906"/>
      <use xlink:href="#TimesNewRomanPSMT-32" x="950.878906"/>
      <use xlink:href="#TimesNewRomanPSMT-39" x="1000.878906"/>
      <use xlink:href="#TimesNewRomanPSMT-29" x="1050.878906"/>
     </g>
    </g>
    <g id="line2d_64">
     <path d="M 314.061265 240.732656 
L 314.061265 240.732656 
L 321.061265 240.732656 
L 321.061265 240.732656 
L 328.061265 240.732656 
" style="fill: none; stroke: #6d5aef; stroke-width: 1.5; stroke-linecap: round"/>
    </g>
    <g id="text_33">
     <!-- XGBoost (AUPRC=0.8684) -->
     <g style="fill: #262626" transform="translate(333.661265 243.182656) scale(0.07 -0.07)">
      <use xlink:href="#TimesNewRomanPSMT-58"/>
      <use xlink:href="#TimesNewRomanPSMT-47" x="72.216797"/>
      <use xlink:href="#TimesNewRomanPSMT-42" x="144.433594"/>
      <use xlink:href="#TimesNewRomanPSMT-6f" x="211.132812"/>
      <use xlink:href="#TimesNewRomanPSMT-6f" x="261.132812"/>
      <use xlink:href="#TimesNewRomanPSMT-73" x="311.132812"/>
      <use xlink:href="#TimesNewRomanPSMT-74" x="350.048828"/>
      <use xlink:href="#TimesNewRomanPSMT-20" x="377.832031"/>
      <use xlink:href="#TimesNewRomanPSMT-28" x="402.832031"/>
      <use xlink:href="#TimesNewRomanPSMT-41" x="436.132812"/>
      <use xlink:href="#TimesNewRomanPSMT-55" x="508.349609"/>
      <use xlink:href="#TimesNewRomanPSMT-50" x="580.566406"/>
      <use xlink:href="#TimesNewRomanPSMT-52" x="636.181641"/>
      <use xlink:href="#TimesNewRomanPSMT-43" x="702.880859"/>
      <use xlink:href="#TimesNewRomanPSMT-3d" x="769.580078"/>
      <use xlink:href="#TimesNewRomanPSMT-30" x="825.976562"/>
      <use xlink:href="#TimesNewRomanPSMT-2e" x="875.976562"/>
      <use xlink:href="#TimesNewRomanPSMT-38" x="900.976562"/>
      <use xlink:href="#TimesNewRomanPSMT-36" x="950.976562"/>
      <use xlink:href="#TimesNewRomanPSMT-38" x="1000.976562"/>
      <use xlink:href="#TimesNewRomanPSMT-34" x="1050.976562"/>
      <use xlink:href="#TimesNewRomanPSMT-29" x="1100.976562"/>
     </g>
    </g>
   </g>
  </g>
 </g>
 <defs>
  <clipPath id="p5ef93ed980">
   <rect x="41.565" y="10.8" width="173.875952" height="240.18"/>
  </clipPath>
  <clipPath id="paad28cba60">
   <rect x="245.485" y="10.8" width="173.875952" height="240.18"/>
  </clipPath>
 </defs>
</svg>
